<?xml version="1.0" encoding="utf-8"?>
<!-- Generator: Adobe Illustrator 26.2.1, SVG Export Plug-In . SVG Version: 6.00 Build 0)  -->
<svg version="1.1"
	 id="svg8" inkscape:export-filename="E:\Ittle Scape\Media\ItsyScape\Equipment\Magic\MagicArmor.png" inkscape:export-xdpi="192" inkscape:export-ydpi="192" inkscape:version="0.92.2 (5c3e80d, 2017-08-06)" sodipodi:docname="MagicArmor.svg" xmlns:cc="http://creativecommons.org/ns#" xmlns:dc="http://purl.org/dc/elements/1.1/" xmlns:inkscape="http://www.inkscape.org/namespaces/inkscape" xmlns:rdf="http://www.w3.org/1999/02/22-rdf-syntax-ns#" xmlns:sodipodi="http://sodipodi.sourceforge.net/DTD/sodipodi-0.dtd" xmlns:svg="http://www.w3.org/2000/svg"
	 xmlns="http://www.w3.org/2000/svg" xmlns:xlink="http://www.w3.org/1999/xlink" x="0px" y="0px" viewBox="0 0 512 512"
	 style="enable-background:new 0 0 512 512;" xml:space="preserve">
<style type="text/css">
	.st0{fill:#1972C1;}
	.st1{fill:#27A4E3;}
	.st2{fill:#DFDF0A;}
	.st3{fill:#1972C1;stroke:#FF0000;stroke-width:0.1545;}
	.st4{fill:#27A4E3;stroke:#FF0000;stroke-width:1;stroke-miterlimit:7.3141;}
	.st5{fill:#DFDF0A;stroke:#000000;stroke-width:3;stroke-miterlimit:7.3141;}
	.st6{fill:#27A4E3;stroke:#FF0000;stroke-width:0.1545;}
	.st7{fill:#1972C1;stroke:#FF0000;stroke-width:1;stroke-miterlimit:7.3141;}
</style>
<defs>
	<inkscape:path-effect  effect="spiro" id="path-effect2361" is_visible="true"></inkscape:path-effect>
	<inkscape:path-effect  effect="spiro" id="path-effect2349" is_visible="true"></inkscape:path-effect>
	<inkscape:path-effect  effect="spiro" id="path-effect2298" is_visible="true"></inkscape:path-effect>
	<inkscape:path-effect  effect="spiro" id="path-effect2239" is_visible="true"></inkscape:path-effect>
	<inkscape:path-effect  effect="spiro" id="path-effect2235" is_visible="true"></inkscape:path-effect>
	<inkscape:path-effect  effect="spiro" id="path-effect2850" is_visible="true"></inkscape:path-effect>
	<inkscape:path-effect  effect="spiro" id="path-effect8865" is_visible="true"></inkscape:path-effect>
	<inkscape:path-effect  effect="spiro" id="path-effect8851" is_visible="true"></inkscape:path-effect>
	<inkscape:path-effect  effect="spiro" id="path-effect5016" is_visible="true"></inkscape:path-effect>
	<inkscape:path-effect  effect="spiro" id="path-effect5004" is_visible="true"></inkscape:path-effect>
	<inkscape:path-effect  effect="spiro" id="path-effect1107" is_visible="true"></inkscape:path-effect>
	<inkscape:path-effect  effect="spiro" id="path-effect903" is_visible="true"></inkscape:path-effect>
	<inkscape:path-effect  effect="spiro" id="path-effect885" is_visible="true"></inkscape:path-effect>
	<inkscape:path-effect  effect="spiro" id="path-effect33" is_visible="true"></inkscape:path-effect>
	<inkscape:path-effect  effect="spiro" id="path-effect29" is_visible="true"></inkscape:path-effect>
	<inkscape:path-effect  effect="spiro" id="path-effect25" is_visible="true"></inkscape:path-effect>
	<inkscape:path-effect  effect="spiro" id="path-effect903-1" is_visible="true"></inkscape:path-effect>
	<inkscape:path-effect  effect="spiro" id="path-effect885-6" is_visible="true"></inkscape:path-effect>
	<inkscape:path-effect  effect="spiro" id="path-effect33-0" is_visible="true"></inkscape:path-effect>
	<inkscape:path-effect  effect="spiro" id="path-effect29-6" is_visible="true"></inkscape:path-effect>
	<inkscape:path-effect  effect="spiro" id="path-effect25-1" is_visible="true"></inkscape:path-effect>
	<inkscape:path-effect  effect="spiro" id="path-effect885-9" is_visible="true"></inkscape:path-effect>
	<inkscape:path-effect  effect="spiro" id="path-effect885-9-3" is_visible="true"></inkscape:path-effect>
	<inkscape:path-effect  effect="spiro" id="path-effect903-4" is_visible="true"></inkscape:path-effect>
	<inkscape:path-effect  effect="spiro" id="path-effect2235-4" is_visible="true"></inkscape:path-effect>
	<inkscape:path-effect  effect="spiro" id="path-effect2298-2" is_visible="true"></inkscape:path-effect>
	<inkscape:path-effect  effect="spiro" id="path-effect2349-4" is_visible="true"></inkscape:path-effect>
	<inkscape:path-effect  effect="spiro" id="path-effect2361-4" is_visible="true"></inkscape:path-effect>
	<inkscape:path-effect  effect="spiro" id="path-effect2349-5" is_visible="true"></inkscape:path-effect>
	<inkscape:path-effect  effect="spiro" id="path-effect2298-4" is_visible="true"></inkscape:path-effect>
	<inkscape:path-effect  effect="spiro" id="path-effect2239-5" is_visible="true"></inkscape:path-effect>
	<inkscape:path-effect  effect="spiro" id="path-effect2235-2" is_visible="true"></inkscape:path-effect>
	<inkscape:path-effect  effect="spiro" id="path-effect2850-3" is_visible="true"></inkscape:path-effect>
	<inkscape:path-effect  effect="spiro" id="path-effect8865-6" is_visible="true"></inkscape:path-effect>
	<inkscape:path-effect  effect="spiro" id="path-effect8851-0" is_visible="true"></inkscape:path-effect>
	<inkscape:path-effect  effect="spiro" id="path-effect5016-0" is_visible="true"></inkscape:path-effect>
	<inkscape:path-effect  effect="spiro" id="path-effect5004-1" is_visible="true"></inkscape:path-effect>
	<inkscape:path-effect  effect="spiro" id="path-effect1107-0" is_visible="true"></inkscape:path-effect>
	<inkscape:path-effect  effect="spiro" id="path-effect903-3" is_visible="true"></inkscape:path-effect>
	<inkscape:path-effect  effect="spiro" id="path-effect885-7" is_visible="true"></inkscape:path-effect>
	<inkscape:path-effect  effect="spiro" id="path-effect33-02" is_visible="true"></inkscape:path-effect>
	<inkscape:path-effect  effect="spiro" id="path-effect29-61" is_visible="true"></inkscape:path-effect>
	<inkscape:path-effect  effect="spiro" id="path-effect25-9" is_visible="true"></inkscape:path-effect>
	<inkscape:path-effect  effect="spiro" id="path-effect903-1-8" is_visible="true"></inkscape:path-effect>
	<inkscape:path-effect  effect="spiro" id="path-effect885-6-9" is_visible="true"></inkscape:path-effect>
	<inkscape:path-effect  effect="spiro" id="path-effect33-0-0" is_visible="true"></inkscape:path-effect>
	<inkscape:path-effect  effect="spiro" id="path-effect29-6-9" is_visible="true"></inkscape:path-effect>
	<inkscape:path-effect  effect="spiro" id="path-effect25-1-2" is_visible="true"></inkscape:path-effect>
	<inkscape:path-effect  effect="spiro" id="path-effect885-9-8" is_visible="true"></inkscape:path-effect>
	<inkscape:path-effect  effect="spiro" id="path-effect885-9-3-1" is_visible="true"></inkscape:path-effect>
	<inkscape:path-effect  effect="spiro" id="path-effect903-4-3" is_visible="true"></inkscape:path-effect>
	<inkscape:path-effect  effect="spiro" id="path-effect2235-4-6" is_visible="true"></inkscape:path-effect>
	<inkscape:path-effect  effect="spiro" id="path-effect2298-2-3" is_visible="true"></inkscape:path-effect>
	<inkscape:path-effect  effect="spiro" id="path-effect2349-4-9" is_visible="true"></inkscape:path-effect>
	<inkscape:path-effect  effect="spiro" id="path-effect2361-30" is_visible="true"></inkscape:path-effect>
	<inkscape:path-effect  effect="spiro" id="path-effect2349-2" is_visible="true"></inkscape:path-effect>
	<inkscape:path-effect  effect="spiro" id="path-effect2298-81" is_visible="true"></inkscape:path-effect>
	<inkscape:path-effect  effect="spiro" id="path-effect2239-6" is_visible="true"></inkscape:path-effect>
	<inkscape:path-effect  effect="spiro" id="path-effect2235-45" is_visible="true"></inkscape:path-effect>
	<inkscape:path-effect  effect="spiro" id="path-effect2850-98" is_visible="true"></inkscape:path-effect>
	<inkscape:path-effect  effect="spiro" id="path-effect8865-59" is_visible="true"></inkscape:path-effect>
	<inkscape:path-effect  effect="spiro" id="path-effect8851-5" is_visible="true"></inkscape:path-effect>
	<inkscape:path-effect  effect="spiro" id="path-effect5016-65" is_visible="true"></inkscape:path-effect>
	<inkscape:path-effect  effect="spiro" id="path-effect5004-2" is_visible="true"></inkscape:path-effect>
	<inkscape:path-effect  effect="spiro" id="path-effect1107-22" is_visible="true"></inkscape:path-effect>
	<inkscape:path-effect  effect="spiro" id="path-effect903-0" is_visible="true"></inkscape:path-effect>
	<inkscape:path-effect  effect="spiro" id="path-effect885-12" is_visible="true"></inkscape:path-effect>
	<inkscape:path-effect  effect="spiro" id="path-effect33-828" is_visible="true"></inkscape:path-effect>
	<inkscape:path-effect  effect="spiro" id="path-effect29-9" is_visible="true"></inkscape:path-effect>
	<inkscape:path-effect  effect="spiro" id="path-effect25-06" is_visible="true"></inkscape:path-effect>
	<inkscape:path-effect  effect="spiro" id="path-effect903-1-87" is_visible="true"></inkscape:path-effect>
	<inkscape:path-effect  effect="spiro" id="path-effect885-6-64" is_visible="true"></inkscape:path-effect>
	<inkscape:path-effect  effect="spiro" id="path-effect33-0-4" is_visible="true"></inkscape:path-effect>
	<inkscape:path-effect  effect="spiro" id="path-effect29-6-3" is_visible="true"></inkscape:path-effect>
	<inkscape:path-effect  effect="spiro" id="path-effect25-1-08" is_visible="true"></inkscape:path-effect>
	<inkscape:path-effect  effect="spiro" id="path-effect885-9-0" is_visible="true"></inkscape:path-effect>
	<inkscape:path-effect  effect="spiro" id="path-effect885-9-3-09" is_visible="true"></inkscape:path-effect>
	<inkscape:path-effect  effect="spiro" id="path-effect903-4-73" is_visible="true"></inkscape:path-effect>
	<inkscape:path-effect  effect="spiro" id="path-effect2235-4-1" is_visible="true"></inkscape:path-effect>
	<inkscape:path-effect  effect="spiro" id="path-effect2298-2-0" is_visible="true"></inkscape:path-effect>
	<inkscape:path-effect  effect="spiro" id="path-effect2349-4-1" is_visible="true"></inkscape:path-effect>
	<inkscape:path-effect  effect="spiro" id="path-effect2361-3" is_visible="true"></inkscape:path-effect>
	<inkscape:path-effect  effect="spiro" id="path-effect2349-8" is_visible="true"></inkscape:path-effect>
	<inkscape:path-effect  effect="spiro" id="path-effect2298-3" is_visible="true"></inkscape:path-effect>
	<inkscape:path-effect  effect="spiro" id="path-effect2239-5-7" is_visible="true"></inkscape:path-effect>
	<inkscape:path-effect  effect="spiro" id="path-effect2235-2-7" is_visible="true"></inkscape:path-effect>
	<inkscape:path-effect  effect="spiro" id="path-effect2850-7" is_visible="true"></inkscape:path-effect>
	<inkscape:path-effect  effect="spiro" id="path-effect8865-7" is_visible="true"></inkscape:path-effect>
	<inkscape:path-effect  effect="spiro" id="path-effect8851-2" is_visible="true"></inkscape:path-effect>
	<inkscape:path-effect  effect="spiro" id="path-effect5016-3" is_visible="true"></inkscape:path-effect>
	<inkscape:path-effect  effect="spiro" id="path-effect5004-7" is_visible="true"></inkscape:path-effect>
	<inkscape:path-effect  effect="spiro" id="path-effect1107-7" is_visible="true"></inkscape:path-effect>
	<inkscape:path-effect  effect="spiro" id="path-effect903-5" is_visible="true"></inkscape:path-effect>
	<inkscape:path-effect  effect="spiro" id="path-effect885-0" is_visible="true"></inkscape:path-effect>
	<inkscape:path-effect  effect="spiro" id="path-effect33-8" is_visible="true"></inkscape:path-effect>
	<inkscape:path-effect  effect="spiro" id="path-effect29-2" is_visible="true"></inkscape:path-effect>
	<inkscape:path-effect  effect="spiro" id="path-effect25-2" is_visible="true"></inkscape:path-effect>
	<inkscape:path-effect  effect="spiro" id="path-effect903-1-9" is_visible="true"></inkscape:path-effect>
	<inkscape:path-effect  effect="spiro" id="path-effect885-6-8" is_visible="true"></inkscape:path-effect>
	<inkscape:path-effect  effect="spiro" id="path-effect33-0-8" is_visible="true"></inkscape:path-effect>
	<inkscape:path-effect  effect="spiro" id="path-effect29-6-6" is_visible="true"></inkscape:path-effect>
	<inkscape:path-effect  effect="spiro" id="path-effect25-1-1" is_visible="true"></inkscape:path-effect>
	<inkscape:path-effect  effect="spiro" id="path-effect885-9-37" is_visible="true"></inkscape:path-effect>
	<inkscape:path-effect  effect="spiro" id="path-effect885-9-3-3" is_visible="true"></inkscape:path-effect>
	<inkscape:path-effect  effect="spiro" id="path-effect903-4-4" is_visible="true"></inkscape:path-effect>
	<inkscape:path-effect  effect="spiro" id="path-effect2235-4-0" is_visible="true"></inkscape:path-effect>
	<inkscape:path-effect  effect="spiro" id="path-effect2298-2-4" is_visible="true"></inkscape:path-effect>
	<inkscape:path-effect  effect="spiro" id="path-effect2349-4-4" is_visible="true"></inkscape:path-effect>
	<inkscape:path-effect  effect="spiro" id="path-effect2361-9" is_visible="true"></inkscape:path-effect>
	<inkscape:path-effect  effect="spiro" id="path-effect2349-1" is_visible="true"></inkscape:path-effect>
	<inkscape:path-effect  effect="spiro" id="path-effect2298-7" is_visible="true"></inkscape:path-effect>
	<inkscape:path-effect  effect="spiro" id="path-effect2239-7" is_visible="true"></inkscape:path-effect>
	<inkscape:path-effect  effect="spiro" id="path-effect2235-23" is_visible="true"></inkscape:path-effect>
	<inkscape:path-effect  effect="spiro" id="path-effect2850-8" is_visible="true"></inkscape:path-effect>
	<inkscape:path-effect  effect="spiro" id="path-effect8865-4" is_visible="true"></inkscape:path-effect>
	<inkscape:path-effect  effect="spiro" id="path-effect8851-7" is_visible="true"></inkscape:path-effect>
	<inkscape:path-effect  effect="spiro" id="path-effect5016-7" is_visible="true"></inkscape:path-effect>
	<inkscape:path-effect  effect="spiro" id="path-effect5004-5" is_visible="true"></inkscape:path-effect>
	<inkscape:path-effect  effect="spiro" id="path-effect1107-5" is_visible="true"></inkscape:path-effect>
	<inkscape:path-effect  effect="spiro" id="path-effect903-48" is_visible="true"></inkscape:path-effect>
	<inkscape:path-effect  effect="spiro" id="path-effect885-1" is_visible="true"></inkscape:path-effect>
	<inkscape:path-effect  effect="spiro" id="path-effect33-1" is_visible="true"></inkscape:path-effect>
	<inkscape:path-effect  effect="spiro" id="path-effect29-7" is_visible="true"></inkscape:path-effect>
	<inkscape:path-effect  effect="spiro" id="path-effect25-3" is_visible="true"></inkscape:path-effect>
	<inkscape:path-effect  effect="spiro" id="path-effect903-1-3" is_visible="true"></inkscape:path-effect>
	<inkscape:path-effect  effect="spiro" id="path-effect885-6-3" is_visible="true"></inkscape:path-effect>
	<inkscape:path-effect  effect="spiro" id="path-effect33-0-3" is_visible="true"></inkscape:path-effect>
	<inkscape:path-effect  effect="spiro" id="path-effect29-6-2" is_visible="true"></inkscape:path-effect>
	<inkscape:path-effect  effect="spiro" id="path-effect25-1-3" is_visible="true"></inkscape:path-effect>
	<inkscape:path-effect  effect="spiro" id="path-effect885-9-9" is_visible="true"></inkscape:path-effect>
	<inkscape:path-effect  effect="spiro" id="path-effect885-9-3-2" is_visible="true"></inkscape:path-effect>
	<inkscape:path-effect  effect="spiro" id="path-effect903-4-3-4" is_visible="true"></inkscape:path-effect>
	<inkscape:path-effect  effect="spiro" id="path-effect2235-4-06" is_visible="true"></inkscape:path-effect>
	<inkscape:path-effect  effect="spiro" id="path-effect2298-2-9" is_visible="true"></inkscape:path-effect>
	<inkscape:path-effect  effect="spiro" id="path-effect2349-4-0" is_visible="true"></inkscape:path-effect>
	<inkscape:path-effect  effect="spiro" id="path-effect2361-7" is_visible="true"></inkscape:path-effect>
	<inkscape:path-effect  effect="spiro" id="path-effect2349-60" is_visible="true"></inkscape:path-effect>
	<inkscape:path-effect  effect="spiro" id="path-effect2298-33" is_visible="true"></inkscape:path-effect>
	<inkscape:path-effect  effect="spiro" id="path-effect2239-2" is_visible="true"></inkscape:path-effect>
	<inkscape:path-effect  effect="spiro" id="path-effect2235-01" is_visible="true"></inkscape:path-effect>
	<inkscape:path-effect  effect="spiro" id="path-effect2850-9" is_visible="true"></inkscape:path-effect>
	<inkscape:path-effect  effect="spiro" id="path-effect8865-5" is_visible="true"></inkscape:path-effect>
	<inkscape:path-effect  effect="spiro" id="path-effect8851-1" is_visible="true"></inkscape:path-effect>
	<inkscape:path-effect  effect="spiro" id="path-effect5016-9" is_visible="true"></inkscape:path-effect>
	<inkscape:path-effect  effect="spiro" id="path-effect5004-12" is_visible="true"></inkscape:path-effect>
	<inkscape:path-effect  effect="spiro" id="path-effect1107-8" is_visible="true"></inkscape:path-effect>
	<inkscape:path-effect  effect="spiro" id="path-effect903-31" is_visible="true"></inkscape:path-effect>
	<inkscape:path-effect  effect="spiro" id="path-effect885-15" is_visible="true"></inkscape:path-effect>
	<inkscape:path-effect  effect="spiro" id="path-effect33-82" is_visible="true"></inkscape:path-effect>
	<inkscape:path-effect  effect="spiro" id="path-effect29-30" is_visible="true"></inkscape:path-effect>
	<inkscape:path-effect  effect="spiro" id="path-effect25-7" is_visible="true"></inkscape:path-effect>
	<inkscape:path-effect  effect="spiro" id="path-effect903-1-95" is_visible="true"></inkscape:path-effect>
	<inkscape:path-effect  effect="spiro" id="path-effect885-6-5" is_visible="true"></inkscape:path-effect>
	<inkscape:path-effect  effect="spiro" id="path-effect33-0-5" is_visible="true"></inkscape:path-effect>
	<inkscape:path-effect  effect="spiro" id="path-effect29-6-00" is_visible="true"></inkscape:path-effect>
	<inkscape:path-effect  effect="spiro" id="path-effect25-1-4" is_visible="true"></inkscape:path-effect>
	<inkscape:path-effect  effect="spiro" id="path-effect885-9-33" is_visible="true"></inkscape:path-effect>
	<inkscape:path-effect  effect="spiro" id="path-effect885-9-3-24" is_visible="true"></inkscape:path-effect>
	<inkscape:path-effect  effect="spiro" id="path-effect903-4-5" is_visible="true"></inkscape:path-effect>
	<inkscape:path-effect  effect="spiro" id="path-effect2235-4-5" is_visible="true"></inkscape:path-effect>
	<inkscape:path-effect  effect="spiro" id="path-effect2298-2-7" is_visible="true"></inkscape:path-effect>
	<inkscape:path-effect  effect="spiro" id="path-effect2349-4-9-1" is_visible="true"></inkscape:path-effect>
	<inkscape:path-effect  effect="spiro" id="path-effect2361-4-2" is_visible="true"></inkscape:path-effect>
	<inkscape:path-effect  effect="spiro" id="path-effect2349-6" is_visible="true"></inkscape:path-effect>
	<inkscape:path-effect  effect="spiro" id="path-effect2298-6" is_visible="true"></inkscape:path-effect>
	<inkscape:path-effect  effect="spiro" id="path-effect2239-0" is_visible="true"></inkscape:path-effect>
	<inkscape:path-effect  effect="spiro" id="path-effect2235-7" is_visible="true"></inkscape:path-effect>
	<inkscape:path-effect  effect="spiro" id="path-effect2850-3-7" is_visible="true"></inkscape:path-effect>
	<inkscape:path-effect  effect="spiro" id="path-effect8865-9" is_visible="true"></inkscape:path-effect>
	<inkscape:path-effect  effect="spiro" id="path-effect8851-9" is_visible="true"></inkscape:path-effect>
	<inkscape:path-effect  effect="spiro" id="path-effect5016-2" is_visible="true"></inkscape:path-effect>
	<inkscape:path-effect  effect="spiro" id="path-effect5004-1-7" is_visible="true"></inkscape:path-effect>
	<inkscape:path-effect  effect="spiro" id="path-effect1107-3" is_visible="true"></inkscape:path-effect>
	<inkscape:path-effect  effect="spiro" id="path-effect903-2" is_visible="true"></inkscape:path-effect>
	<inkscape:path-effect  effect="spiro" id="path-effect885-7-3" is_visible="true"></inkscape:path-effect>
	<inkscape:path-effect  effect="spiro" id="path-effect33-8-7" is_visible="true"></inkscape:path-effect>
	<inkscape:path-effect  effect="spiro" id="path-effect29-3" is_visible="true"></inkscape:path-effect>
	<inkscape:path-effect  effect="spiro" id="path-effect25-11" is_visible="true"></inkscape:path-effect>
	<inkscape:path-effect  effect="spiro" id="path-effect903-1-1" is_visible="true"></inkscape:path-effect>
	<inkscape:path-effect  effect="spiro" id="path-effect885-6-6" is_visible="true"></inkscape:path-effect>
	<inkscape:path-effect  effect="spiro" id="path-effect33-0-6" is_visible="true"></inkscape:path-effect>
	<inkscape:path-effect  effect="spiro" id="path-effect29-6-8" is_visible="true"></inkscape:path-effect>
	<inkscape:path-effect  effect="spiro" id="path-effect25-1-9" is_visible="true"></inkscape:path-effect>
	<inkscape:path-effect  effect="spiro" id="path-effect885-9-4" is_visible="true"></inkscape:path-effect>
	<inkscape:path-effect  effect="spiro" id="path-effect885-9-3-6" is_visible="true"></inkscape:path-effect>
	<inkscape:path-effect  effect="spiro" id="path-effect903-4-6" is_visible="true"></inkscape:path-effect>
	<inkscape:path-effect  effect="spiro" id="path-effect2235-4-8" is_visible="true"></inkscape:path-effect>
	<inkscape:path-effect  effect="spiro" id="path-effect2298-2-8" is_visible="true"></inkscape:path-effect>
	<inkscape:path-effect  effect="spiro" id="path-effect2349-4-8" is_visible="true"></inkscape:path-effect>
	<inkscape:path-effect  effect="spiro" id="path-effect2361-5" is_visible="true"></inkscape:path-effect>
	<inkscape:path-effect  effect="spiro" id="path-effect2349-1-6" is_visible="true"></inkscape:path-effect>
	<inkscape:path-effect  effect="spiro" id="path-effect2298-8" is_visible="true"></inkscape:path-effect>
	<inkscape:path-effect  effect="spiro" id="path-effect2239-5-0" is_visible="true"></inkscape:path-effect>
	<inkscape:path-effect  effect="spiro" id="path-effect2235-3" is_visible="true"></inkscape:path-effect>
	<inkscape:path-effect  effect="spiro" id="path-effect2850-0" is_visible="true"></inkscape:path-effect>
	<inkscape:path-effect  effect="spiro" id="path-effect8865-7-6" is_visible="true"></inkscape:path-effect>
	<inkscape:path-effect  effect="spiro" id="path-effect8851-92" is_visible="true"></inkscape:path-effect>
	<inkscape:path-effect  effect="spiro" id="path-effect5016-4" is_visible="true"></inkscape:path-effect>
	<inkscape:path-effect  effect="spiro" id="path-effect5004-4" is_visible="true"></inkscape:path-effect>
	<inkscape:path-effect  effect="spiro" id="path-effect1107-2" is_visible="true"></inkscape:path-effect>
	<inkscape:path-effect  effect="spiro" id="path-effect903-3-7" is_visible="true"></inkscape:path-effect>
	<inkscape:path-effect  effect="spiro" id="path-effect885-65" is_visible="true"></inkscape:path-effect>
	<inkscape:path-effect  effect="spiro" id="path-effect33-7" is_visible="true"></inkscape:path-effect>
	<inkscape:path-effect  effect="spiro" id="path-effect29-7-2" is_visible="true"></inkscape:path-effect>
	<inkscape:path-effect  effect="spiro" id="path-effect25-2-1" is_visible="true"></inkscape:path-effect>
	<inkscape:path-effect  effect="spiro" id="path-effect903-1-8-7" is_visible="true"></inkscape:path-effect>
	<inkscape:path-effect  effect="spiro" id="path-effect885-6-4" is_visible="true"></inkscape:path-effect>
	<inkscape:path-effect  effect="spiro" id="path-effect33-0-9" is_visible="true"></inkscape:path-effect>
	<inkscape:path-effect  effect="spiro" id="path-effect29-6-2-6" is_visible="true"></inkscape:path-effect>
	<inkscape:path-effect  effect="spiro" id="path-effect25-1-0" is_visible="true"></inkscape:path-effect>
	<inkscape:path-effect  effect="spiro" id="path-effect885-9-6" is_visible="true"></inkscape:path-effect>
	<inkscape:path-effect  effect="spiro" id="path-effect885-9-3-0" is_visible="true"></inkscape:path-effect>
	<inkscape:path-effect  effect="spiro" id="path-effect903-4-7" is_visible="true"></inkscape:path-effect>
	<inkscape:path-effect  effect="spiro" id="path-effect2235-4-9" is_visible="true"></inkscape:path-effect>
	<inkscape:path-effect  effect="spiro" id="path-effect2298-2-1" is_visible="true"></inkscape:path-effect>
	<inkscape:path-effect  effect="spiro" id="path-effect2349-4-3" is_visible="true"></inkscape:path-effect>
	<inkscape:path-effect  effect="spiro" id="path-effect2361-8" is_visible="true"></inkscape:path-effect>
	<inkscape:path-effect  effect="spiro" id="path-effect2349-9" is_visible="true"></inkscape:path-effect>
	<inkscape:path-effect  effect="spiro" id="path-effect2298-4-8" is_visible="true"></inkscape:path-effect>
	<inkscape:path-effect  effect="spiro" id="path-effect2239-1" is_visible="true"></inkscape:path-effect>
	<inkscape:path-effect  effect="spiro" id="path-effect2235-0" is_visible="true"></inkscape:path-effect>
	<inkscape:path-effect  effect="spiro" id="path-effect2850-06" is_visible="true"></inkscape:path-effect>
	<inkscape:path-effect  effect="spiro" id="path-effect8865-8" is_visible="true"></inkscape:path-effect>
	<inkscape:path-effect  effect="spiro" id="path-effect8851-3" is_visible="true"></inkscape:path-effect>
	<inkscape:path-effect  effect="spiro" id="path-effect5016-6" is_visible="true"></inkscape:path-effect>
	<inkscape:path-effect  effect="spiro" id="path-effect5004-43" is_visible="true"></inkscape:path-effect>
	<inkscape:path-effect  effect="spiro" id="path-effect1107-28" is_visible="true"></inkscape:path-effect>
	<inkscape:path-effect  effect="spiro" id="path-effect903-8" is_visible="true"></inkscape:path-effect>
	<inkscape:path-effect  effect="spiro" id="path-effect885-94" is_visible="true"></inkscape:path-effect>
	<inkscape:path-effect  effect="spiro" id="path-effect33-1-1" is_visible="true"></inkscape:path-effect>
	<inkscape:path-effect  effect="spiro" id="path-effect29-5" is_visible="true"></inkscape:path-effect>
	<inkscape:path-effect  effect="spiro" id="path-effect25-0" is_visible="true"></inkscape:path-effect>
	<inkscape:path-effect  effect="spiro" id="path-effect903-1-85" is_visible="true"></inkscape:path-effect>
	<inkscape:path-effect  effect="spiro" id="path-effect885-6-0" is_visible="true"></inkscape:path-effect>
	<inkscape:path-effect  effect="spiro" id="path-effect33-0-8-4" is_visible="true"></inkscape:path-effect>
	<inkscape:path-effect  effect="spiro" id="path-effect29-6-0" is_visible="true"></inkscape:path-effect>
	<inkscape:path-effect  effect="spiro" id="path-effect25-1-2-3" is_visible="true"></inkscape:path-effect>
	<inkscape:path-effect  effect="spiro" id="path-effect885-9-38" is_visible="true"></inkscape:path-effect>
	<inkscape:path-effect  effect="spiro" id="path-effect885-9-3-2-8" is_visible="true"></inkscape:path-effect>
	<inkscape:path-effect  effect="spiro" id="path-effect903-4-65" is_visible="true"></inkscape:path-effect>
	<inkscape:path-effect  effect="spiro" id="path-effect2235-4-4" is_visible="true"></inkscape:path-effect>
	<inkscape:path-effect  effect="spiro" id="path-effect2298-2-5" is_visible="true"></inkscape:path-effect>
	<inkscape:path-effect  effect="spiro" id="path-effect2349-4-7" is_visible="true"></inkscape:path-effect>
</defs>
<sodipodi:namedview  bordercolor="#666666" borderopacity="1.0" id="base" inkscape:current-layer="layer1" inkscape:cx="337.1434" inkscape:cy="361.2356" inkscape:document-units="px" inkscape:pageopacity="0.0" inkscape:pageshadow="2" inkscape:snap-global="false" inkscape:window-height="1017" inkscape:window-maximized="1" inkscape:window-width="1920" inkscape:window-x="-8" inkscape:window-y="-8" inkscape:zoom="1.4142136" pagecolor="#ffffff" showgrid="false" units="px">
	</sodipodi:namedview>
<path id="path619" inkscape:connector-curvature="0" sodipodi:nodetypes="aaaaaaaaaaa" class="st0" d="M462.9,125.2
	c-10.8-8.3-23.9-15.5-37.5-16.5c-15.8-1.1-32.7,3.8-45.7,12.8c-13.5,9.3-23.8,23.9-29.3,39.3c-5.6,15.8-7.8,34.6-1.8,50.3
	c4.6,11.9,15.2,21.7,26.5,27.4c15.9,8.1,35.4,9.9,53,7.3c15.9-2.3,33.2-8.1,43.9-20.1c10.5-11.7,13.9-29.1,14.6-44.8
	c0.6-12.5-2.8-25.3-8.2-36.6C474.9,137,469.5,130.2,462.9,125.2z"/>
<path id="path621" inkscape:connector-curvature="0" sodipodi:nodetypes="aaaaaaaaaaaaaaaaaaaaaaaaaaaaaaaaaaaaaaaaaaaaaaaaaaaaaaaaaa" d="
	M410.8,96c-7,0.4-13.9,3.1-20.1,6.4c-6.1,3.2-11.1,8.4-16.5,12.8c-2.5,2.1-4.9,4.2-7.3,6.4c-1.9,1.8-3.6,3.8-5.5,5.5
	c-3.2,2.9-7.2,5-10.1,8.2c-5.4,6.2-10.4,13.2-12.8,21c-1.8,5.8-0.5,12.2-0.9,18.3c-0.3,4-0.6,7.9-0.9,11.9
	c-0.3,4.3-1.1,8.5-0.9,12.8c0.2,4,0.8,8,1.8,11.9c1.3,5,2.7,10.2,5.5,14.6c3.3,5.1,7.8,9.4,12.8,12.8c5.8,3.9,12.8,5.5,19.2,8.2
	c6.7,2.8,12.9,8.3,20.1,8.2c2.3,0,4.1-2.2,6.4-2.7c4.2-1,8.6-0.3,12.8-0.9c4-0.6,7.9-2.1,11.9-2.7c7.9-1.4,16.2-0.3,23.8-2.7
	c4.7-1.5,8.6-4.7,12.8-7.3c4.1-2.6,8.1-5.3,11.9-8.2c5.1-4,11.2-7.3,14.6-12.8c3.2-5.1,3.6-11.5,4.6-17.4c1.2-7.2,1.8-14.6,1.8-21.9
	c0.1-4.9,0.3-9.9-0.9-14.6c-1.2-4.9-4.4-9.1-6.4-13.7c-3.7-8.7-5.4-18.3-10.1-26.5c-1.7-3-4-5.7-6.4-8.2c-3.6-4-7-8.7-11.9-11
	c-8.1-3.8-17.7-2.2-26.5-3.7C426,99.2,418.6,95.5,410.8,96z M415.4,108.7c7.5-0.1,14.9,2.1,21.9,4.6c5.8,2,11.6,4.5,16.5,8.2
	c4,3,7.1,7,10.1,11c2.9,4,5.5,8.2,7.3,12.8c2.3,5.8,3.6,12.1,4.6,18.3c0.6,3.9,1.4,7.9,0.9,11.9c-0.6,5.1-2.9,9.8-4.6,14.6
	c-1.9,5.6-3.7,11.2-6.4,16.5c-2.3,4.5-5.2,8.7-8.2,12.8c-2.8,3.8-5.2,8.3-9.1,11c-1.6,1.1-3.6,1.3-5.5,1.8
	c-7.5,2.2-15.1,4.3-22.9,5.5c-5.1,0.8-10.4,0-15.5,0.9c-5.3,0.9-10.2,5.1-15.5,4.6c-8.3-0.9-15.6-6.5-21.9-11.9
	c-5-4.2-9.6-9.4-11.9-15.5c-2-5.4-0.1-11.6-0.9-17.4c-0.9-6.2-4.7-12-4.6-18.3c0.1-5.4,2.5-10.5,4.6-15.5c2.2-5.4,5.3-10.5,8.2-15.5
	c1.2-2,1.8-4.6,3.7-5.9c1.8-1.3,4.6-0.1,6.4-1.4c1.8-1.2,2.5-3.6,3.7-5.5c2.8-4.2,4.7-9.1,8.2-12.8c4.4-4.6,9.8-8.4,15.5-11
	C404.7,110.2,410.1,108.8,415.4,108.7z"/>
<path id="path1431" inkscape:connector-curvature="0" sodipodi:nodetypes="aaaaaaaaaaaaaaaaaaaaaaaaaaa" class="st1" d="
	M365.9,157.1c-2.1,2.8-1.5,6.9-1.9,10.3c-0.8,6.2-1.3,12.5-1.3,18.7c0,3.5-0.3,7,0.6,10.3c0.8,2.8,2.6,5.2,3.9,7.8
	c1.8,3.6,2.6,7.9,5.2,11c2.7,3.3,6.4,6,10.3,7.8c5.4,2.5,11.5,4,17.5,3.9c3.3-0.1,6.4-2,9.7-2.6c3.8-0.7,7.9-0.2,11.6-1.3
	c4.6-1.4,8.7-4.1,12.9-6.5c3.3-1.8,6.6-3.7,9.7-5.8c2.9-2,6.1-3.8,8.4-6.5c2.7-3.2,4-7.3,5.8-11c2-4.1,4.2-8.1,5.8-12.3
	c1.6-4.2,4.1-8.4,3.9-12.9c-0.3-6.5-4.1-12.4-7.1-18.1c-2.2-4.1-4.8-8.1-7.8-11.6c-4.4-5.3-9.2-10.3-14.9-14.2
	c-3.3-2.3-7-4.5-11-5.2c-3.6-0.6-7.5,0-11,1.3c-3.2,1.2-5.6,4-8.4,5.8c-5.5,3.6-11.6,6.3-16.8,10.3c-2.4,1.9-4.3,4.3-6.5,6.5
	c-1.7,1.7-3.5,3.4-5.2,5.2c-1.1,1.2-1.9,2.8-3.2,3.9C373.2,154.3,368.2,154,365.9,157.1L365.9,157.1z"/>
<path id="path2428" inkscape:connector-curvature="0" sodipodi:nodetypes="cccccccc" class="st2" d="M337,448l7.1,18.1l2.6,19.4
	l16.2-0.6l16.8-12.3l-14.9-24.3l-13.5-7.4L337,448z"/>
<path id="path2430" inkscape:connector-curvature="0" d="M346.8,437.6c-0.3,0-0.7,0-1,0.1c-2.1,0.7-3.1,3.2-4.8,4.5
	c-1.7,1.3-3.9,1.8-5.5,3.2c-0.6,0.5-1.1,1.2-1.3,1.9c-0.5,2.4,0.4,4.9,1.3,7.1c0.7,1.6,2.1,2.7,2.9,4.2c0.9,1.7,1.1,3.7,1.9,5.5
	c0.5,1.1,1.8,2,1.9,3.2c0.1,1.3-1.1,2.3-1.3,3.6c-0.3,1.8,0.1,3.7,0.3,5.5c0.3,2.4,1.1,4.7,1.6,7.1c0.3,1.5-0.1,3.4,1,4.5
	c2,1.9,5.3,1.7,8.1,1.6c2.3,0,4.5-1,6.8-1.6c2.3-0.6,4.7-0.9,6.8-1.9c1.8-0.9,3.3-2.3,4.8-3.6c1.8-1.4,3.4-3.1,5.2-4.5
	c1.1-0.9,2.2-1.7,3.2-2.6c1.4-1.2,4-1.7,4.2-3.6c0.1-1.5-2-2.3-2.9-3.6c-1.7-2.6-3-5.4-4.5-8.1c-0.9-1.6-1.6-3.3-2.6-4.8
	c-1.4-2.2-2.6-4.5-4.5-6.1c-0.6-0.6-1.6-0.8-2.3-1.3c-2.4-1.8-4-4.5-6.5-6.1c-1.1-0.7-2.3-1.2-3.6-1.6c-2-0.8-4-1.5-6.1-1.9
	C348.9,438.1,347.8,437.6,346.8,437.6L346.8,437.6z M351.2,442.9c1.1-0.1,2,0.8,2.9,1.3c1.5,0.8,3,1.7,4.5,2.6
	c1.8,1,4.1,1.4,5.5,2.9c0.6,0.6,0.6,1.6,1,2.3c1.2,2,3,3.5,4.2,5.5c0.8,1.2,1.2,2.6,1.9,3.9c1,1.8,3.5,3.2,3.2,5.2
	c-0.1,0.8-0.9,1.5-1.6,1.6c-0.6,0.1-1.2-0.5-1.6-1c-0.6-0.5-0.9-1.3-1.3-1.9c-1.5-2.2-2.1-5.4-4.5-6.5c-0.7-0.3-1.9-0.4-2.3,0.3
	c-0.3,0.6,0.7,1.1,1,1.6c1,1.8,2,3.6,2.9,5.5c0.9,1.8,3,3.5,2.6,5.5c-0.2,1.1-1.6,1.7-2.6,2.3c-0.7,0.4-1.6,1.4-2.3,1
	c-0.8-0.4-0.1-1.7-0.3-2.6c-0.7-2.8-0.6-6.4-2.9-8.1c-0.4-0.3-1.1-0.1-1.6,0c-0.4,0.1-1,0-1.3,0.3c-0.8,1.2,0.3,2.8,0.6,4.2
	c0.5,1.7,1.3,3.2,1.9,4.8c0.5,1.3,2,2.7,1.3,3.9c-0.5,0.8-1.9,0.1-2.9,0.3c-0.8,0.2-1.6,1.1-2.3,0.6c-0.6-0.4-0.2-1.3-0.3-1.9
	c-0.5-1.9-1.3-3.7-1.9-5.5c-0.6-1.6-0.3-4.3-1.9-4.8c-0.8-0.3-2,0.5-2.3,1.3c-0.3,0.8,0.7,1.5,1,2.3c0.5,1.7,0.4,3.5,1,5.2
	c0.8,2.5,4.7,4.7,3.6,7.1c-0.2,0.4-0.9,0.2-1.3,0.3c-2,0.4-4.4,1.8-6.1,0.6c-0.7-0.4-0.5-1.5-0.6-2.3c-0.3-1.5-0.2-3-0.3-4.5
	c-0.2-2.2-0.7-4.3-1-6.5c-0.2-1.8,0.1-3.7-0.3-5.5c-0.3-1-0.9-1.9-1.3-2.9c-1.7-3.7-6.7-7.2-5.2-11c0.6-1.6,3.4-1,4.8-1.9
	c1.4-0.9,2.3-2.5,3.6-3.6C349.5,444.1,350.2,443,351.2,442.9L351.2,442.9z"/>
<path id="path2406" inkscape:connector-curvature="0" class="st3" d="M271.5,448l-12.4-4.9l-12.4,0.4l1.2,22.7l-21.4,2.2l-14.8-11.6
	l2.5-13.8l-10.7-4.4L189.1,456l8.7,26.7l15.7,8l53.6-4.9L271.5,448z"/>
<path id="path2408" inkscape:connector-curvature="0" class="st1" d="M205.3,443.8l-1.2,8.2v5.3l0.9,5.7l2.6,4.4l2.3,1.9l3.8,2.5
	l5.2,0.3l3.5-0.6l0.6-2.8l-9.3-10.7l-1.7-8.2l-0.6-8.5L205.3,443.8z"/>
<path id="path2410" inkscape:connector-curvature="0" class="st1" d="M261,443.2l0.6,11.6l-2,5.3l-0.3,5.3v3.5v2.8l-0.9,3.8
	l-0.6,3.1l-0.6,3.5l-0.3,1.9l9.3-1.3l5-34.9L261,443.2z"/>
<path id="path2412" inkscape:connector-curvature="0" sodipodi:nodetypes="aaaaaaaaaaaaaaaaaaaaaaaaaaaaaaaaaaaaaaaaaaaaaaaaaaaaaaaaaaaaaaaaaaaaa" d="
	M204.8,435.1c3.6-0.2,7.5-1.3,10.7,0.4c1.8,1,3.2,3.2,3.7,5.3c0.5,2.2-0.3,4.5-0.8,6.7c-0.6,2.6-3.7,5.2-2.5,7.6
	c0.6,1.2,2.6,0.3,3.7,0.9c2.8,1.5,4.4,4.9,7,6.7c1.3,0.8,2.6,1.6,4.1,1.8c4.3,0.5,10.1,1.4,12.8-2.2c1.1-1.5-0.3-3.9-0.4-5.8
	c-0.1-2.7-0.2-5.3,0-8c0.2-2.8-0.2-6.1,1.2-8.5c0.4-0.7,1.3-1.1,2.1-1.3c2.6-0.9,5.5-0.3,8.2-0.4c2.3-0.1,4.7-1,7-0.4
	c2.8,0.7,5,2.8,7.4,4.4c2,1.4,4.9,2.1,5.8,4.4c0.8,2.4-1.5,5-1.6,7.6c-0.1,1.6,0.3,3.3,0.4,4.9c0.2,2.7,0.3,5.3,0.4,8
	c0.2,3.9,0.8,7.7,0.4,11.6c-0.4,3.4-0.1,7.6-2.5,9.8c-1.3,1.1-3.3,0.2-4.9,0.4c-2.6,0.3-5.2,0.7-7.8,1.3c-3.6,0.8-7.1,2.4-10.7,3.1
	c-3.4,0.6-6.9,0.6-10.3,0.9c-3.3,0.3-6.6,0.6-9.9,0.9c-2.5,0.2-4.9,0.5-7.4,0.4c-3.5-0.1-6.9-0.7-10.3-1.3c-1.9-0.3-3.9-0.5-5.8-1.3
	c-2.7-1.2-5.6-2.5-7.4-4.9c-1.7-2.2-1.9-5.3-2.9-8c-1.2-3.3-2.4-6.6-3.7-9.8c-1.2-2.9-3-5.4-3.7-8.5c-0.6-2.4-0.6-5-0.4-7.6
	c0.1-1.7,0.2-3.4,0.8-4.9c0.9-2.2,2.6-4,4.1-5.8c2.3-2.7,4.4-6,7.4-7.6C200.7,435.1,202.8,435.2,204.8,435.1z M259.3,446.2
	c-1.8-0.3-3.5,1.1-5.1,1.8c-0.9,0.4-2,0.6-2.7,1.3c-0.7,0.8-0.9,1.9-1,2.9c-0.2,1.5,0.3,3,0.4,4.4c0.3,3.4,1.7,7,0.8,10.2
	c-0.3,1.3-1.3,2.4-2.3,3.1c-1.7,1.3-3.9,1.5-6,2c-4.3,1-8.6,2.1-13,2c-2-0.1-4.1-0.6-6-1.3c-2.8-1.1-5.6-2.5-8-4.4
	c-3.4-2.7-7.1-5.5-8.9-9.6c-0.8-1.9-0.4-4.1-0.4-6.2c0-1.9,1.5-4.2,0.4-5.6c-1-1.2-3-0.9-4.3-0.2c-2,1-2.6,4-4.1,5.8
	c-1.6,1.9-4.7,2.6-5.1,5.1c-0.4,2.4,2,4.4,2.9,6.7c1.7,4.5,2.4,9.5,4.7,13.6c0.9,1.6,2,3.1,3.5,4c3.4,2.1,7.5,1.9,11.3,2.7
	c1,0.2,1.9,0.4,2.9,0.4c3.8,0.2,7.7-0.3,11.5-0.4c7.4-0.3,14.9,0,22.2-0.9c4-0.5,9,0.8,11.7-2.2c1.9-2,0.8-5.6,1.2-8.5
	c0.8-5.9,2.6-11.7,2.5-17.6c-0.1-2.2,0.4-5.2-1.2-6.5c-1.1-0.8-2.6,0.8-3.9,0.4C261.8,448.9,261,446.5,259.3,446.2z"/>
<path id="path2323" inkscape:connector-curvature="0" class="st1" d="M73.5,190.8l39.8-4.1l21,11.4l11.4,16.5l11,40.7l-7.3,59.9
	l9.1,33.4l-27,12.3l-32.5,3.2l-38.4,6.9L36,371.9l-8.7-3.2l-5.5-11.4l15.1-18.3l19.2-45.7L63,264l-1.4-47.5L73.5,190.8z"/>
<path id="path2327" inkscape:connector-curvature="0" sodipodi:nodetypes="aaaaaaaaaa" class="st0" d="M122.8,317
	c-1.1-1-3.3-1.2-4.6-0.5c-3.1,1.9-2.8,6.7-4.1,10.1c-1.3,3.5-1.5,7.5-3.7,10.5c-2.5,3.6-7.8,4.6-10.1,8.2c-1.4,2.3-2.1,5.1-1.8,7.8
	c0.2,2.2,0.9,4.7,2.7,5.9c5.1,3.6,13,3.9,18.7,1.4c4.3-1.9,7.6-6.4,8.7-11C131.4,338.8,130.9,324.5,122.8,317z"/>
<path id="path2325" inkscape:connector-curvature="0" sodipodi:nodetypes="aaaaaaaaaaaaaaaaaaaaaaaaaaa" class="st0" d="M70.3,200.9
	c2.6-4.2,6.5-8.6,11.4-9.6c3-0.6,6.5,0.7,8.7,2.7c3,2.8,4.1,7.4,4.6,11.4c0.8,7-0.8,14.4-3.2,21c-1.3,3.5-4.5,6.1-5.9,9.6
	c-1.8,4.3-2.8,9-3.2,13.7c-0.5,5.5,1.3,11,0.9,16.5c-0.2,3.3-0.7,6.5-1.8,9.6c-1.2,3.3-3.3,6.1-5,9.1c-2.4,4.3-5.9,8.1-7.3,12.8
	c-1.1,3.7-0.2,7.7-0.9,11.4c-1.2,6.4-3.7,12.5-5.5,18.7c-1,3.5-2.4,6.9-2.7,10.5c-0.4,4,0.4,7.9,0.9,11.9c0.3,2.8,1.8,5.5,1.4,8.2
	c-0.4,3.2-2,6.3-4.1,8.7c-1.6,1.7-3.8,2.8-5.9,3.7c-4.2,1.6-8.8,2.6-13.3,2.3c-4.2-0.3-8.6-1.5-11.9-4.1c-2.1-1.7-4.1-4.2-4.1-6.9
	c-0.2-9.1,9.2-15.8,13.2-24c6-12.3,11.1-25,16.1-37.8c4.4-11.2,11.1-21.9,12.3-33.8c1.1-9.9-4.8-19.7-4.1-29.7
	c0.5-7.1,4.1-13.7,5.9-20.6C68,211.3,67.5,205.4,70.3,200.9L70.3,200.9z"/>
<path id="path2331" inkscape:connector-curvature="0" sodipodi:nodetypes="aaaaaaaaaaaaaaaaaaaaaaaaaaaaaaaaaaaaaaaaaaaa" d="
	M103.7,242.9c0.8-0.9,0.4-2.4,0.6-3.6c0.5-2.4,1.2-4.8,1.8-7.3c0.6-2.8,0.6-5.8,1.8-8.4c0.9-2,2.3-3.8,3.9-5.3c1-1,2.3-1.6,3.6-2.3
	c1-0.6,2.1-1.9,3.2-1.6c1.9,0.4,2.5,2.9,3.6,4.5c1.7,2.7,3.3,5.5,4.5,8.4c0.8,1.9,1.1,3.9,1.6,5.8c0.2,1-0.3,2.6,0.6,2.9
	c2.5,0.8,4-3.3,5.8-5.2c0.8-0.8,1.4-1.8,2.3-2.6c1.4-1.2,3-2,4.5-2.9c1-0.6,1.8-1.9,2.9-1.6c1.7,0.5,2.2,2.8,2.6,4.5
	c0.5,2.6-0.9,5.2-1,7.8c-0.1,2.6,0.3,5.2,0.3,7.8c0,2.3,0.6,4.6,0,6.8c-0.4,1.7-2.1,2.9-2.6,4.5c-0.4,1.4-0.6,3-0.3,4.5
	c0.3,1.4,1.3,2.6,1.9,3.9c1.4,2.7,3.8,5.1,4.2,8.1c0.2,1.8-0.2,3.8-1.3,5.2c-1.7,2-4.5,2.9-7.1,3.2c-2.1,0.2-4.2-0.5-6.1-1.3
	c-2.3-1-4.1-2.7-6.1-4.2c-1.4-1-2.4-3.4-4.2-3.2c-2.9,0.3-3.6,4.6-5.5,6.8c-1.5,1.7-3.1,3.1-4.5,4.8c-1.5,1.8-2.3,4.3-4.2,5.8
	c-1.8,1.5-4.1,3-6.5,2.9c-1.9,0-4.1-1-5.2-2.6c-1.5-2.3,0-5.4-0.3-8.1c-0.3-2.3-0.5-4.6-1.3-6.8c-1-2.5-2.5-4.7-4.2-6.8
	c-2.2-2.7-5.1-4.8-7.4-7.4c-1.1-1.2-1.9-2.6-2.9-3.9c-1.4-1.8-3.7-3-4.2-5.2c-0.5-1.9-0.3-4.6,1.3-5.8c2.2-1.7,5.6,0.2,8.4,0.3
	c2,0.1,4.1,0.6,6.1,0.3c2.2-0.3,4.3-1.3,6.5-1.9C101.8,243.5,103.1,243.7,103.7,242.9L103.7,242.9z"/>
<path id="path2318" inkscape:connector-curvature="0" sodipodi:nodetypes="aaaaaaaaaaaaaaaaaaaaaaaaaaaaaaaaaaaaaaaaaaaaaaaaaaaaaaaaaaaaaaaaaaaaaaaa" d="
	M98.2,180.3c-4.7,0.1-9.1,2.5-13.7,2.7c-4,0.2-8.3-2.6-11.9-0.9c-6.3,3-8.8,11.1-11.9,17.4c-2.2,4.6-3.6,9.6-4.6,14.6
	c-0.8,4.5-0.9,9.1-0.9,13.7c0,5.8,0.5,11.6,0.9,17.4c0.5,7,2.2,14,1.8,21c-0.3,6.2-2.1,12.3-3.7,18.3c-1.2,4.7-2.9,9.2-4.6,13.7
	c-1.6,4.3-4,8.4-5.5,12.8c-1.6,4.8-1.9,9.9-3.7,14.6c-2.1,5.5-4.9,10.7-8.2,15.5c-2.1,3-5.2,5.2-7.3,8.2c-2.2,3.1-4.9,6.3-5.5,10.1
	c-0.6,3.7-0.3,8,1.8,11c2.2,3.1,6.3,4.7,10.1,5.5c4.2,0.9,8.5-0.9,12.8-0.9c6.1-0.1,12.2,0.5,18.3,0.9c3.7,0.2,7.3,1,11,0.9
	c5.9-0.2,11.7-1.5,17.4-2.7c5.3-1.2,10.1-4.7,15.5-4.6c5.8,0.1,10.7,5.8,16.5,5.5c6-0.3,10.7-5.5,16.5-7.3
	c5.6-1.8,11.7-1.9,17.4-3.7c1.6-0.5,3.4-0.7,4.6-1.8c2.7-2.5,4-6.4,4.6-10.1c1-6.7-1.4-13.5-2.7-20.1c-1.8-9-6.6-17.4-7.3-26.5
	c-0.7-8.6,2.1-17,2.7-25.6c0.5-6.4,1.5-12.8,0.9-19.2c-0.7-8.4-3.7-16.5-5.5-24.7c-1.5-7-3.1-14-4.6-21c-0.9-4.3-0.8-8.9-2.7-12.8
	c-2.9-5.8-7.3-11.3-12.8-14.6c-5.4-3.3-12.1-3.3-18.3-4.6C109.8,181.9,104,180.2,98.2,180.3z M96.3,194c5.8-0.4,11.8-0.7,17.4,0.9
	c8.7,2.4,17.7,6.2,23.8,12.8c2,2.2,2.5,5.5,3.7,8.2c3.5,8.5,8.4,16.6,10.1,25.6c1.2,6.6,0.5,13.4,0,20.1c-0.6,8-2.7,15.8-3.7,23.8
	c-1.2,9.7-3.3,19.5-2.7,29.3c0.2,3.1,1.3,6.1,1.8,9.1c1,5.5,4.7,11.2,2.7,16.5c-0.8,2.2-3.3,3.7-5.5,4.6c-3.1,1.3-7.1,2.6-10.1,0.9
	c-3-1.7-3.8-5.8-4.6-9.1c-1-4.2,1.7-8.9,0-12.8c-1.7-3.7-5.3-9.5-9.1-8.2c-2.9,1-1.8,6-1.8,9.1c0,5,2.4,9.7,2.7,14.6
	c0.3,4.6,2.6,10.8-0.9,13.7c-1.9,1.6-4.9-1.3-7.3-0.9c-4.3,0.7-7.7,4.1-11.9,5.5c-12.1,4.1-24.8,6.8-37.5,8.2
	c-5.2,0.6-10.4-0.1-15.5,0c-6.4,0.2-14.7,5.5-19.2,0.9c-3.2-3.3-0.6-9.4,0.9-13.7c2.3-6.6,7.8-11.7,11.9-17.4
	c0.9-1.2,1.9-2.4,2.7-3.7c2.5-4.1,4.6-8.4,6.4-12.8c3.1-7.7,5-15.8,7.3-23.8c1.3-4.3,2.3-8.6,3.7-12.8c2.2-6.5,6.5-12.4,7.3-19.2
	c0.8-7-2.8-14-2.7-21c0.1-7.7,1.8-15.4,3.7-22.9c1.8-7.5,1.5-16.9,7.3-21.9c2.6-2.2,6.7-1.2,10.1-1.8
	C90.2,195.3,93.2,194.3,96.3,194z"/>
<path id="path2329" inkscape:connector-curvature="0" class="st2" d="M104.4,249.3l3.9-10.3l1.3-7.8l2.6-8.4l4.5-6.5l5.2,8.4
	l3.9,9.7l1.9,9.7l5.2-0.6l5.2-7.8l5.8-6.5l0.6,9.7l-2.6,10.3l-2.6,7.8l-0.6,7.8l3.2,5.8l1.9,5.2l-7.1-0.6l-9.7-7.1l-4.5-3.9
	l-5.2,4.5l-7.8,12.9l-5.8,5.2v-7.1v-6.5l-1.3-7.1l-3.2-3.9l-11.6-5.8l-5.8-5.2l9.7,0.6h9.1L104.4,249.3z"/>
<path id="path617" inkscape:connector-curvature="0" sodipodi:nodetypes="caaaaaccac" class="st4" d="M153.4,113.8
	c0,0-18.1-54.5-38.4-73.1c-12.2-11.2-29.4-21.8-45.7-19.2c-16.7,2.6-32,17.3-38.4,32.9c-7.1,17.3-8.3,42.3,4.6,55.8
	c3.2,3.3,9.6,3.8,13.7,1.8c5.8-2.8,10.1-16.5,10.1-16.5l4.6,58.5c0,0,38.8-0.9,55.8-9.1C133.4,138.2,153.4,113.8,153.4,113.8
	L153.4,113.8z"/>
<path id="path1438" inkscape:connector-curvature="0" class="st0" d="M66.1,66.7c-1.9,0-3.9,0.5-5.7,1.2c-2.3,0.9-4,2.8-5.8,4.5
	c-2,1.9-4.6,3.6-6.3,5.7c-4.5,3.3-7.9,8.3-10.5,13.1c-3.1,5.6-7.6,13.1-4.5,18.7c1.9,3.4,7.1,4.5,11,3.9c5.3-0.8,9.1-5.9,12.9-9.7
	c0.4-0.4,0.8-0.8,1.2-1.2c1.9,5.4,3.1,11.1,3.9,16.7c1.2,7.7-2.4,16.4,1.3,23.3c1.9,3.5,6,5.6,9.7,7.1c4.8,2,10.4,3.8,15.5,2.6
	c5.5-1.4,11.1-5.2,13.6-10.3c1-1.9,0.4-4.4,0-6.5c-0.5-2.7-2.7-5-3.2-7.8c-0.3-1.5,0.3-3.1,0-4.5c-0.7-2.8-2.2-5.4-3.9-7.8
	c-2.1-3-5.6-4.8-7.8-7.8c-1.9-2.6-3.1-5.5-4.5-8.4c-2.1-4.4-4.8-8.8-5.8-13.6c-0.7-3.6,1.4-7.6,0-11c-1.4-3.4-4.3-6.5-7.8-7.8
	C68.4,66.9,67.3,66.7,66.1,66.7z"/>
<path id="path1433" inkscape:connector-curvature="0" sodipodi:nodetypes="aaaaaaaaaaaaaaaaaaaaaaaaaaaaaaaaaaaaaaaaaaaaaaaaaaaaaaaaaaaaaaaaaaaaaa" d="
	M84.4,13.6c-7.7-0.8-15.6-0.3-23.3,0.6c-3.9,0.5-8.1,0.8-11.6,2.6c-4.4,2.2-7.5,6.3-11,9.7c-4.3,4.1-9,8-12.3,12.9
	C23,44.2,21.3,49.7,19.1,55c-2.1,4.9-4.6,9.7-5.8,14.9c-1.1,4.8-2.2,10-1.3,14.9c0.7,4,3.5,7.3,5.2,11c2.1,4.7,2.9,10,5.8,14.2
	c1.8,2.6,4.2,5,7.1,6.5c2.2,1.1,4.7,1,7.1,1.3c2.1,0.3,4.3,0.5,6.5,0.6c1.1,0.1,2.2-0.4,3.2,0c4,1.5,8.3,4.4,9.7,8.4
	c1.7,4.7-3.4,9.9-2.6,14.9c0.5,3.1,4.5,5.2,4.5,8.4c0,1.4-2.3,2.5-1.9,3.9c0.7,3.1,4.7,4.7,7.8,5.8c3.6,1.3,7.8,0.8,11.6,0.6
	c7.8-0.3,15.7-1.4,23.3-3.2c5.6-1.4,10.8-3.9,16.2-5.8c5.6-2,11.6-2.9,16.8-5.8c2.9-1.7,5.3-4.2,7.8-6.5c2.9-2.7,5.7-5.5,8.4-8.4
	c2.6-2.7,5.3-5.5,7.8-8.4c2.5-2.9,6.7-5.2,7.1-9.1c0.4-3.1-2.5-5.6-3.9-8.4c-2.7-5.6-5.8-11.1-8.4-16.8c-1.6-3.6-3.1-7.3-4.5-11
	c-2.1-5.5-3.1-11.5-5.8-16.8c-2-4-5.1-7.4-7.8-11c-3.8-5.1-7.3-10.3-11.6-14.9c-4.2-4.5-8.6-8.8-13.6-12.3c-3-2.1-6.3-3.9-9.7-5.2
	C93.6,15.2,89,14.1,84.4,13.6L84.4,13.6z M76.6,23.9c4.5-0.1,8.8,2,12.9,3.9c4,1.8,7.7,4.3,11,7.1c5.6,4.7,10.2,10.5,14.9,16.2
	c4.3,5.2,9.3,10.1,12.3,16.2c2.8,5.6,3.1,12.2,5.2,18.1c3.1,8.6,11.8,16.1,11,25.2c-0.1,1.5-1.6,2.7-2.6,3.9
	c-2.9,3.7-6.3,7.1-9.7,10.3c-2.7,2.5-5.4,5.1-8.4,7.1c-3,2.1-6.3,3.7-9.7,5.2c-6.5,2.9-13.1,5.6-20,7.1c-7,1.5-14.9,5-21.3,1.9
	c-1.4-0.7-2-2.5-2.6-3.9c-1.1-2.6-1.5-5.6-1.9-8.4c-0.5-3.6-0.5-7.3-0.6-11c-0.3-5.2-0.5-10.3-0.6-15.5c0-1.9-0.4-3.9,0-5.8
	c0.5-2.7,2.8-5,3.2-7.8c0.5-3.2,0.2-6.6-0.6-9.7c-0.9-3.1-1.4-8.7-4.5-8.4c-3.8,0.4-1.4,7.7-3.2,11c-1.3,2.3-3.7,3.7-5.2,5.8
	c-2.6,3.6-3,8.8-6.5,11.6c-2.3,1.8-5.7,3.7-8.4,2.6c-3.5-1.5-3.7-6.8-5.2-10.3c-1.1-2.7-1.8-5.6-2.6-8.4c-1-3.8-2.2-7.7-2.6-11.6
	c-0.5-4.7-1.3-9.7,0-14.2c1.6-5.6,4.8-10.9,9-14.9c1.1-1,2.8-1,3.9-1.9c2.9-2.6,3.6-7.1,6.5-9.7c4.3-3.8,10.2-5.5,15.5-7.8
	C69.2,26.3,72.7,24,76.6,23.9z"/>
<path id="path1443" inkscape:connector-curvature="0" class="st5" d="M95.1,81.5l3.9-3.9l3.9-7.7l2.4-4.3l3.9-2.9l3.4,3.9v6.3v6.7
	l5.8,2.4l5.8,1.9l2.4,3.4l-6.3,3.9l-6.7,2.9l-1,4.8l-1.4,7.2l-2.4,1.9l-4.8-4.3l-3.4-6.3l-4.8,4.3l-6.3,3.9l-1.4-3.9l2.9-10.1
	l-9.6-5.3v-6.3L95.1,81.5z"/>
<path id="path2335" inkscape:connector-curvature="0" class="st6" d="M42,452.1l12.4-4.9l12.4,0.4l-1.2,22.7l21.4,2.2l14.8-11.6
	l-2.5-13.8l10.7-4.4l14.4,17.4l-8.7,26.7l-15.7,8l-53.6-4.9L42,452.1z"/>
<path id="path2342" inkscape:connector-curvature="0" class="st0" d="M108.2,447.9l1.2,8.2v5.3l-0.9,5.7l-2.6,4.4l-2.3,1.9l-3.8,2.5
	l-5.2,0.3l-3.5-0.6l-0.6-2.8l9.3-10.7l1.7-8.2l0.6-8.5L108.2,447.9z"/>
<path id="path2344" inkscape:connector-curvature="0" class="st0" d="M52.6,447.3L52,458.9l2,5.3l0.3,5.3v3.5v2.8l0.9,3.8l0.6,3.1
	l0.6,3.5l0.3,1.9l-9.3-1.3l-5-34.9L52.6,447.3z"/>
<path id="path2337" inkscape:connector-curvature="0" sodipodi:nodetypes="aaaaaaaaaaaaaaaaaaaaaaaaaaaaaaaaaaaaaaaaaaaaaaaaaaaaaaaaaaaaaaaaaaaaa" d="
	M108.8,439.2c-3.6-0.2-7.5-1.3-10.7,0.4c-1.8,1-3.2,3.2-3.7,5.3c-0.5,2.2,0.3,4.5,0.8,6.7c0.6,2.6,3.7,5.2,2.5,7.6
	c-0.6,1.2-2.6,0.3-3.7,0.9c-2.8,1.5-4.4,4.9-7,6.7c-1.3,0.8-2.6,1.6-4.1,1.8c-4.3,0.5-10.1,1.4-12.8-2.2c-1.1-1.5,0.3-3.9,0.4-5.8
	c0.1-2.7,0.2-5.3,0-8c-0.2-2.8,0.2-6.1-1.2-8.5c-0.4-0.7-1.3-1.1-2.1-1.3c-2.6-0.9-5.5-0.3-8.2-0.4c-2.3-0.1-4.7-1-7-0.4
	c-2.8,0.7-5,2.8-7.4,4.4c-2,1.4-4.9,2.1-5.8,4.4c-0.8,2.4,1.5,5,1.6,7.6c0.1,1.6-0.3,3.3-0.4,4.9c-0.2,2.7-0.3,5.3-0.4,8
	c-0.2,3.9-0.8,7.7-0.4,11.6c0.4,3.4,0.1,7.6,2.5,9.8c1.3,1.1,3.3,0.2,4.9,0.4c2.6,0.3,5.2,0.7,7.8,1.3c3.6,0.8,7.1,2.4,10.7,3.1
	c3.4,0.6,6.9,0.6,10.3,0.9c3.3,0.3,6.6,0.6,9.9,0.9c2.5,0.2,4.9,0.5,7.4,0.4c3.5-0.1,6.9-0.7,10.3-1.3c1.9-0.3,3.9-0.5,5.8-1.3
	c2.7-1.2,5.6-2.5,7.4-4.9c1.7-2.2,1.9-5.3,2.9-8c1.2-3.3,2.4-6.6,3.7-9.8c1.2-2.9,3-5.4,3.7-8.5c0.6-2.4,0.6-5,0.4-7.6
	c-0.1-1.7-0.2-3.4-0.8-4.9c-0.9-2.2-2.6-4-4.1-5.8c-2.3-2.7-4.4-6-7.4-7.6C112.8,439.2,110.7,439.3,108.8,439.2z M54.2,450.3
	c1.8-0.3,3.5,1.1,5.1,1.8c0.9,0.4,2,0.6,2.7,1.3c0.7,0.8,0.9,1.9,1,2.9c0.2,1.5-0.3,3-0.4,4.4c-0.3,3.4-1.7,7-0.8,10.2
	c0.3,1.3,1.3,2.4,2.3,3.1c1.7,1.3,3.9,1.5,6,2c4.3,1,8.6,2.1,13,2c2-0.1,4.1-0.6,6-1.3c2.8-1.1,5.6-2.5,8-4.4
	c3.4-2.7,7.1-5.5,8.9-9.6c0.8-1.9,0.4-4.1,0.4-6.2c0-1.9-1.5-4.2-0.4-5.6c1-1.2,3-0.9,4.3-0.2c2,1,2.6,4,4.1,5.8
	c1.6,1.9,4.7,2.6,5.1,5.1c0.4,2.4-2,4.4-2.9,6.7c-1.7,4.5-2.4,9.5-4.7,13.6c-0.9,1.6-2,3.1-3.5,4c-3.4,2.1-7.5,1.9-11.3,2.7
	c-1,0.2-1.9,0.4-2.9,0.4c-3.8,0.2-7.7-0.3-11.5-0.4c-7.4-0.3-14.9,0-22.2-0.9c-4-0.5-9,0.8-11.7-2.2c-1.9-2-0.8-5.6-1.2-8.5
	c-0.8-5.9-2.6-11.7-2.5-17.6c0.1-2.2-0.4-5.2,1.2-6.5c1.1-0.8,2.6,0.8,3.9,0.4C51.7,453,52.5,450.6,54.2,450.3z"/>
<path id="path2399" inkscape:connector-curvature="0" sodipodi:nodetypes="cccccccc" class="st2" d="M478.5,442.9l-7.1,18.1
	l-2.6,19.4l-16.2-0.6l-16.8-12.3l14.9-24.3l13.5-7.4L478.5,442.9z"/>
<path id="path2401" inkscape:connector-curvature="0" d="M468.7,432.5c0.3,0,0.7,0,1,0.1c2.1,0.7,3.1,3.2,4.8,4.5
	c1.7,1.3,3.9,1.8,5.5,3.2c0.6,0.5,1.1,1.2,1.3,1.9c0.5,2.4-0.4,4.9-1.3,7.1c-0.7,1.6-2.1,2.7-2.9,4.2c-0.9,1.7-1.1,3.7-1.9,5.5
	c-0.5,1.1-1.8,2-1.9,3.2c-0.1,1.3,1.1,2.3,1.3,3.6c0.3,1.8-0.1,3.7-0.3,5.5c-0.3,2.4-1.1,4.7-1.6,7.1c-0.3,1.5,0.1,3.4-1,4.5
	c-2,1.9-5.3,1.7-8.1,1.6c-2.3,0-4.5-1-6.8-1.6c-2.3-0.6-4.7-0.9-6.8-1.9c-1.8-0.9-3.3-2.3-4.8-3.6c-1.8-1.4-3.4-3.1-5.2-4.5
	c-1.1-0.9-2.2-1.7-3.2-2.6c-1.4-1.2-4-1.7-4.2-3.6c-0.1-1.5,2-2.3,2.9-3.6c1.7-2.6,3-5.4,4.5-8.1c0.9-1.6,1.6-3.3,2.6-4.8
	c1.4-2.2,2.6-4.5,4.5-6.1c0.6-0.6,1.6-0.8,2.3-1.3c2.4-1.8,4-4.5,6.5-6.1c1.1-0.7,2.3-1.2,3.6-1.6c2-0.8,4-1.5,6.1-1.9
	C466.6,433,467.7,432.5,468.7,432.5L468.7,432.5z M464.3,437.7c-1.1-0.1-2,0.8-2.9,1.3c-1.5,0.8-3,1.7-4.5,2.6
	c-1.8,1-4.1,1.4-5.5,2.9c-0.6,0.6-0.6,1.6-1,2.3c-1.2,2-3,3.5-4.2,5.5c-0.8,1.2-1.2,2.6-1.9,3.9c-1,1.8-3.5,3.2-3.2,5.2
	c0.1,0.8,0.9,1.5,1.6,1.6c0.6,0.1,1.2-0.5,1.6-1c0.6-0.5,0.9-1.3,1.3-1.9c1.5-2.2,2.1-5.4,4.5-6.5c0.7-0.3,1.9-0.4,2.3,0.3
	c0.3,0.6-0.7,1.1-1,1.6c-1,1.8-2,3.6-2.9,5.5c-0.9,1.8-3,3.5-2.6,5.5c0.2,1.1,1.6,1.7,2.6,2.3c0.7,0.4,1.6,1.4,2.3,1
	c0.8-0.4,0.1-1.7,0.3-2.6c0.7-2.8,0.6-6.4,2.9-8.1c0.4-0.3,1.1-0.1,1.6,0c0.4,0.1,1,0,1.3,0.3c0.8,1.2-0.3,2.8-0.6,4.2
	c-0.5,1.7-1.3,3.2-1.9,4.8c-0.5,1.3-2,2.7-1.3,3.9c0.5,0.8,1.9,0.1,2.9,0.3c0.8,0.2,1.6,1.1,2.3,0.6c0.6-0.4,0.2-1.3,0.3-1.9
	c0.5-1.9,1.3-3.7,1.9-5.5c0.6-1.6,0.3-4.3,1.9-4.8c0.8-0.3,2,0.5,2.3,1.3c0.3,0.8-0.7,1.5-1,2.3c-0.5,1.7-0.4,3.5-1,5.2
	c-0.8,2.5-4.7,4.7-3.6,7.1c0.2,0.4,0.9,0.2,1.3,0.3c2,0.4,4.4,1.8,6.1,0.6c0.7-0.4,0.5-1.5,0.6-2.3c0.3-1.5,0.2-3,0.3-4.5
	c0.2-2.2,0.7-4.3,1-6.5c0.2-1.8-0.1-3.7,0.3-5.5c0.3-1,0.9-1.9,1.3-2.9c1.7-3.7,6.7-7.2,5.2-11c-0.6-1.6-3.4-1-4.8-1.9
	c-1.4-0.9-2.3-2.5-3.6-3.6C466,439,465.3,437.9,464.3,437.7L464.3,437.7z"/>
<path id="path2473" inkscape:connector-curvature="0" sodipodi:nodetypes="caaaaaccac" class="st7" d="M189.5,113.8
	c0,0,18.1-54.5,38.4-73.1c12.2-11.2,29.4-21.8,45.7-19.2c16.7,2.6,32,17.3,38.4,32.9c7.1,17.3,8.3,42.3-4.6,55.8
	c-3.2,3.3-9.6,3.8-13.7,1.8c-5.8-2.8-10.1-16.5-10.1-16.5l-4.6,58.5c0,0-38.8-0.9-55.8-9.1C209.6,138.2,189.5,113.8,189.5,113.8
	L189.5,113.8z"/>
<path id="path2475" inkscape:connector-curvature="0" class="st1" d="M276.8,66.7c1.9,0,3.9,0.5,5.7,1.2c2.3,0.9,4,2.8,5.8,4.5
	c2,1.9,4.6,3.6,6.3,5.7c4.5,3.3,7.9,8.3,10.5,13.1c3.1,5.6,7.6,13.1,4.5,18.7c-1.9,3.4-7.1,4.5-11,3.9c-5.3-0.8-9.1-5.9-12.9-9.7
	c-0.4-0.4-0.8-0.8-1.2-1.2c-1.9,5.4-3.1,11.1-3.9,16.7c-1.2,7.7,2.4,16.4-1.3,23.3c-1.9,3.5-6,5.6-9.7,7.1c-4.8,2-10.4,3.8-15.5,2.6
	c-5.5-1.4-11.1-5.2-13.6-10.3c-1-1.9-0.4-4.4,0-6.5c0.5-2.7,2.7-5,3.2-7.8c0.3-1.5-0.3-3.1,0-4.5c0.7-2.8,2.2-5.4,3.9-7.8
	c2.1-3,5.6-4.8,7.8-7.8c1.9-2.6,3.1-5.5,4.5-8.4c2.1-4.4,4.8-8.8,5.8-13.6c0.7-3.6-1.4-7.6,0-11c1.4-3.4,4.3-6.5,7.8-7.8
	C274.5,66.9,275.6,66.7,276.8,66.7z"/>
<path id="path2477" inkscape:connector-curvature="0" sodipodi:nodetypes="aaaaaaaaaaaaaaaaaaaaaaaaaaaaaaaaaaaaaaaaaaaaaaaaaaaaaaaaaaaaaaaaaaaaaa" d="
	M258.6,13.6c7.7-0.8,15.6-0.3,23.3,0.6c3.9,0.5,8.1,0.8,11.6,2.6c4.4,2.2,7.5,6.3,11,9.7c4.3,4.1,9,8,12.3,12.9
	c3.2,4.7,4.9,10.3,7.1,15.5c2.1,4.9,4.6,9.7,5.8,14.9c1.1,4.8,2.2,10,1.3,14.9c-0.7,4-3.5,7.3-5.2,11c-2.1,4.7-2.9,10-5.8,14.2
	c-1.8,2.6-4.2,5-7.1,6.5c-2.2,1.1-4.7,1-7.1,1.3c-2.1,0.3-4.3,0.5-6.5,0.6c-1.1,0.1-2.2-0.4-3.2,0c-4,1.5-8.3,4.4-9.7,8.4
	c-1.7,4.7,3.4,9.9,2.6,14.9c-0.5,3.1-4.5,5.2-4.5,8.4c0,1.4,2.3,2.5,1.9,3.9c-0.7,3.1-4.7,4.7-7.8,5.8c-3.6,1.3-7.8,0.8-11.6,0.6
	c-7.8-0.3-15.7-1.4-23.3-3.2c-5.6-1.4-10.8-3.9-16.2-5.8c-5.6-2-11.6-2.9-16.8-5.8c-2.9-1.7-5.3-4.2-7.8-6.5
	c-2.9-2.7-5.7-5.5-8.4-8.4c-2.6-2.7-5.3-5.5-7.8-8.4c-2.5-2.9-6.7-5.2-7.1-9.1c-0.4-3.1,2.5-5.6,3.9-8.4c2.7-5.6,5.8-11.1,8.4-16.8
	c1.6-3.6,3.1-7.3,4.5-11c2.1-5.5,3.1-11.5,5.8-16.8c2-4,5.1-7.4,7.8-11c3.8-5.1,7.3-10.3,11.6-14.9c4.2-4.5,8.6-8.8,13.6-12.3
	c3-2.1,6.3-3.9,9.7-5.2C249.3,15.2,253.9,14.1,258.6,13.6L258.6,13.6z M266.3,23.9c-4.5-0.1-8.8,2-12.9,3.9c-4,1.8-7.7,4.3-11,7.1
	c-5.6,4.7-10.2,10.5-14.9,16.2c-4.3,5.2-9.3,10.1-12.3,16.2c-2.8,5.6-3.1,12.2-5.2,18.1c-3.1,8.6-11.8,16.1-11,25.2
	c0.1,1.5,1.6,2.7,2.6,3.9c2.9,3.7,6.3,7.1,9.7,10.3c2.7,2.5,5.4,5.1,8.4,7.1c3,2.1,6.3,3.7,9.7,5.2c6.5,2.9,13.1,5.6,20,7.1
	c7,1.5,14.9,5,21.3,1.9c1.4-0.7,2-2.5,2.6-3.9c1.1-2.6,1.5-5.6,1.9-8.4c0.5-3.6,0.5-7.3,0.6-11c0.3-5.2,0.5-10.3,0.6-15.5
	c0-1.9,0.4-3.9,0-5.8c-0.5-2.7-2.8-5-3.2-7.8c-0.5-3.2-0.2-6.6,0.6-9.7c0.9-3.1,1.4-8.7,4.5-8.4c3.8,0.4,1.4,7.7,3.2,11
	c1.3,2.3,3.7,3.7,5.2,5.8c2.6,3.6,3,8.8,6.5,11.6c2.3,1.8,5.7,3.7,8.4,2.6c3.5-1.5,3.7-6.8,5.2-10.3c1.1-2.7,1.8-5.6,2.6-8.4
	c1-3.8,2.2-7.7,2.6-11.6c0.5-4.7,1.3-9.7,0-14.2c-1.6-5.6-4.8-10.9-9-14.9c-1.1-1-2.8-1-3.9-1.9c-2.9-2.6-3.6-7.1-6.5-9.7
	c-4.3-3.8-10.2-5.5-15.5-7.8C273.7,26.3,270.2,24,266.3,23.9z"/>
<path id="path2479" inkscape:connector-curvature="0" class="st5" d="M247.8,81.5l-3.9-3.9l-3.9-7.7l-2.4-4.3l-3.9-2.9l-3.4,3.9v6.3
	v6.7l-5.8,2.4l-5.8,1.9l-2.4,3.4l6.3,3.9l6.7,2.9l1,4.8l1.4,7.2l2.4,1.9l4.8-4.3l3.4-6.3l4.8,4.3l6.3,3.9l1.4-3.9l-2.9-10.1l9.6-5.3
	v-6.3L247.8,81.5z"/>
<path id="path2483" inkscape:connector-curvature="0" class="st0" d="M273.6,188.8l-39.8-4.1l-21,11.4l-11.4,16.5l-11,40.7l7.3,59.9
	l-9.1,33.4l27,12.3l32.5,3.2l38.4,6.9l24.7,0.9l8.7-3.2l5.5-11.4l-15.1-18.3L291,291.2l-6.9-29.3l1.4-47.5L273.6,188.8z"/>
<path id="path2485" inkscape:connector-curvature="0" sodipodi:nodetypes="aaaaaaaaaa" class="st1" d="M224.3,315
	c1.1-1,3.3-1.2,4.6-0.5c3.1,1.9,2.8,6.7,4.1,10.1c1.3,3.5,1.5,7.5,3.7,10.5c2.5,3.6,7.8,4.6,10.1,8.2c1.4,2.3,2.1,5.1,1.8,7.8
	c-0.2,2.2-0.9,4.7-2.7,5.9c-5.1,3.6-13,3.9-18.7,1.4c-4.3-1.9-7.6-6.4-8.7-11C215.6,336.8,216.2,322.5,224.3,315z"/>
<path id="path2487" inkscape:connector-curvature="0" sodipodi:nodetypes="aaaaaaaaaaaaaaaaaaaaaaaaaaa" class="st1" d="
	M276.8,198.9c-2.6-4.2-6.5-8.6-11.4-9.6c-3-0.6-6.5,0.7-8.7,2.7c-3,2.8-4.1,7.4-4.6,11.4c-0.8,7,0.8,14.4,3.2,21
	c1.3,3.5,4.5,6.1,5.9,9.6c1.8,4.3,2.8,9,3.2,13.7c0.5,5.5-1.3,11-0.9,16.5c0.2,3.3,0.7,6.5,1.8,9.6c1.2,3.3,3.3,6.1,5,9.1
	c2.4,4.3,5.9,8.1,7.3,12.8c1.1,3.7,0.2,7.7,0.9,11.4c1.2,6.4,3.7,12.5,5.5,18.7c1,3.5,2.4,6.9,2.7,10.5c0.4,4-0.4,7.9-0.9,11.9
	c-0.3,2.8-1.8,5.5-1.4,8.2c0.4,3.2,2,6.3,4.1,8.7c1.6,1.7,3.8,2.8,5.9,3.7c4.2,1.6,8.8,2.6,13.3,2.3c4.2-0.3,8.6-1.5,11.9-4.1
	c2.1-1.7,4.1-4.2,4.1-6.9c0.2-9.1-9.2-15.8-13.2-24c-6-12.3-11.1-25-16.1-37.8c-4.4-11.2-11.1-21.9-12.3-33.8
	c-1.1-9.9,4.8-19.7,4.1-29.7c-0.5-7.1-4.1-13.7-5.9-20.6C279.1,209.3,279.6,203.4,276.8,198.9L276.8,198.9z"/>
<path id="path2489" inkscape:connector-curvature="0" sodipodi:nodetypes="aaaaaaaaaaaaaaaaaaaaaaaaaaaaaaaaaaaaaaaaaaaa" d="
	M243.4,240.9c-0.8-0.9-0.4-2.4-0.6-3.6c-0.5-2.4-1.2-4.8-1.8-7.3c-0.6-2.8-0.6-5.8-1.8-8.4c-0.9-2-2.3-3.8-3.9-5.3
	c-1-1-2.3-1.6-3.6-2.3c-1-0.6-2.1-1.9-3.2-1.6c-1.9,0.4-2.5,2.9-3.6,4.5c-1.7,2.7-3.3,5.5-4.5,8.4c-0.8,1.9-1.1,3.9-1.6,5.8
	c-0.2,1,0.3,2.6-0.6,2.9c-2.5,0.8-4-3.3-5.8-5.2c-0.8-0.8-1.4-1.8-2.3-2.6c-1.4-1.2-3-2-4.5-2.9c-1-0.6-1.8-1.9-2.9-1.6
	c-1.7,0.5-2.2,2.8-2.6,4.5c-0.5,2.6,0.9,5.2,1,7.8c0.1,2.6-0.3,5.2-0.3,7.8c0,2.3-0.6,4.6,0,6.8c0.4,1.7,2.1,2.9,2.6,4.5
	c0.4,1.4,0.6,3,0.3,4.5c-0.3,1.4-1.3,2.6-1.9,3.9c-1.4,2.7-3.8,5.1-4.2,8.1c-0.2,1.8,0.2,3.8,1.3,5.2c1.7,2,4.5,2.9,7.1,3.2
	c2.1,0.2,4.2-0.5,6.1-1.3c2.3-1,4.1-2.7,6.1-4.2c1.4-1,2.4-3.4,4.2-3.2c2.9,0.3,3.6,4.6,5.5,6.8c1.5,1.7,3.1,3.1,4.5,4.8
	c1.5,1.8,2.3,4.3,4.2,5.8c1.8,1.5,4.1,3,6.5,2.9c1.9,0,4.1-1,5.2-2.6c1.5-2.3,0-5.4,0.3-8.1c0.3-2.3,0.5-4.6,1.3-6.8
	c1-2.5,2.5-4.7,4.2-6.8c2.2-2.7,5.1-4.8,7.4-7.4c1.1-1.2,1.9-2.6,2.9-3.9c1.4-1.8,3.7-3,4.2-5.2c0.5-1.9,0.3-4.6-1.3-5.8
	c-2.2-1.7-5.6,0.2-8.4,0.3c-2,0.1-4.1,0.6-6.1,0.3c-2.2-0.3-4.3-1.3-6.5-1.9C245.3,241.5,244,241.7,243.4,240.9L243.4,240.9z"/>
<path id="path2491" inkscape:connector-curvature="0" sodipodi:nodetypes="aaaaaaaaaaaaaaaaaaaaaaaaaaaaaaaaaaaaaaaaaaaaaaaaaaaaaaaaaaaaaaaaaaaaaaaa" d="
	M248.9,178.3c4.7,0.1,9.1,2.5,13.7,2.7c4,0.2,8.3-2.6,11.9-0.9c6.3,3,8.8,11.1,11.9,17.4c2.2,4.6,3.6,9.6,4.6,14.6
	c0.8,4.5,0.9,9.1,0.9,13.7c0,5.8-0.5,11.6-0.9,17.4c-0.5,7-2.2,14-1.8,21c0.3,6.2,2.1,12.3,3.7,18.3c1.2,4.7,2.9,9.2,4.6,13.7
	c1.6,4.3,4,8.4,5.5,12.8c1.6,4.8,1.9,9.9,3.7,14.6c2.1,5.5,4.9,10.7,8.2,15.5c2.1,3,5.2,5.2,7.3,8.2c2.2,3.1,4.9,6.3,5.5,10.1
	c0.6,3.7,0.3,8-1.8,11c-2.2,3.1-6.3,4.7-10.1,5.5c-4.2,0.9-8.5-0.9-12.8-0.9c-6.1-0.1-12.2,0.5-18.3,0.9c-3.7,0.2-7.3,1-11,0.9
	c-5.9-0.2-11.7-1.5-17.4-2.7c-5.3-1.2-10.1-4.7-15.5-4.6c-5.8,0.1-10.7,5.8-16.5,5.5c-6-0.3-10.7-5.5-16.5-7.3
	c-5.6-1.8-11.7-1.9-17.4-3.7c-1.6-0.5-3.4-0.7-4.6-1.8c-2.7-2.5-4-6.4-4.6-10.1c-1-6.7,1.4-13.5,2.7-20.1c1.8-9,6.6-17.4,7.3-26.5
	c0.7-8.6-2.1-17-2.7-25.6c-0.5-6.4-1.5-12.8-0.9-19.2c0.7-8.4,3.7-16.5,5.5-24.7c1.5-7,3.1-14,4.6-21c0.9-4.3,0.8-8.9,2.7-12.8
	c2.9-5.8,7.3-11.3,12.8-14.6c5.4-3.3,12.1-3.3,18.3-4.6C237.3,179.9,243.1,178.2,248.9,178.3z M250.8,192
	c-5.8-0.4-11.8-0.7-17.4,0.9c-8.7,2.4-17.7,6.2-23.8,12.8c-2,2.2-2.5,5.5-3.7,8.2c-3.5,8.5-8.4,16.6-10.1,25.6
	c-1.2,6.6-0.5,13.4,0,20.1c0.6,8,2.7,15.8,3.7,23.8c1.2,9.7,3.3,19.5,2.7,29.3c-0.2,3.1-1.3,6.1-1.8,9.1c-1,5.5-4.7,11.2-2.7,16.5
	c0.8,2.2,3.3,3.7,5.5,4.6c3.1,1.3,7.1,2.6,10.1,0.9c3-1.7,3.8-5.8,4.6-9.1c1-4.2-1.7-8.9,0-12.8c1.7-3.7,5.3-9.5,9.1-8.2
	c2.9,1,1.8,6,1.8,9.1c0,5-2.4,9.7-2.7,14.6c-0.3,4.6-2.6,10.8,0.9,13.7c1.9,1.6,4.9-1.3,7.3-0.9c4.3,0.7,7.7,4.1,11.9,5.5
	c12.1,4.1,24.8,6.8,37.5,8.2c5.2,0.6,10.4-0.1,15.5,0c6.4,0.2,14.7,5.5,19.2,0.9c3.2-3.3,0.6-9.4-0.9-13.7
	c-2.3-6.6-7.8-11.7-11.9-17.4c-0.9-1.2-1.9-2.4-2.7-3.7c-2.5-4.1-4.6-8.4-6.4-12.8c-3.1-7.7-5-15.8-7.3-23.8
	c-1.3-4.3-2.3-8.6-3.7-12.8c-2.2-6.5-6.5-12.4-7.3-19.2c-0.8-7,2.8-14,2.7-21c-0.1-7.7-1.8-15.4-3.7-22.9
	c-1.8-7.5-1.5-16.9-7.3-21.9c-2.6-2.2-6.7-1.2-10.1-1.8C256.9,193.3,253.9,192.3,250.8,192z"/>
<path id="path2493" inkscape:connector-curvature="0" class="st2" d="M242.7,247.3l-3.9-10.3l-1.3-7.8l-2.6-8.4l-4.5-6.5l-5.2,8.4
	l-3.9,9.7l-1.9,9.7l-5.2-0.6l-5.2-7.8l-5.8-6.5l-0.6,9.7l2.6,10.3l2.6,7.8l0.6,7.8l-3.2,5.8l-1.9,5.2l7.1-0.6l9.7-7.1l4.5-3.9
	l5.2,4.5l7.8,12.9l5.8,5.2v-7.1v-6.5l1.3-7.1l3.2-3.9l11.6-5.8l5.8-5.2l-9.7,0.6h-9.1L242.7,247.3z"/>
</svg>
