<?xml version="1.0" encoding="utf-8"?>
<!-- Generator: Adobe Illustrator 26.2.1, SVG Export Plug-In . SVG Version: 6.00 Build 0)  -->
<svg version="1.1"
	 id="svg8" inkscape:version="0.92.2 (5c3e80d, 2017-08-06)" sodipodi:docname="Itsy.svg" xmlns:cc="http://creativecommons.org/ns#" xmlns:dc="http://purl.org/dc/elements/1.1/" xmlns:inkscape="http://www.inkscape.org/namespaces/inkscape" xmlns:rdf="http://www.w3.org/1999/02/22-rdf-syntax-ns#" xmlns:sodipodi="http://sodipodi.sourceforge.net/DTD/sodipodi-0.dtd" xmlns:svg="http://www.w3.org/2000/svg"
	 xmlns="http://www.w3.org/2000/svg" xmlns:xlink="http://www.w3.org/1999/xlink" x="0px" y="0px" viewBox="0 0 256 256"
	 style="enable-background:new 0 0 256 256;" xml:space="preserve">
<style type="text/css">
	.st0{fill:none;}
	.st1{fill:#72B9CC;}
	.st2{fill:#E1F3E1;}
	.st3{fill:#22B1D4;}
	.st4{fill:#853F25;}
	.st5{fill:none;stroke:#000000;stroke-width:1.5547;stroke-miterlimit:9.6683;}
	.st6{fill:#72331C;}
	.st7{fill:none;stroke:#000000;stroke-width:2.332;stroke-miterlimit:9.6683;}
	.st8{fill:#CCCCCC;}
	.st9{fill:#E8E8E8;}
	.st10{fill:#8358C3;}
	.st11{fill:#694394;fill-opacity:0.9988;}
	.st12{fill:#1C90AD;}
	.st13{fill:#72B9CC;stroke:#000000;stroke-width:1.5547;stroke-miterlimit:9.6683;}
	.st14{fill:#187692;}
	.st15{fill:#22B1D4;stroke:#000000;stroke-width:1.5547;stroke-miterlimit:9.6683;}
</style>
<defs>
	<inkscape:path-effect  effect="spiro" id="path-effect2361" is_visible="true"></inkscape:path-effect>
	<inkscape:path-effect  effect="spiro" id="path-effect2349" is_visible="true"></inkscape:path-effect>
	<inkscape:path-effect  effect="spiro" id="path-effect2298" is_visible="true"></inkscape:path-effect>
	<inkscape:path-effect  effect="spiro" id="path-effect2239" is_visible="true"></inkscape:path-effect>
	<inkscape:path-effect  effect="spiro" id="path-effect2235" is_visible="true"></inkscape:path-effect>
	<inkscape:path-effect  effect="spiro" id="path-effect2850" is_visible="true"></inkscape:path-effect>
	<inkscape:path-effect  effect="spiro" id="path-effect8865" is_visible="true"></inkscape:path-effect>
	<inkscape:path-effect  effect="spiro" id="path-effect8851" is_visible="true"></inkscape:path-effect>
	<inkscape:path-effect  effect="spiro" id="path-effect5016" is_visible="true"></inkscape:path-effect>
	<inkscape:path-effect  effect="spiro" id="path-effect5004" is_visible="true"></inkscape:path-effect>
	<inkscape:path-effect  effect="spiro" id="path-effect1107" is_visible="true"></inkscape:path-effect>
	<inkscape:path-effect  effect="spiro" id="path-effect903" is_visible="true"></inkscape:path-effect>
	<inkscape:path-effect  effect="spiro" id="path-effect885" is_visible="true"></inkscape:path-effect>
	<inkscape:path-effect  effect="spiro" id="path-effect33" is_visible="true"></inkscape:path-effect>
	<inkscape:path-effect  effect="spiro" id="path-effect29" is_visible="true"></inkscape:path-effect>
	<inkscape:path-effect  effect="spiro" id="path-effect25" is_visible="true"></inkscape:path-effect>
	<inkscape:path-effect  effect="spiro" id="path-effect903-1" is_visible="true"></inkscape:path-effect>
	<inkscape:path-effect  effect="spiro" id="path-effect885-6" is_visible="true"></inkscape:path-effect>
	<inkscape:path-effect  effect="spiro" id="path-effect33-0" is_visible="true"></inkscape:path-effect>
	<inkscape:path-effect  effect="spiro" id="path-effect29-6" is_visible="true"></inkscape:path-effect>
	<inkscape:path-effect  effect="spiro" id="path-effect25-1" is_visible="true"></inkscape:path-effect>
	<inkscape:path-effect  effect="spiro" id="path-effect885-9" is_visible="true"></inkscape:path-effect>
	<inkscape:path-effect  effect="spiro" id="path-effect885-9-3" is_visible="true"></inkscape:path-effect>
	<inkscape:path-effect  effect="spiro" id="path-effect903-4" is_visible="true"></inkscape:path-effect>
	<inkscape:path-effect  effect="spiro" id="path-effect2235-4" is_visible="true"></inkscape:path-effect>
	<inkscape:path-effect  effect="spiro" id="path-effect2298-2" is_visible="true"></inkscape:path-effect>
	<inkscape:path-effect  effect="spiro" id="path-effect2349-4" is_visible="true"></inkscape:path-effect>
	<inkscape:path-effect  effect="spiro" id="path-effect903-7" is_visible="true"></inkscape:path-effect>
	<inkscape:path-effect  effect="spiro" id="path-effect885-0" is_visible="true"></inkscape:path-effect>
	<inkscape:path-effect  effect="spiro" id="path-effect1876" is_visible="true"></inkscape:path-effect>
	<inkscape:path-effect  effect="spiro" id="path-effect1107-4" is_visible="true"></inkscape:path-effect>
	<inkscape:path-effect  effect="spiro" id="path-effect2850-5" is_visible="true"></inkscape:path-effect>
	<inkscape:path-effect  effect="spiro" id="path-effect1880" is_visible="true"></inkscape:path-effect>
</defs>
<sodipodi:namedview  bordercolor="#666666" borderopacity="1.0" id="base" inkscape:current-layer="layer1" inkscape:cx="112.44821" inkscape:cy="487.0437" inkscape:document-units="px" inkscape:lockguides="true" inkscape:pageopacity="0.0" inkscape:pageshadow="2" inkscape:snap-global="false" inkscape:window-height="1017" inkscape:window-maximized="1" inkscape:window-width="1920" inkscape:window-x="-8" inkscape:window-y="-8" inkscape:zoom="1.4142136" pagecolor="#ffffff" showgrid="false" showguides="false" units="px">
	</sodipodi:namedview>
<g id="layer1" transform="translate(0,-161.53331)" inkscape:groupmode="layer" inkscape:label="Layer 1">
	<g id="g951" transform="translate(0,-20)">
	</g>
	<g id="g3258" transform="translate(-218.1897,-407.2206)" inkscape:export-xdpi="192" inkscape:export-ydpi="192">
		<rect id="rect2930" x="218.2" y="568.8" class="st0" width="256" height="256"/>
		<g id="g3167" transform="translate(2.1043971,0.51215001)">
			<g id="g1715" transform="matrix(1.5546954,0,0,1.5546954,-147.32837,275.02541)">
				<rect id="rect1653" x="252.1" y="193" class="st0" width="64" height="128"/>
				<g id="g1713" transform="translate(0,2.575728)" inkscape:export-xdpi="192" inkscape:export-ydpi="192">
					<g id="g2151" transform="translate(0,-2.8749657)">
						<path id="path1655" inkscape:connector-curvature="0" sodipodi:nodetypes="aaaaaaaaa" class="st1" d="M265.3,310
							c-3.1-4.8-4.1-11.3-3-17c1.4-7.3,5.1-15.4,11.5-19c6.1-3.4,15-3.6,21,0c6.3,3.8,9.3,12.2,10.5,19.5c1,6.2,0.7,13.5-3,18.5
							c-2.2,3-6.4,4.2-10,5c-5.7,1.3-12,1.3-17.5-0.5C271.2,315.3,267.4,313.3,265.3,310z"/>
						<path id="path1657" inkscape:connector-curvature="0" sodipodi:nodetypes="aaaaaaaaaaaaaaa" class="st2" d="M291.5,285
							c0.8-0.9,1.8-1.7,3-2c0.5-0.1,1-0.1,1.5,0c0.9,0.2,1.7,0.6,2.5,1c0.5,0.3,1.1,0.6,1.5,1c0.7,0.7,1.4,1.5,1.5,2.5
							c0.1,0.9-0.3,1.9-0.8,2.8c-0.4,0.7-0.9,1.5-1.5,2c-0.4,0.4-1,0.6-1.5,0.8c-0.9,0.3-1.8,0.7-2.8,0.5s-1.8-1-2.5-1.8
							c-0.4-0.4-0.8-0.9-1-1.5c-0.3-0.9-0.4-1.8-0.5-2.8c0-0.4-0.1-0.8,0-1.2C291.1,285.8,291.2,285.4,291.5,285z"/>
						
							<path id="path1659" inkscape:connector-curvature="0" sodipodi:nodetypes="cssssaaaaaaaaaaaaaaaaaaaaaaacccccccccc" class="st3" d="
							M286.2,271.7c0,0-0.1,2.1-1.2,3.4c-1.2,1.4-3.6,2.2-4.3,3.6c-0.7,1.3,0.2,3.1-0.2,4.5c-0.3,1.1-1.8,1.8-2.2,2.8
							c-0.3,0.9-0.9,1.6-1.1,2.5c-0.3,1.1-0.2,2.2-0.2,3.2c0,0.8,0.1,1.6,0,2.4s-0.6,1.5-0.8,2.2c-0.1,0.6-0.1,1.2-0.1,1.8
							c0,0.8,0,1.7,0.1,2.5s0.3,1.6,0.5,2.4c0.1,0.6,0.4,1.2,0.5,1.8c0.1,0.5,0.3,1.1,0.2,1.6c0,0.5-0.2,1-0.2,1.5s0,1,0,1.5
							c0,0.7,0.1,1.3,0,2c0,0.3-0.2,0.5-0.1,0.8c0.4,0.8,1.4,1.2,2.2,1.5c1,0.3,2.1,0.2,3.1,0.2c0.8,0.1,1.6,0,2.4,0.1
							c0.3,0.1,0.7,0.1,1,0.2c0.6,0.2,1.1,0.7,1.6,0.6c0.7-0.1,1-1.2,1.8-1.4c0.6-0.2,1.3,0.1,1.9,0.1c0.4,0,0.7,0.1,1.1,0.1
							c0.2,0,0.4-0.1,0.6,0c0.4,0.1,0.8,0.4,1,0.8c0.3,0.5,0.2,1.8,0.2,1.8l-5.1,0.9l-11.5,0.1l-11.8-6.8l-3-12.5l3.6-15l3.5-5.6
							l5.3-3.7l5.7-1.3L286.2,271.7z"/>
						
							<path id="path1661" inkscape:connector-curvature="0" sodipodi:nodetypes="aaaaaaaaaaaaaaaaaaaaaaaaaaaaaaaaaaaaaaaaaaaaaaaaaaaaaaaaaaaaaaaaaaaaaaaaaaaaaaaaaaaaaaaaaaaaaaa" d="
							M289.2,269.4c-1-0.1-2,0.1-3,0.2c-1.2,0-2.5-0.1-3.7,0c-1.7,0.1-3.3,0.2-4.9,0.5c-1.5,0.4-3,0.8-4.4,1.6
							c-1.1,0.6-2.1,1.4-3,2.3c-0.7,0.7-1.1,1.7-1.8,2.5c-0.6,0.7-1.2,1.3-1.8,1.9c-0.8,0.9-1.8,1.8-2.5,2.8
							c-0.3,0.4-0.4,0.9-0.5,1.4c-0.3,0.9-0.4,1.8-0.7,2.7c-0.4,0.9-1.2,1.7-1.6,2.7c-0.3,0.7-0.4,1.5-0.5,2.3
							c-0.1,0.9-0.1,1.9-0.2,2.8c-0.1,1.2,0,2.5-0.2,3.7c-0.1,1-0.5,1.9-0.5,2.8c0,1.1,0.3,2.1,0.5,3.2c0.3,1,0.7,2,1.1,3
							c0.3,0.7,0.5,1.4,0.9,2.1c0.4,0.8,1,1.5,1.4,2.3s0.6,1.8,1.2,2.5c0.7,0.8,1.7,1.2,2.7,1.8c0.5,0.3,1.1,0.5,1.6,0.9
							c0.6,0.5,1.1,1.2,1.8,1.6c0.9,0.5,2,0.5,3,0.9c0.6,0.2,1.1,0.7,1.8,0.9c0.7,0.2,1.4,0.2,2.1,0.4c0.4,0.1,0.8,0.4,1.2,0.5
							c1,0.2,2.1,0.1,3.2,0.2c0.9,0.1,1.8,0.3,2.7,0.4c1,0,2,0,3-0.2c0.7-0.1,1.4-0.4,2.1-0.5s1.4,0.1,2.1,0
							c1.1-0.1,2.1-0.3,3.2-0.5c0.8-0.2,1.7-0.4,2.5-0.7c0.7-0.3,1.3-0.6,1.9-1.1s1.1-1.1,1.8-1.6c0.5-0.4,1.1-0.6,1.6-0.9
							c0.7-0.4,1.6-0.6,2.1-1.2c0.4-0.4,0.6-1,0.7-1.6c0.3-1.3-0.1-2.6,0.2-3.9c0.2-1.2,0.8-2.2,1.1-3.4c0.1-0.8,0.1-1.5,0.2-2.3
							s0.3-1.5,0.4-2.3c0.1-0.9,0-1.8,0-2.7c-0.1-1.2-0.2-2.4-0.4-3.5c-0.1-0.8-0.2-1.7-0.4-2.5c-0.2-0.9-0.4-1.8-0.7-2.7
							c-0.3-1-0.8-2-1.1-3c-0.3-1-0.2-2-0.5-3c-0.3-0.9-0.7-1.6-1.1-2.5s-0.6-1.8-1.1-2.7c-0.7-1.1-1.5-2.1-2.5-3
							c-0.8-0.7-1.9-1.2-2.8-1.8c-0.7-0.4-1.4-0.9-2.1-1.2c-1.1-0.6-2.2-1.2-3.4-1.6C291,269.7,290.1,269.5,289.2,269.4z
							 M283.7,272.8c1.2-0.1,2.4,0,3.5,0.2c1.4,0.2,2.7,0.7,4.1,1.2c1,0.4,2.1,0.8,3,1.4c1.6,1.1,2.8,2.7,4.1,4.2
							c1.1,1.3,2.4,2.6,3.2,4.2c0.7,1.5,1.1,3.3,1.2,4.9c0.2,1.8-0.1,3.5-0.2,5.3c0,1.1,0,2.1,0,3.2c0,2.6,0.4,5.2-0.2,7.8
							c-0.2,1-0.8,1.9-1.2,2.8c-0.4,1-0.7,2.1-1.4,2.8c-0.6,0.6-1.4,0.9-2.1,1.2c-0.6,0.3-1.2,0.4-1.8,0.7c-1,0.5-1.9,1.4-3,1.8
							c-0.9,0.3-1.9,0.3-2.8,0.5c-1.2,0.3-2.4,0.7-3.7,0.9c-1.1,0.1-2.2,0.1-3.4,0c-1.2-0.1-2.5-0.1-3.7-0.4
							c-1.4-0.3-2.8-0.8-4.2-1.2c-0.9-0.3-1.9-0.4-2.8-0.9c-0.6-0.3-1.2-0.8-1.8-1.2c-0.7-0.4-1.5-0.7-2.1-1.2
							c-0.7-0.6-1.5-1.3-1.9-2.1c-0.5-0.9-0.6-1.9-0.9-2.8c-0.3-1-0.7-2-0.9-3c-0.1-0.8-0.2-1.6-0.2-2.5c0-1.3,0.4-2.6,0.5-3.9
							c0.1-0.9,0.3-1.8,0.4-2.7c0-1-0.3-2-0.2-3c0.1-1.1,0.5-2.2,0.9-3.2c0.6-1.4,1.7-2.6,2.3-4.1c0.5-1.2,0.1-2.8,0.9-3.9
							c0.6-0.9,1.8-1.1,2.7-1.8c0.5-0.4,0.8-0.9,1.2-1.2c0.7-0.6,1.5-1.3,2.3-1.8c1.2-0.7,2.5-1.4,3.9-1.8
							C280.7,273.1,282.2,272.9,283.7,272.8z"/>
						<path id="path1663" inkscape:connector-curvature="0" sodipodi:nodetypes="cacacacac" class="st4" d="M261.5,308.8
							c0,0,0.1,1.8,0.4,2.6c0.2,0.5,0.9,1.2,0.9,1.2s12.3-0.1,18.5-0.4c8.5-0.3,25.4-1.5,25.4-1.5s0.6-1.3,0.6-2s-0.6-2.2-0.6-2.2
							s-17.3,2.2-26,2.5C274.3,309.4,261.5,308.8,261.5,308.8z"/>
						
							<path id="path1665" inkscape:connector-curvature="0" sodipodi:nodetypes="aaaaaaaaaaaaaaaaaaaaaaaaaaaaaaaaaaaaaaaaaaaaaaaaaaaaaaaaaaaaaaaaaaaaaaaaaaaaaaaaaaa" class="st5" d="
							M262.2,308.8c-0.1,0-0.2,0.2-0.2,0.3c-0.1,0.1-0.1,0.3-0.1,0.4c0,0.2,0,0.3,0.1,0.5c0,0.2,0.1,0.3,0.2,0.4
							c0,0.2,0,0.4,0.1,0.6s0.1,0.4,0.2,0.6c0.1,0.1,0.1,0.2,0.2,0.3c0.1,0.1,0.2,0.2,0.4,0.3c0.1,0.1,0.2,0.1,0.3,0.1
							c0.3,0.1,0.7,0.1,1,0.1c0.4,0,0.8-0.1,1.3-0.1c0.3,0,0.6,0,0.9,0c0.4,0,0.9,0,1.3,0s0.9,0,1.3-0.1c0.4,0,0.7-0.1,1-0.1
							c0.4,0,0.8,0,1.1,0c0.4,0,0.8,0,1.3,0c0.4,0,0.7,0.1,1.1,0.1c0.6,0,1.3-0.1,1.9-0.1c0.4,0,0.8,0,1.2,0c0.5,0,0.9,0,1.4,0
							c0.4,0,0.8,0,1.2,0c0.3,0,0.6-0.1,0.9-0.1c0.5,0,1.1,0,1.6,0c0.4,0,0.8-0.1,1.2-0.1c0.4,0,0.8,0,1.2,0c0.3,0,0.7-0.1,1-0.1
							s0.6,0,1,0c0.2,0,0.4-0.1,0.7-0.1c0.3,0,0.5,0,0.8,0c0.4,0,0.8,0,1.1,0c0.4,0,0.8,0,1.2,0c0.3,0,0.6,0,0.9,0s0.6-0.1,0.9-0.1
							c0.2,0,0.5,0,0.7,0c0.3,0,0.7,0,1-0.1c0.2,0,0.3-0.1,0.5-0.1s0.4,0,0.6,0c0.5,0,1.1,0,1.6-0.1c0.4,0,0.7-0.1,1.1-0.1
							c0.5-0.1,1-0.2,1.6-0.2c0.4,0,0.8,0.1,1.2,0.1c0.4,0,0.9,0.1,1.3,0.1s0.8-0.1,1.2-0.2c0.3,0,0.7-0.1,1-0.1s0.7-0.1,1-0.1
							s0.6,0,0.9,0c0.2,0,0.5,0.1,0.7,0c0.1,0,0.2-0.1,0.3-0.2c0.1-0.2,0-0.4,0.1-0.5c0.1-0.2,0.2-0.4,0.2-0.6
							c0.1-0.2,0.1-0.3,0.1-0.5s0-0.4,0-0.6c0-0.3-0.1-0.5-0.1-0.7s0-0.4-0.1-0.5s-0.2-0.2-0.3-0.2c-0.3-0.1-0.7,0-1,0.1
							c-0.7,0-1.3,0-2,0.1c-0.5,0.1-0.9,0.2-1.4,0.3c-0.6,0.1-1.2,0.2-1.8,0.3c-0.6,0.1-1.3,0.2-1.9,0.2c-0.7,0.1-1.4,0.1-2.1,0.2
							c-0.6,0-1.2,0.1-1.8,0.1c-0.5,0-1,0.1-1.5,0.1c-0.7,0.1-1.5,0.1-2.3,0.2c-0.7,0.1-1.4,0.1-2.1,0.1c-0.5,0-1,0-1.4,0
							c-1.4,0-2.7,0.1-4.1,0.1c-0.2,0-0.5,0-0.7,0c-0.4,0-0.8,0.1-1.3,0.1c-0.7,0.1-1.4,0.2-2.1,0.2c-0.3,0-0.7,0-1,0
							c-0.2,0-0.5,0-0.7,0c-0.8,0-1.6,0.2-2.3,0.2c-0.7,0-1.3-0.1-2-0.1c-0.5,0-1,0-1.5,0c-0.6,0-1.2,0-1.8,0c-0.7,0-1.3-0.1-2-0.1
							c-0.4,0-0.9,0-1.3,0.1c-0.9,0-1.7,0.1-2.6,0c-0.4,0-0.9,0-1.3-0.2C262.4,309,262.4,308.8,262.2,308.8L262.2,308.8z"/>
						
							<path id="path1667" inkscape:connector-curvature="0" inkscape:original-d="m 303.16739,303.98701 c 0,0 1.79823,0.21587 2.2934,0.86589 0.39811,0.52261 0.18147,1.96254 0.18147,1.96254 0,0 -5.27536,9.6593 -8.68979,12.30483 -3.76618,2.91806 -9.21095,8.45786 -15.10662,10.62819 -8.25412,3.03852 -16.71318,2.18811 -16.71318,2.18811 0,0 -1.44044,-0.30954 -1.89527,-0.82756 -0.45814,-0.52179 -0.57961,-2.00087 -0.57961,-2.00087 0,0 21.00147,-6.79234 29.78687,-13.16985 4.33126,-3.14416 10.72273,-11.95128 10.72273,-11.95128 z" inkscape:path-effect="#path-effect903" sodipodi:nodetypes="cacsscacac" class="st4" d="
							M303.2,284c0.4-0.1,0.9-0.1,1.3,0.1s0.8,0.4,1,0.8c0.4,0.6,0.4,1.3,0.2,2c-2.3,4.5-5.2,8.6-8.7,12.3
							c-4.2,4.5-9.3,8.3-15.1,10.6c-5.3,2.1-11.1,2.8-16.7,2.2c-0.7,0-1.4-0.3-1.9-0.8s-0.7-1.3-0.6-2c10.9-1.4,21.4-6.1,29.8-13.2
							C296.5,292.5,300.2,288.4,303.2,284L303.2,284z"/>
						<path id="path1669" inkscape:connector-curvature="0" sodipodi:nodetypes="caaaacccccc" class="st6" d="M275.8,305.8
							c0,0-0.6,1.1-0.6,1.8c0,0.4,0.3,0.7,0.4,1s0.1,0.6,0.1,0.9c0.1,0.3,0.1,0.7,0.2,1s0.4,0.8,0.4,0.8l-12.5,1l-1.6-1.2l-0.2-1.9
							l2.4-0.2L275.8,305.8z"/>
						
							<path id="path1671" inkscape:connector-curvature="0" sodipodi:nodetypes="aaaaaaaaaaaaaaaaaaaaaaaaaaaaaaaaaaaaaaaaaaaaaaaaaaaaaaaa" class="st7" d="
							M303.4,283.8c-0.5,0.3-0.7,0.9-1,1.4c-0.4,0.5-0.6,1.1-1,1.6c-0.7,1-1.6,2-2.4,3c-0.3,0.5-0.6,1-1,1.4s-0.9,0.7-1.2,1.1
							s-0.7,0.9-1.1,1.2c-0.6,0.5-1.2,0.8-1.9,1.2c-0.8,0.5-1.7,0.9-2.5,1.5c-0.5,0.4-0.8,0.8-1.2,1.2c-0.5,0.5-1.1,1.1-1.6,1.6
							c-0.4,0.4-0.9,0.8-1.4,1.1c-0.7,0.4-1.4,0.8-2.1,1.1c-0.8,0.4-1.6,0.7-2.4,1.1c-0.9,0.5-1.7,1.2-2.6,1.6
							c-0.7,0.4-1.5,0.5-2.2,0.9c-0.9,0.4-1.6,0.9-2.5,1.2c-1,0.4-2.1,0.6-3.1,0.9c-1.5,0.4-2.9,0.9-4.4,1.2c-1,0.2-2,0.3-3,0.5
							c-0.9,0.2-2.3-0.3-2.8,0.5c-0.2,0.3,0.2,0.7,0.4,1c0.1,0.3,0.2,0.5,0.4,0.8c0.2,0.3,0.6,0.5,0.9,0.6c0.5,0.3,1,0.5,1.5,0.6
							c0.4,0.1,0.8,0,1.1,0c0.5,0,1.1-0.1,1.6-0.1c0.8-0.1,1.7,0,2.5-0.1c0.7-0.1,1.4-0.4,2.1-0.5c0.6-0.1,1.3,0.1,1.9,0
							c0.8-0.1,1.5-0.2,2.2-0.4c0.8-0.2,1.6-0.6,2.5-0.8c0.7-0.1,1.4,0,2.1-0.2c0.8-0.2,1.5-0.7,2.1-1.1s1.1-1.1,1.8-1.5
							c0.7-0.5,1.5-0.8,2.2-1.1c0.7-0.3,1.4-0.6,2.1-1c0.6-0.3,1.2-0.7,1.8-1.1c0.5-0.3,0.9-0.6,1.4-1c0.7-0.5,1.2-1.2,1.9-1.8
							c0.4-0.3,0.9-0.6,1.2-1c0.6-0.5,1-1.2,1.5-1.8c0.4-0.4,0.7-0.8,1.1-1.2c0.4-0.4,0.8-0.7,1.1-1.1c0.5-0.6,1-1.1,1.4-1.8
							c0.4-0.6,0.7-1.3,1.1-1.9c0.3-0.5,0.6-0.9,0.9-1.4c0.2-0.3,0.3-0.6,0.5-0.9c0.7-1.1,1.5-2.2,2.1-3.4c0.2-0.4,0.4-0.8,0.5-1.2
							c0.1-0.3,0.2-0.6,0.1-0.9c0-0.3-0.3-0.5-0.4-0.8c-0.1-0.1,0-0.3-0.1-0.4c-0.3-0.3-0.7-0.3-1.1-0.4c-0.1,0-0.3,0-0.4,0
							C303.8,283.7,303.6,283.7,303.4,283.8z"/>
						<path id="path1673" inkscape:connector-curvature="0" class="st8" d="M289.6,307.6l0.4,5.3l5.7-0.4l-0.2-5.4L289.6,307.6z"/>
						<path id="path1675" inkscape:connector-curvature="0" sodipodi:nodetypes="aaaaaaaaaaaaaaaaaaaa" class="st9" d="M290.7,307.2
							c-0.1,0.2,0,0.4,0.2,0.6c0.1,0.1,0.3,0.1,0.4,0.2s0.1,0.1,0.2,0.2c0.3,0.2,0.5,0.3,0.8,0.5c0.2,0.1,0.3,0.2,0.5,0.2
							c0.2,0.1,0.5,0.1,0.7,0.2c0.1,0,0.1,0.1,0.2,0.1c0.3,0.1,0.5,0.2,0.8,0.3c0.1,0,0.1,0.1,0.2,0.1c0.2,0.1,0.3,0.1,0.5,0.2h0.1
							c0.2-0.1,0.1-0.4,0.2-0.7c0-0.1,0-0.2,0-0.2c-0.3-0.4-0.8-0.6-1.3-0.8c-0.3-0.1-0.6-0.1-0.9-0.2c-0.2-0.1-0.3-0.2-0.5-0.3
							c-0.3-0.1-0.6-0.3-0.8-0.4c-0.2-0.1-0.3-0.1-0.5-0.1C291.2,307.1,290.9,307,290.7,307.2L290.7,307.2z"/>
						<path id="path1677" inkscape:connector-curvature="0" sodipodi:nodetypes="caaaaaaaaaaaaaaaaaaaaaaaacc" class="st9" d="
							M290.2,308c0,0-0.1,0-0.2,0c-0.2,0-0.4,0-0.5,0.1c-0.1,0.2,0,0.5,0.2,0.7c0.1,0,0.2-0.1,0.2,0c0.1,0,0.1,0.1,0.2,0.2
							c0.2,0.3,0.4,0.6,0.7,0.8c0.3,0.3,0.7,0.5,1.1,0.8c0.2,0.1,0.4,0.1,0.5,0.2c0.3,0.1,0.6,0.2,0.9,0.4c0.2,0.1,0.5,0.3,0.7,0.4
							s0.4,0.1,0.6,0.2s0.3,0.2,0.5,0.2c0.1,0,0.2,0.1,0.2,0c0.2-0.1,0.1-0.5,0-0.7c0-0.1,0-0.3-0.1-0.4c-0.1-0.2-0.3-0.2-0.5-0.3
							c-0.3-0.2-0.6-0.4-1-0.5c-0.3-0.1-0.6-0.3-0.8-0.4c-0.3-0.1-0.6-0.2-0.8-0.4c-0.2-0.1-0.5-0.2-0.7-0.4
							c-0.2-0.1-0.4-0.2-0.6-0.3c-0.1,0-0.2-0.1-0.3-0.1c-0.1-0.1-0.3-0.1-0.4-0.2C290.2,308.3,290.1,308.1,290.2,308L290.2,308
							L290.2,308z"/>
						<path id="path1679" inkscape:connector-curvature="0" sodipodi:nodetypes="aaaaaaaaaaaaaaaaaaaaaa" class="st5" d="
							M289.6,307.4c0.4-0.5,1.3-0.1,1.9-0.1c0.5,0,1-0.1,1.5-0.1c0.3,0,0.7-0.1,1-0.1c0.2,0,0.3,0,0.5,0s0.4-0.1,0.6,0
							c0.3,0.1,0.4,0.5,0.5,0.8c0.1,0.2,0.1,0.5,0.1,0.8c0,0.4-0.1,0.8-0.1,1.2c0,0.3,0.1,0.6,0.1,0.9c0,0.4,0,0.8,0,1.2
							c0,0.1,0.1,0.3,0,0.4c-0.2,0.3-0.7,0.2-1.1,0.3c-0.6,0.1-1.1,0.2-1.7,0.2c-0.5,0-1,0.1-1.4,0.1c-0.2,0-0.5,0-0.7-0.1
							c-0.2,0-0.4,0-0.5-0.1c-0.5-0.4-0.6-1.1-0.7-1.8c-0.1-0.4-0.1-0.8-0.1-1.1c0-0.4,0.2-0.8,0.2-1.2c0-0.2,0-0.3,0-0.5
							C289.7,308,289.4,307.6,289.6,307.4z"/>
						<path id="path1681" inkscape:connector-curvature="0" class="st8" d="M293.1,293.8l1.8-1.8l5.3,4.4l-1.6,2L293.1,293.8z"/>
						<path id="path1683" inkscape:connector-curvature="0" class="st9" d="M294.5,292.8l0.3,0.7l0.3,0.4l0.4,0.7l0.1,0.4l0.4,0.7
							l0.4,0.4l0.4,0.4l0.2,0.4l0.4,0.4l0.4,0.4l0.4,0.3l0.4,0.1l-0.5-0.8l-0.4-0.8l-0.3-0.5l-0.4-0.4l-0.7-0.9l-0.4-0.8l-0.2-0.4
							l-0.1-0.1l-0.4-0.7l-0.1-0.2l-0.2-0.3l-0.3,0.4L294.5,292.8z"/>
						<path id="path1685" inkscape:connector-curvature="0" sodipodi:nodetypes="aaaaaaaaaaaaaaaaaaaaaaa" class="st5" d="
							M295,291.9c-0.5,0-0.6,0.7-0.9,1.1c-0.3,0.3-0.9,0.5-0.9,0.9s0.5,0.6,0.8,0.9c0.2,0.2,0.3,0.3,0.5,0.5
							c0.3,0.2,0.6,0.4,0.9,0.7c0.3,0.3,0.7,0.5,1,0.8c0.2,0.2,0.4,0.3,0.6,0.5s0.3,0.4,0.4,0.6c0.2,0.2,0.4,0.3,0.7,0.4
							c0.2,0,0.4,0,0.5,0c0.1-0.1,0.2-0.2,0.4-0.3c0.2-0.1,0.3-0.3,0.4-0.5c0.1-0.1,0.2-0.2,0.3-0.4c0.1-0.1,0.2-0.2,0.3-0.3
							c0-0.1,0.1-0.1,0.1-0.2c0-0.3-0.2-0.5-0.4-0.7c-0.2-0.3-0.6-0.5-0.9-0.8c-0.4-0.3-0.7-0.6-1.1-0.9c-0.3-0.2-0.6-0.4-0.8-0.6
							c-0.2-0.2-0.5-0.4-0.7-0.6c-0.3-0.2-0.6-0.4-0.8-0.7C295.2,292.2,295.2,291.9,295,291.9L295,291.9z"/>
					</g>
					<g id="g2102" transform="translate(0,-19.043597)">
						
							<path id="path1687" inkscape:connector-curvature="0" inkscape:original-d="m 278.68846,240.07685 c 0,0 3.04582,-1.19035 3.88909,-2.47487 1.44076,-2.19467 1.63738,-5.18349 1.23743,-7.77818 -0.31113,-2.01846 -2.74003,-5.48008 -2.74003,-5.48008 0,0 -0.53606,3.54801 -1.32583,5.12653 -1.3506,2.69944 -3.07839,5.50179 -5.65685,7.07107 -2.56665,1.56208 -5.87301,2.24905 -8.83884,1.76776 -2.34469,-0.38049 -4.66178,-1.71469 -6.18718,-3.53553 -1.68763,-2.01449 -2.57384,-4.7978 -2.65165,-7.42462 -0.0872,-2.94499 0.78005,-6.07527 2.47487,-8.48528 1.84416,-2.62238 4.80589,-4.45548 7.77818,-5.65686 3.14452,-1.271 6.71255,-1.84885 10.07627,-1.41421 2.72419,0.352 5.50659,1.4052 7.6014,3.18198 2.70562,2.29486 4.61509,5.62422 5.65685,9.01561 0.96957,3.15638 0.80451,6.6285 0.35355,9.8995 -0.42249,3.06446 -2.82843,8.83883 -2.82843,8.83883 0,0 -3.0712,1.44359 -4.59619,1.06066 -1.82258,-0.45765 -4.24264,-3.71231 -4.24264,-3.71231 z" inkscape:path-effect="#path-effect885" sodipodi:nodetypes="caacaaaaaaaaaaacac" class="st10" d="
							M278.7,240.1c1.5-0.3,2.9-1.2,3.9-2.5c0.8-1.1,1.3-2.4,1.5-3.7s0.1-2.7-0.3-4c-0.5-2-1.4-3.9-2.7-5.5
							c-0.2,1.8-0.6,3.5-1.3,5.1c-1.2,2.8-3.1,5.4-5.7,7.1c-2.6,1.7-5.8,2.3-8.8,1.8c-2.4-0.5-4.6-1.7-6.2-3.5
							c-1.7-2-2.6-4.7-2.7-7.4c-0.1-3,0.7-6,2.5-8.5c1.9-2.6,4.8-4.5,7.8-5.7c3.2-1.3,6.7-1.9,10.1-1.4c2.8,0.4,5.4,1.5,7.6,3.2
							c2.8,2.2,4.7,5.5,5.7,9c0.8,3.2,0.9,6.6,0.4,9.9c-0.5,3.1-1.4,6.1-2.8,8.8c-1.3,1-3,1.4-4.6,1.1c-1-0.2-1.9-0.6-2.6-1.3
							C279.6,241.8,279,241,278.7,240.1L278.7,240.1z"/>
						
							<path id="path1695" inkscape:connector-curvature="0" sodipodi:nodetypes="aaaaaaaaaaaaaaaaaaaaaaaaaaaaaaaaaaaaaaaaaaaaaaaaaaaaaaa" class="st11" d="
							M286.5,237.3c-0.6-0.2,0.1-1.3,0.2-1.9c0.2-1,0.5-2,0.7-3c0.1-0.6,0.3-1.2,0.4-1.8c0-0.7-0.2-1.3-0.4-1.9
							c-0.3-1.2-0.4-2.4-0.9-3.5s-1.4-2-1.9-3c-0.3-0.5-0.3-1.1-0.7-1.4c-0.7-0.6-1.7-0.7-2.5-1.1c-0.7-0.3-1.4-0.8-2.1-1.1
							c-0.9-0.4-1.8-0.6-2.7-0.9c-0.8-0.3-1.6-0.6-2.5-0.7c-0.9-0.1-1.8-0.2-2.7,0c-0.9,0.2-1.7,0.9-2.5,1.4
							c-0.8,0.6-1.7,1.2-2.3,1.9c-0.5,0.7-0.9,1.5-1.2,2.3c-0.3,0.9-0.6,1.7-0.7,2.7s-0.5,2.2,0,3c0.3,0.6,1.1,0.7,1.8,0.9
							c0.9,0.3,1.9,0.6,2.8,0.5c1.2-0.1,2.2-0.8,3.2-1.4c0.5-0.3,1-0.7,1.2-1.2c0.2-0.4,0.3-0.9,0.4-1.4c0.1-0.6,0.2-1.3,0-1.9
							c-0.1-0.2-0.4-0.5-0.4-0.5l0,0c0,0-0.5-0.2-0.7-0.1c-0.1,0-0.2,0.2-0.3,0.3c-0.1,0.3,0,0.6,0.1,0.8c0,0.2,0.2,0.4,0.2,0.6
							c0,0.2-0.1,0.4-0.2,0.7c-0.2,0.4-0.4,0.7-0.7,1c-0.2,0.3-0.4,0.5-0.6,0.7c-0.5,0.3-1.1,0.4-1.7,0.5c-0.5,0.1-1.1,0.1-1.6,0
							c-0.4-0.1-0.9-0.2-1.1-0.6c-0.3-0.7,0-1.5,0.2-2.2s0.5-1.3,0.9-1.8c0.3-0.5,0.7-1.1,1.2-1.5c0.7-0.5,1.5-0.9,2.4-1.1
							c1.2-0.2,2.4-0.1,3.6,0.1c1.1,0.1,2.3,0.4,3.4,0.8c0.8,0.3,1.5,0.7,2.2,1.1c0.8,0.4,1.6,0.6,2.2,1.2c0.4,0.3,0.7,0.7,0.9,1
							c0.4,0.6,0.8,1.3,1.1,2c0.2,0.5,0.5,1.1,0.6,1.6c0.1,0.7,0.1,1.4,0.1,2c0,0.7-0.2,1.5-0.2,2.2c-0.1,0.6-0.2,1.2-0.2,1.9
							c0,0.5,0.2,1,0.2,1.6c0,0.3,0,0.6,0,0.9c0,0.2-0.1,0.6,0.1,0.7c0.2,0.1,0.6-0.5,0.8-0.3C286.6,237.1,286.6,237.3,286.5,237.3
							L286.5,237.3z"/>
						
							<path id="path1689" inkscape:connector-curvature="0" sodipodi:nodetypes="aaaaaaaaaaaaaaaaaaaaaaaaaaaaaaaacaaaaaaaaaaaaaaaaaaaaaaaaaaaaaaaaaaaaaaaaaaaaaaaaaaaaaaaaaaaaaaaaaacaaaaaaaaaaaaaaaaaaaaaaaaaaaa" d="
							M275.5,210.7c-0.9,0-1.8,0-2.7,0.1c-0.9,0.1-1.8,0.1-2.7,0.3c-0.8,0.1-1.5,0.3-2.3,0.5c-0.5,0.1-0.9,0.2-1.4,0.4
							c-0.7,0.2-1.4,0.5-2,0.7c-0.7,0.3-1.4,0.5-2.1,0.8c-0.8,0.4-1.6,0.8-2.4,1.3c-0.5,0.3-0.9,0.7-1.3,1.2s-0.7,1-1,1.5
							s-0.6,1.1-0.8,1.7c-0.3,0.7-0.5,1.4-0.8,2.1c-0.3,0.8-0.6,1.6-0.8,2.4c-0.1,0.8-0.1,1.6-0.1,2.4c0,0.8,0,1.6,0,2.4
							c0,0.9-0.2,1.9,0.1,2.7s1.1,1.3,1.7,2c0.5,0.6,0.9,1.3,1.4,1.9c0.5,0.5,1,1,1.5,1.5c0.4,0.4,1,0.6,1.4,1
							c0.5,0.4,1,0.8,1.5,1.1c0.6,0.4,1.1,0.8,1.8,1c0.8,0.2,1.6-0.2,2.4-0.3c0.6-0.1,1.2-0.1,1.8-0.3c0.6-0.1,1.2-0.3,1.8-0.5
							c0.9-0.3,1.6-0.9,2.5-1.2c0.7-0.3,1.5-0.4,2.2-0.7c0.9-0.5,1.7-1.1,2.4-1.8c0.6-0.5,1.1-1.1,1.5-1.7c0.3-0.4,0.5-0.8,0.7-1.2
							c0.4-0.7,0.9-1.4,1.2-2.2c0.2-0.6,0.2-1.2,0.4-1.9c0.1-0.3,0.2-0.8,0.2-0.8s0.3,0.4,0.4,0.6c0.2,0.5,0.3,0.9,0.4,1.4
							c0.1,0.4,0.3,0.7,0.4,1.1c0,0.5-0.1,0.9-0.2,1.4c-0.1,0.6-0.1,1.2-0.2,1.9c-0.1,0.5-0.1,1-0.3,1.4c-0.2,0.5-0.5,1-0.8,1.5
							c-0.2,0.3-0.6,0.6-0.6,1c0,0.5,0.6,0.8,0.6,1.2c0,0.3-0.4,0.7-0.3,1c0.2,0.5,0.9,0.6,1.4,0.9c0.4,0.2,0.8,0.4,1.2,0.5
							c0.7,0.2,1.4,0.1,2,0.1s1.1-0.1,1.7-0.2c0.4-0.1,0.8-0.2,1.2-0.4c0.4-0.1,0.8-0.3,1.1-0.5c0.2-0.2,0.3-0.4,0.4-0.6
							c0.1-0.3,0-0.7,0.1-1s0.2-0.5,0.3-0.8c0.3-0.9,0.6-1.8,0.9-2.7c0.2-0.8,0.6-1.5,0.6-2.3c0-0.7-0.3-1.4-0.4-2.1
							c-0.1-0.9,0-1.8-0.1-2.7c-0.1-0.8-0.4-1.6-0.4-2.4c-0.1-0.7,0.1-1.4-0.1-2.1c-0.2-0.6-0.6-1.2-0.9-1.8c-0.3-0.7-0.6-1.3-0.9-2
							c-0.2-0.5-0.2-1.1-0.4-1.7c-0.2-0.5-0.5-0.9-0.7-1.3c-0.2-0.6,0-1.3-0.4-1.8c-0.4-0.6-1.1-1-1.7-1.3c-0.7-0.4-1.4-0.6-2.1-0.9
							c-1-0.5-2-1-3.1-1.4c-0.8-0.3-1.6-0.5-2.5-0.6C277.3,210.6,276.4,210.7,275.5,210.7L275.5,210.7z M274.2,212.4
							c0.7,0,1.4,0,2.1,0.1c0.6,0.1,1.2,0.4,1.9,0.6c0.9,0.3,1.9,0.6,2.8,1.1c0.9,0.4,1.7,0.9,2.5,1.4c0.6,0.4,1.2,0.8,1.7,1.3
							s0.8,1,1.1,1.6c0.5,0.7,0.8,1.5,1.2,2.3c0.3,0.6,0.6,1.1,0.8,1.7c0.2,0.4,0.2,0.8,0.4,1.2c0.3,1.2,0.7,2.5,0.8,3.7
							c0,0.4-0.1,0.9-0.1,1.3c0,0.5,0,1-0.1,1.5c-0.1,0.8-0.3,1.6-0.4,2.4c-0.1,0.8-0.2,1.7-0.3,2.5c-0.1,0.4-0.1,0.9-0.2,1.3
							c-0.1,0.4-0.2,0.7-0.4,1.1c-0.2,0.4-0.6,0.6-0.9,0.9c-0.3,0.2-0.6,0.4-1,0.5c-0.3,0.1-0.5,0.1-0.8,0.1
							c-0.5,0.1-0.9,0.2-1.4,0.2c-0.3,0-0.7,0.1-0.9-0.2c-0.2-0.4,0.4-0.8,0.5-1.2s0.4-0.8,0.4-1.2c0-0.2-0.2-0.4-0.3-0.6
							c0-0.2,0-0.4,0.1-0.5c0.1-0.4,0.4-0.7,0.4-1.1c0.1-0.6,0.1-1.2,0.1-1.9c0-0.9,0.1-1.8,0-2.7c-0.1-0.8-0.3-1.5-0.6-2.2
							c-0.4-0.8-1.1-1.5-1.6-2.2c-0.4-0.6-1.2-1.8-1.2-1.8s-0.5,1-0.7,1.5c-0.3,0.5-0.5,1.1-0.8,1.6c-0.2,0.5-0.4,1-0.7,1.5
							c-0.3,0.5-0.7,0.9-1,1.4c-0.5,0.8-0.8,1.6-1.4,2.3c-0.5,0.6-1.2,1-1.9,1.4c-0.5,0.3-0.9,0.5-1.4,0.8c-0.7,0.3-1.3,0.7-2,1
							c-0.8,0.3-1.6,0.5-2.5,0.7c-0.5,0.1-1.1,0.2-1.6,0.3c-0.8,0.1-1.6,0.5-2.4,0.4c-0.5,0-1-0.2-1.5-0.4c-0.6-0.2-1.1-0.5-1.7-0.9
							c-0.4-0.3-0.9-0.6-1.2-1c-0.6-0.5-1.2-1.1-1.7-1.8c-0.3-0.4-0.4-0.9-0.5-1.3c-0.3-0.7-0.6-1.4-0.8-2.1
							c-0.2-0.8-0.4-1.6-0.4-2.4c-0.1-0.8-0.1-1.6,0.1-2.3c0.1-0.6,0.4-1.1,0.7-1.7c0.3-0.7,0.7-1.4,1.1-2c0.5-0.7,1-1.4,1.5-2
							c0.4-0.5,0.7-1.1,1.2-1.6c0.6-0.6,1.4-1,2.2-1.5c0.9-0.5,1.8-1.1,2.7-1.4c0.7-0.2,1.4-0.2,2.1-0.4c0.8-0.2,1.5-0.5,2.2-0.7
							C271.9,212.8,273,212.5,274.2,212.4L274.2,212.4z"/>
						<path id="path1691" inkscape:connector-curvature="0" sodipodi:nodetypes="aaaaaaaaa" class="st1" d="M266.3,248
							c-2.2,2.7-2.8,6.5-3,10c-0.3,5.2-0.7,11.4,2.5,15.5c3.9,5,11.2,6.9,17.5,7.5c7.3,0.7,16.2,0.5,21.5-4.5
							c4.6-4.4,5.8-12.2,5-18.5c-0.8-6.3-4.3-12.9-9.5-16.5c-4.7-3.3-11.3-4-17-3C276.8,239.6,270.3,243,266.3,248L266.3,248z"/>
						<path id="path1693" inkscape:connector-curvature="0" sodipodi:nodetypes="caacccccccaaaaaaaaaccccccc" class="st3" d="
							M276.9,241.3c0,0-1.5,2.2-2.4,3.1c-0.5,0.6-1.2,1.1-1.8,1.6c-0.7,0.7-1.9,2.1-1.9,2.1l-0.5,1l0.4,1.9l-0.1,1.8l-0.2,2.6
							l-0.2,2.5l0.6,3c0,0,0.5,1.6,0.6,2.4c0.1,0.7-0.1,1.4-0.1,2.1c0,0.9-0.1,1.8,0,2.8c0.1,0.6,0.1,1.3,0.4,1.9
							c0.2,0.6,0.6,1.1,1,1.6c0.2,0.3,0.5,0.6,0.8,0.9c0.5,0.6,1.1,1.3,1.6,1.9c0.3,0.3,0.6,0.6,0.9,1c0.3,0.5,0.5,1.1,0.6,1.6
							s0.2,1.6,0.2,1.6v0.9l-11.4-5l-5.4-12.8l3.6-12.6l10-8L276.9,241.3z"/>
						
							<path id="path1697" inkscape:connector-curvature="0" sodipodi:nodetypes="aaaaaaaaaaaaaaaaaaaaaaaaaaaaaaaaaaaaaaaaaaaaaaaaaaaaaaaaaaaaaaaaaaaaaaaaaaaaaaaaaaaaaaaaa" d="
							M285.8,236.2c-1.3,0.1-2.6,0.2-3.9,0.5c-1.2,0.3-2.2,0.9-3.4,1.2c-0.9,0.3-1.8,0.4-2.7,0.7c-1,0.3-2,0.8-3,1.2
							c-1.1,0.5-2.3,0.6-3.2,1.4c-0.7,0.7-0.7,1.9-1.4,2.7c-0.5,0.6-1.3,0.8-1.9,1.2c-0.7,0.5-1.4,1-1.9,1.6c-0.6,0.6-1,1.2-1.4,1.9
							c-0.2,0.3-0.2,0.6-0.4,0.9c-0.4,0.9-1,1.7-1.4,2.7c-0.3,0.7-0.6,1.4-0.7,2.1c-0.2,0.9,0,1.9,0,2.8c0,1.1,0.1,2.2,0.2,3.4
							c0.1,1.1,0.3,2.2,0.4,3.4c0,0.9,0,1.8,0,2.7c0,0.9,0,1.8,0.2,2.7c0.2,0.8,0.6,1.5,0.9,2.3c0.2,0.8,0.2,1.6,0.5,2.3
							c0.3,0.7,0.7,1.4,1.2,1.9c0.6,0.7,1.2,1.3,1.9,1.8c1.3,0.9,2.8,1.5,4.2,2.1c1.1,0.5,2.2,1.2,3.4,1.4c1.6,0.3,3.2-0.1,4.8,0.2
							c1,0.2,2,0.7,3,0.9c1.9,0.4,3.8,0.2,5.7,0.5c1,0.2,2,0.8,3,0.9c1.9,0.1,3.8-0.7,5.7-0.9c1.6-0.1,3.3,0.6,4.8,0
							c0.9-0.4,1.4-1.4,2.1-2.1c0.6-0.6,1.2-1.3,1.8-1.9c1-1.2,1.8-2.4,2.7-3.7c0.4-0.7,0.9-1.4,1.2-2.1c0.4-1,0.9-2,1.1-3
							c0.3-1.4,0.1-2.9,0.2-4.4c0.1-1.2,0.3-2.5,0.2-3.7c-0.1-1.3-0.6-2.6-0.7-3.9s-0.2-2.6-0.2-3.9c0-1.1,0.2-2.2,0.2-3.4
							c-0.1-1.1-0.3-2.1-0.5-3.2c-0.3-1-0.5-2.1-1.1-3c-0.7-1-1.7-1.6-2.7-2.3c-1-0.8-2.1-1.5-3.2-2.1c-1.2-0.7-2.4-1.5-3.7-2.1
							c-1.1-0.5-2.2-0.8-3.4-1.1c-1.5-0.3-3.1-0.4-4.6-0.5C288.4,236.1,287.1,236.1,285.8,236.2L285.8,236.2z M286.9,238.8
							c1.3-0.1,2.6,0.4,3.9,0.7c1.3,0.4,2.5,0.9,3.7,1.4c1.5,0.6,3,1.1,4.4,1.8c1.1,0.5,2.4,0.8,3.4,1.6c1.1,0.9,2,2.1,2.7,3.4
							c0.5,0.9,0.7,1.9,0.9,2.8c0.3,1.7,0.1,3.4,0.2,5.1c0.1,1.4,0.5,2.7,0.4,4.1c-0.1,0.9-0.4,1.7-0.7,2.5c-0.4,1.2-1,2.3-1.2,3.5
							c-0.3,1.5,0.2,3.1,0,4.6c-0.1,1-0.4,2.1-0.9,3c-0.5,1-1.5,1.6-2.1,2.5c-0.4,0.7-0.5,1.5-1.1,2.1c-0.7,0.7-1.6,1.2-2.5,1.6
							s-1.9,0.4-2.8,0.5c-1.8,0.2-3.5,0.3-5.3,0.4c-1.7,0-3.3,0-4.9-0.2c-1.6-0.1-3.2-0.4-4.8-0.7c-1.4-0.2-2.7-0.5-4.1-0.9
							c-1-0.3-2-0.7-3-1.1c-1.2-0.5-2.4-1.1-3.5-1.6c-0.9-0.4-2.1-0.5-2.8-1.2c-0.8-0.7-1-1.8-1.4-2.8s-0.7-2-0.9-3
							c-0.1-0.8-0.1-1.6-0.2-2.5c0-1,0.1-2,0-3c-0.2-1.3-0.9-2.4-1.1-3.7c-0.1-0.8,0.1-1.5,0.2-2.3c0.1-1.1,0.3-2.1,0.5-3.2
							c0.2-0.8,0.3-1.6,0.5-2.3c0.3-0.7,0.6-1.3,1.1-1.9c0.7-1,1.6-1.9,2.5-2.7c0.5-0.5,1.2-0.8,1.8-1.2c0.6-0.4,1.1-0.9,1.6-1.4
							c0.4-0.4,0.8-0.8,1.2-1.1c0.9-0.5,1.9-0.9,2.8-1.2c1.2-0.5,2.3-0.9,3.5-1.2c0.9-0.2,1.8-0.3,2.7-0.5
							C283.3,240.1,285,239,286.9,238.8L286.9,238.8z"/>
						<path id="path1699" inkscape:connector-curvature="0" sodipodi:nodetypes="aaaaaaaaaaaaaaaaaaaaa" class="st2" d="M288,240.4
							c0.7-0.5,1.8-0.1,2.7,0c0.4,0,0.7,0.1,1.1,0.2c0.6,0.2,1.1,0.4,1.6,0.7c1.1,0.6,2.2,1.1,3.2,1.9c0.3,0.2,0.6,0.5,0.7,0.9
							c0.1,0.3-0.1,0.7,0,1.1c0.1,0.6,0.9,1.1,0.8,1.8c-0.1,0.5-0.5,0.8-0.9,1.1c-0.4,0.4-0.9,0.7-1.4,1c-0.7,0.4-1.3,0.8-2,1
							c-0.6,0.1-1.3,0.1-1.9,0c-0.7-0.2-1.4-0.5-1.9-1c-0.5-0.4-0.6-1-1.1-1.4c-0.6-0.6-1.5-1-2.2-1.5c-0.6-0.4-1.4-0.6-1.8-1.2
							c-0.3-0.5-0.3-1.2-0.1-1.8c0.1-0.4,0.5-0.7,0.8-1c0.4-0.3,0.8-0.5,1.2-0.7c0.3-0.1,0.8,0.1,1.1-0.2
							C287.9,241.1,287.7,240.6,288,240.4L288,240.4z"/>
						<path id="path1701" inkscape:connector-curvature="0" sodipodi:nodetypes="ccaaacaacaac" class="st1" d="M258.6,255l-1.5,6.5
							c0,0,3.8,7.6,7,10c4.1,3.1,9.5,4,14.5,5c4.7,1,9.7,1.2,14.5,1c5.4-0.2,16-2.5,16-2.5s3.2-7.8,3.5-12c0.2-3.4-0.4-6.8-1.5-10
							c-0.8-2.2-3.5-6-3.5-6s-7,0.2-10.5,0.5c-8.7,0.7-17.5,1-26,3C266.8,251.5,258.6,255,258.6,255L258.6,255z"/>
						<path id="path1703" inkscape:connector-curvature="0" sodipodi:nodetypes="caaaaaaaaaaaacccccc" class="st3" d="M268.2,250.7
							c0,0,0.7,1.1,0.9,1.8c0.3,0.9,0.4,1.9,0.5,2.8s0,1.9,0,2.8c0,0.6,0,1.2,0,1.8c0,0.9,0.1,1.8,0.2,2.7c0,0.8-0.1,1.7,0,2.5
							c0.1,0.7,0.3,1.3,0.5,1.9c0.1,0.2,0.2,0.5,0.4,0.7c0.2,0.5,0.5,0.9,0.7,1.4c0.3,0.6,0.6,1.1,0.7,1.8c0.1,0.5-0.1,1.1-0.2,1.6
							c0,0.2,0,0.4,0,0.5c-0.1,0.6-0.4,1.8-0.4,1.8l-6.7-2.5l-5.9-6.1l-2.6-4l1.3-7.2L268.2,250.7z"/>
						<path id="path1705" inkscape:connector-curvature="0" class="st12" d="M260.1,258.1l2.1-2.6l3,0.7l1.2,2.7l-0.3,2.9l-2.2,1.6
							l-2.9-0.6l-1.5-1.8L260.1,258.1z"/>
						<path id="path1707" inkscape:connector-curvature="0" sodipodi:nodetypes="aaaaaaaaaaaaaaaaaaaaaaaaaaaa" class="st2" d="
							M290.4,248.7c0.9,0.1,1.4,1.1,2.1,1.6c0.6,0.4,1.3,0.8,1.9,1.1c0.7,0.4,1.5,0.8,2.2,1.3c0.9,0.6,1.7,1.2,2.5,1.9
							c0.8,0.8,1.4,1.8,2.3,2.5c0.7,0.5,1.6,0.8,2.4,1.2c0.6,0.3,1.2,0.7,1.9,1.1c0.7,0.4,1.3,0.7,1.9,1.1c0.7,0.5,1.2,1.2,1.9,1.7
							c0.4,0.2,0.8,0.2,1.1,0.4c0.3,0.2,0.6,0.3,0.7,0.6c0.2,0.8-0.7,1.4-0.8,2.2c-0.1,0.4,0.1,0.9,0.1,1.3s0.3,1.1-0.1,1.2
							c-0.9,0.4-1.6-1.1-2.5-1.6c-0.7-0.4-1.5-0.8-2.2-1.2c-1.2-0.7-2.5-1.3-3.7-2c-1.4-0.8-2.8-1.5-4.1-2.5
							c-0.9-0.7-1.6-1.5-2.5-2.2c-0.7-0.6-1.5-1.1-2.1-1.9c-0.7-0.9-1.2-1.9-1.9-2.8c-0.3-0.4-0.7-0.8-1-1.2c-0.5-0.6-1-1.3-1.4-1.9
							c-0.3-0.4-0.5-0.9-0.8-1.3c-0.1-0.2-0.5-0.3-0.4-0.5c0.3-0.5,1.1,0.3,1.6,0.2C290,249,290.1,248.7,290.4,248.7L290.4,248.7z"
							/>
						
							<path id="path1709" inkscape:connector-curvature="0" sodipodi:nodetypes="aaaaaaaaaaaaaaaaaaaaaaaaaaaaaaaaaaaaaaaaaaaaaaaaaaaaaaaaaaaaaaaaaaaaaaaaaaaaaaaaaaaaaaaaaaaaaaaaaaaaaaaaaaaaaaaaaaaaaaaaaaaaaaaaaaaaaaaaaaaaa" d="
							M306.1,245.6c-0.7-0.1-1.3,0.1-2,0.1c-1.1,0.1-2.3,0.2-3.4,0.2c-1,0.1-1.9,0.1-2.9,0.2c-1.1,0.1-2.2,0.1-3.2,0.2
							c-1.2,0.1-2.5,0-3.7,0.2c-1.1,0.2-2.1,0.5-3.2,0.8c-0.7,0.2-1.5,0.5-2.2,0.6c-1.5,0.2-2.9-0.1-4.4-0.1c-0.9,0-1.8,0-2.7,0
							c-1.3,0.1-2.7,0.1-4,0.3c-1.1,0.2-2.2,0.5-3.3,0.9c-0.8,0.2-1.6,0.6-2.4,0.8c-0.8,0.3-1.6,0.5-2.4,0.8
							c-0.9,0.2-1.8,0.4-2.6,0.6c-1.1,0.3-2.3,0.6-3.4,1c-0.5,0.2-1,0.5-1.5,0.6c-0.4,0.1-0.9-0.1-1.2,0.2c-0.7,0.6-0.7,1.6-0.9,2.5
							c-0.2,0.9,0,1.8-0.2,2.7c-0.1,0.8-0.4,1.6-0.7,2.3c-0.1,0.2-0.3,0.5-0.4,0.7c-0.1,0.3-0.4,0.7-0.4,1.1c0.2,1,1.2,1.7,1.8,2.5
							c0.3,0.5,0.8,0.9,1.1,1.4c0.4,0.8,0.5,1.7,0.9,2.5c0.3,0.6,0.7,1.1,1.1,1.6c0.5,0.7,1.1,1.3,1.8,1.9c0.3,0.3,0.7,0.6,1.1,0.9
							c0.5,0.3,1.2,0.5,1.8,0.7c0.5,0.2,1,0.6,1.6,0.7c0.5,0.1,0.9,0.1,1.4,0.2c0.2,0,0.5,0.1,0.7,0.2c0.3,0.1,0.6,0.2,0.9,0.4
							c1.2,0.4,2.4,0.8,3.6,1.1c1,0.3,2,0.5,3.1,0.6c0.8,0.1,1.6,0,2.4,0.1c1.1,0.2,2.1,0.6,3.1,0.8c0.9,0.2,1.8,0.1,2.6,0.2
							c1.1,0.2,2.2,0.5,3.2,0.6c0.9,0.1,1.9,0.2,2.8,0.2c1.3,0,2.5,0,3.8-0.2c1.1-0.2,2.1-0.7,3.1-0.9c1.3-0.2,2.6-0.4,3.9-0.4
							c1.5-0.1,3,0.1,4.4-0.1c0.8-0.1,1.7-0.3,2.5-0.6c0.8-0.3,1.6-0.5,2.3-1c0.4-0.3,0.8-0.8,1.1-1.3c0.5-0.9,0.6-2,0.8-3.1
							c0.1-0.5,0.1-1,0.2-1.4c0.1-0.8,0.4-1.5,0.6-2.3c0.2-1.2,0.4-2.5,0.4-3.7c0-0.7,0-1.5,0-2.2c0-0.8,0.2-1.5,0.1-2.2
							s-0.3-1.3-0.5-2c-0.1-0.4-0.2-0.7-0.2-1.1c-0.1-0.7-0.1-1.5-0.2-2.2c-0.2-0.9-0.4-1.7-0.7-2.6c-0.2-0.4-0.4-0.8-0.7-1.2
							c-0.3-0.5-0.6-1-0.9-1.4c-0.4-0.6-0.8-1.3-1.2-1.9c-0.3-0.4-0.5-0.8-0.9-1C307.2,245.8,306.6,245.7,306.1,245.6L306.1,245.6z
							 M298.8,247.6c1.2-0.2,2.4,0.2,3.6,0.2c1.2,0.1,2.6-0.3,3.7,0.2c0.2,0.1,0.2,0.3,0.4,0.4c0.3,0.3,0.7,0.6,0.9,0.9
							c0.3,0.4,0.4,0.8,0.6,1.2c0.3,0.7,0.6,1.4,0.8,2.1c0.2,0.6,0.2,1.2,0.4,1.8c0.1,0.6,0.3,1.2,0.4,1.8c0,0.1,0.1,0.3,0.1,0.4
							c0.3,1.4,0.8,2.8,0.9,4.3c0,0.4,0,0.8-0.1,1.2c-0.1,1.1-0.5,2.1-0.6,3.1c-0.1,0.7,0,1.5-0.2,2.2c-0.2,0.5-0.5,0.9-0.8,1.4
							c-0.2,0.4-0.4,0.8-0.5,1.2c-0.2,0.8-0.2,1.6-0.4,2.4c-0.1,0.5-0.2,1.1-0.6,1.5c-0.3,0.2-0.7,0.1-1.1,0.2
							c-0.7,0.2-1.3,0.7-1.9,0.8c-0.7,0.2-1.5,0-2.2,0.1c-0.5,0-1,0.2-1.6,0.2c-0.8,0.1-1.6,0.1-2.4,0.1c-0.5,0-1,0-1.6,0
							c-0.7,0.1-1.4,0.3-2.1,0.4c-0.6,0.1-1.1,0.2-1.7,0.2c-0.5,0-0.9-0.1-1.4-0.1c-0.6,0-1.2,0.3-1.9,0.4c-0.5,0-1.1,0-1.6-0.1
							c-0.6-0.1-1.2-0.3-1.8-0.3c-0.9-0.1-1.8,0.1-2.8,0.1c-0.6,0-1.2,0-1.8,0c-0.6,0-1.2-0.1-1.8-0.2c-0.8-0.1-1.5-0.4-2.2-0.6
							s-1.5-0.2-2.2-0.4c-0.4-0.1-0.7-0.3-1.1-0.4c-0.9-0.3-1.7-0.4-2.6-0.6c-0.5-0.1-0.9-0.1-1.4-0.2c-0.6-0.2-1.1-0.5-1.6-0.8
							c-0.6-0.3-1.2-0.6-1.8-0.9c-0.4-0.2-0.8-0.5-1.2-0.8c-0.6-0.3-1.2-0.6-1.7-0.9c-0.4-0.3-0.8-0.7-1.2-1
							c-0.2-0.2-0.5-0.3-0.7-0.5c-0.6-0.5-1.1-1.2-1.5-1.8c-0.2-0.3-0.4-0.7-0.6-1.1c-0.1-0.2-0.2-0.4-0.3-0.6
							c-0.2-0.4-0.4-0.8-0.7-1.2c-0.2-0.3-0.4-0.6-0.7-0.9c-0.2-0.3-0.6-0.5-0.8-0.8c-0.2-0.2-0.3-0.5-0.3-0.8c0-0.1,0-0.3,0-0.4
							c0.1-0.3,0.3-0.5,0.4-0.8c0.1-0.4,0-0.9,0-1.4c0-0.4,0.2-0.9,0.2-1.3c0.1-0.5,0.2-1.1,0.4-1.6c0.1-0.1,0.1-0.3,0.2-0.4
							c0.2-0.2,0.4-0.3,0.6-0.4c0.4-0.2,0.8-0.5,1.2-0.6c0.1,0,0.2,0,0.2,0c0.2-0.1,0.4-0.2,0.6-0.3c0.3-0.1,0.7-0.1,1.1-0.2
							c0.3-0.1,0.6-0.1,0.9-0.2c0.6-0.2,1.2-0.4,1.8-0.7c0.7-0.3,1.3-0.6,2-0.9c0.9-0.5,1.8-1.2,2.8-1.4c0.9-0.2,1.9,0.2,2.8,0.2
							c0.7,0,1.4,0.1,2.1,0s1.3-0.5,1.9-0.8c0.5-0.2,1-0.4,1.5-0.5c0.7-0.2,1.4-0.5,2.2-0.6c1-0.1,1.9,0.1,2.9,0.1c0.7,0,1.3,0,2,0
							c1.2,0,2.4-0.1,3.6-0.2c0.8-0.1,1.6-0.3,2.4-0.3c1-0.1,2,0,3.1-0.1c0.9-0.1,1.7-0.2,2.6-0.4
							C297.6,248.3,298.1,247.7,298.8,247.6L298.8,247.6z"/>
						<path id="path1711" inkscape:connector-curvature="0" sodipodi:nodetypes="aaaaaaaaaaaaaaaaaaaaaa" class="st5" d="
							M262.6,255.5c-0.4,0.1-0.7,0.5-1,0.8c-0.2,0.2-0.4,0.5-0.6,0.8c-0.3,0.4-0.7,0.7-0.9,1.1c-0.1,0.3-0.1,0.6-0.1,0.9
							c-0.1,0.7-0.3,1.3-0.2,2c0,0.2,0,0.3,0.1,0.5c0.2,0.3,0.5,0.6,0.8,0.9c0.4,0.4,0.9,0.7,1.4,0.9c0.4,0.2,0.8,0.3,1.2,0.2
							c0.6,0,1.1-0.2,1.6-0.5c0.5-0.2,0.9-0.6,1.2-1c0.2-0.3,0.3-0.7,0.4-1.1c0.1-0.5,0.1-1.1,0-1.6c0-0.3-0.1-0.6-0.2-0.9
							c-0.2-0.5-0.4-1-0.6-1.5c-0.1-0.2-0.1-0.4-0.2-0.5c-0.2-0.2-0.4-0.4-0.7-0.5c-0.2-0.1-0.4-0.2-0.7-0.2c-0.2,0-0.4,0-0.7,0
							c-0.2,0-0.4-0.1-0.6-0.1C262.7,255.6,262.7,255.5,262.6,255.5L262.6,255.5z"/>
					</g>
				</g>
			</g>
			<g id="g1775" transform="matrix(-1.5546954,0,0,1.5546954,835.49897,275.02541)">
				<polygon id="rect1717" class="st0" points="252.1,321 316.1,321 316.1,321 				"/>
				<g id="g1773" transform="translate(0.03859401,21.532131)" inkscape:export-xdpi="192" inkscape:export-ydpi="192">
					<g id="g2115" transform="translate(0,-38)">
						
							<path id="path1749" inkscape:connector-curvature="0" inkscape:original-d="m 278.68846,240.07685 c 0,0 3.04582,-1.19035 3.88909,-2.47487 1.44076,-2.19467 1.63738,-5.18349 1.23743,-7.77818 -0.31113,-2.01846 -2.74003,-5.48008 -2.74003,-5.48008 0,0 -0.53606,3.54801 -1.32583,5.12653 -1.3506,2.69944 -3.07839,5.50179 -5.65685,7.07107 -2.56665,1.56208 -5.87301,2.24905 -8.83884,1.76776 -2.34469,-0.38049 -4.66178,-1.71469 -6.18718,-3.53553 -1.68763,-2.01449 -2.57384,-4.7978 -2.65165,-7.42462 -0.0872,-2.94499 0.78005,-6.07527 2.47487,-8.48528 1.84416,-2.62238 4.80589,-4.45548 7.77818,-5.65686 3.14452,-1.271 6.71255,-1.84885 10.07627,-1.41421 2.72419,0.352 5.50659,1.4052 7.6014,3.18198 2.70562,2.29486 4.61509,5.62422 5.65685,9.01561 0.96957,3.15638 0.80451,6.6285 0.35355,9.8995 -0.42249,3.06446 -2.82843,8.83883 -2.82843,8.83883 0,0 -3.0712,1.44359 -4.59619,1.06066 -1.82258,-0.45765 -4.24264,-3.71231 -4.24264,-3.71231 z" inkscape:path-effect="#path-effect885" sodipodi:nodetypes="caacaaaaaaaaaaacac" class="st10" d="
							M278.7,240.1c1.5-0.3,2.9-1.2,3.9-2.5c0.8-1.1,1.3-2.4,1.5-3.7s0.1-2.7-0.3-4c-0.5-2-1.4-3.9-2.7-5.5
							c-0.2,1.8-0.6,3.5-1.3,5.1c-1.2,2.8-3.1,5.4-5.7,7.1c-2.6,1.7-5.8,2.3-8.8,1.8c-2.4-0.5-4.6-1.7-6.2-3.5
							c-1.7-2-2.6-4.7-2.7-7.4c-0.1-3,0.7-6,2.5-8.5c1.9-2.6,4.8-4.5,7.8-5.7c3.2-1.3,6.7-1.9,10.1-1.4c2.8,0.4,5.4,1.5,7.6,3.2
							c2.8,2.2,4.7,5.5,5.7,9c0.8,3.2,0.9,6.6,0.4,9.9c-0.5,3.1-1.4,6.1-2.8,8.8c-1.3,1-3,1.4-4.6,1.1c-1-0.2-1.9-0.6-2.6-1.3
							C279.6,241.8,279,241,278.7,240.1L278.7,240.1z"/>
						
							<path id="path1757" inkscape:connector-curvature="0" sodipodi:nodetypes="aaaaaaaaaaaaaaaaaaaaaaaaaaaaaaaaaaaaaaaaaaaaaaaaaaaaaaa" class="st11" d="
							M286.5,237.3c-0.6-0.2,0.1-1.3,0.2-1.9c0.2-1,0.5-2,0.7-3c0.1-0.6,0.3-1.2,0.4-1.8c0-0.7-0.2-1.3-0.4-1.9
							c-0.3-1.2-0.4-2.4-0.9-3.5s-1.4-2-1.9-3c-0.3-0.5-0.3-1.1-0.7-1.4c-0.7-0.6-1.7-0.7-2.5-1.1c-0.7-0.3-1.4-0.8-2.1-1.1
							c-0.9-0.4-1.8-0.6-2.7-0.9c-0.8-0.3-1.6-0.6-2.5-0.7c-0.9-0.1-1.8-0.2-2.7,0c-0.9,0.2-1.7,0.9-2.5,1.4
							c-0.8,0.6-1.7,1.2-2.3,1.9c-0.5,0.7-0.9,1.5-1.2,2.3c-0.3,0.9-0.6,1.7-0.7,2.7s-0.5,2.2,0,3c0.3,0.6,1.1,0.7,1.8,0.9
							c0.9,0.3,1.9,0.6,2.8,0.5c1.2-0.1,2.2-0.8,3.2-1.4c0.5-0.3,1-0.7,1.2-1.2c0.2-0.4,0.3-0.9,0.4-1.4c0.1-0.6,0.2-1.3,0-1.9
							c-0.1-0.2-0.4-0.5-0.4-0.5l0,0c0,0-0.5-0.2-0.7-0.1c-0.1,0-0.2,0.2-0.3,0.3c-0.1,0.3,0,0.6,0.1,0.8c0,0.2,0.2,0.4,0.2,0.6
							c0,0.2-0.1,0.4-0.2,0.7c-0.2,0.4-0.4,0.7-0.7,1c-0.2,0.3-0.4,0.5-0.6,0.7c-0.5,0.3-1.1,0.4-1.7,0.5c-0.5,0.1-1.1,0.1-1.6,0
							c-0.4-0.1-0.9-0.2-1.1-0.6c-0.3-0.7,0-1.5,0.2-2.2s0.5-1.3,0.9-1.8c0.3-0.5,0.7-1.1,1.2-1.5c0.7-0.5,1.5-0.9,2.4-1.1
							c1.2-0.2,2.4-0.1,3.6,0.1c1.1,0.1,2.3,0.4,3.4,0.8c0.8,0.3,1.5,0.7,2.2,1.1c0.8,0.4,1.6,0.6,2.2,1.2c0.4,0.3,0.7,0.7,0.9,1
							c0.4,0.6,0.8,1.3,1.1,2c0.2,0.5,0.5,1.1,0.6,1.6c0.1,0.7,0.1,1.4,0.1,2c0,0.7-0.2,1.5-0.2,2.2c-0.1,0.6-0.2,1.2-0.2,1.9
							c0,0.5,0.2,1,0.2,1.6c0,0.3,0,0.6,0,0.9c0,0.2-0.1,0.6,0.1,0.7c0.2,0.1,0.6-0.5,0.8-0.3C286.6,237.1,286.6,237.3,286.5,237.3
							L286.5,237.3z"/>
						
							<path id="path1751" inkscape:connector-curvature="0" sodipodi:nodetypes="aaaaaaaaaaaaaaaaaaaaaaaaaaaaaaaacaaaaaaaaaaaaaaaaaaaaaaaaaaaaaaaaaaaaaaaaaaaaaaaaaaaaaaaaaaaaaaaaaacaaaaaaaaaaaaaaaaaaaaaaaaaaaa" d="
							M275.5,210.7c-0.9,0-1.8,0-2.7,0.1c-0.9,0.1-1.8,0.1-2.7,0.3c-0.8,0.1-1.5,0.3-2.3,0.5c-0.5,0.1-0.9,0.2-1.4,0.4
							c-0.7,0.2-1.4,0.5-2,0.7c-0.7,0.3-1.4,0.5-2.1,0.8c-0.8,0.4-1.6,0.8-2.4,1.3c-0.5,0.3-0.9,0.7-1.3,1.2s-0.7,1-1,1.5
							s-0.6,1.1-0.8,1.7c-0.3,0.7-0.5,1.4-0.8,2.1c-0.3,0.8-0.6,1.6-0.8,2.4c-0.1,0.8-0.1,1.6-0.1,2.4c0,0.8,0,1.6,0,2.4
							c0,0.9-0.2,1.9,0.1,2.7s1.1,1.3,1.7,2c0.5,0.6,0.9,1.3,1.4,1.9c0.5,0.5,1,1,1.5,1.5c0.4,0.4,1,0.6,1.4,1
							c0.5,0.4,1,0.8,1.5,1.1c0.6,0.4,1.1,0.8,1.8,1c0.8,0.2,1.6-0.2,2.4-0.3c0.6-0.1,1.2-0.1,1.8-0.3c0.6-0.1,1.2-0.3,1.8-0.5
							c0.9-0.3,1.6-0.9,2.5-1.2c0.7-0.3,1.5-0.4,2.2-0.7c0.9-0.5,1.7-1.1,2.4-1.8c0.6-0.5,1.1-1.1,1.5-1.7c0.3-0.4,0.5-0.8,0.7-1.2
							c0.4-0.7,0.9-1.4,1.2-2.2c0.2-0.6,0.2-1.2,0.4-1.9c0.1-0.3,0.2-0.8,0.2-0.8s0.3,0.4,0.4,0.6c0.2,0.5,0.3,0.9,0.4,1.4
							c0.1,0.4,0.3,0.7,0.4,1.1c0,0.5-0.1,0.9-0.2,1.4c-0.1,0.6-0.1,1.2-0.2,1.9c-0.1,0.5-0.1,1-0.3,1.4c-0.2,0.5-0.5,1-0.8,1.5
							c-0.2,0.3-0.6,0.6-0.6,1c0,0.5,0.6,0.8,0.6,1.2c0,0.3-0.4,0.7-0.3,1c0.2,0.5,0.9,0.6,1.4,0.9c0.4,0.2,0.8,0.4,1.2,0.5
							c0.7,0.2,1.4,0.1,2,0.1s1.1-0.1,1.7-0.2c0.4-0.1,0.8-0.2,1.2-0.4c0.4-0.1,0.8-0.3,1.1-0.5c0.2-0.2,0.3-0.4,0.4-0.6
							c0.1-0.3,0-0.7,0.1-1s0.2-0.5,0.3-0.8c0.3-0.9,0.6-1.8,0.9-2.7c0.2-0.8,0.6-1.5,0.6-2.3c0-0.7-0.3-1.4-0.4-2.1
							c-0.1-0.9,0-1.8-0.1-2.7c-0.1-0.8-0.4-1.6-0.4-2.4c-0.1-0.7,0.1-1.4-0.1-2.1c-0.2-0.6-0.6-1.2-0.9-1.8c-0.3-0.7-0.6-1.3-0.9-2
							c-0.2-0.5-0.2-1.1-0.4-1.7c-0.2-0.5-0.5-0.9-0.7-1.3c-0.2-0.6,0-1.3-0.4-1.8c-0.4-0.6-1.1-1-1.7-1.3c-0.7-0.4-1.4-0.6-2.1-0.9
							c-1-0.5-2-1-3.1-1.4c-0.8-0.3-1.6-0.5-2.5-0.6C277.3,210.6,276.4,210.7,275.5,210.7L275.5,210.7z M274.2,212.4
							c0.7,0,1.4,0,2.1,0.1c0.6,0.1,1.2,0.4,1.9,0.6c0.9,0.3,1.9,0.6,2.8,1.1c0.9,0.4,1.7,0.9,2.5,1.4c0.6,0.4,1.2,0.8,1.7,1.3
							s0.8,1,1.1,1.6c0.5,0.7,0.8,1.5,1.2,2.3c0.3,0.6,0.6,1.1,0.8,1.7c0.2,0.4,0.2,0.8,0.4,1.2c0.3,1.2,0.7,2.5,0.8,3.7
							c0,0.4-0.1,0.9-0.1,1.3c0,0.5,0,1-0.1,1.5c-0.1,0.8-0.3,1.6-0.4,2.4c-0.1,0.8-0.2,1.7-0.3,2.5c-0.1,0.4-0.1,0.9-0.2,1.3
							c-0.1,0.4-0.2,0.7-0.4,1.1c-0.2,0.4-0.6,0.6-0.9,0.9c-0.3,0.2-0.6,0.4-1,0.5c-0.3,0.1-0.5,0.1-0.8,0.1
							c-0.5,0.1-0.9,0.2-1.4,0.2c-0.3,0-0.7,0.1-0.9-0.2c-0.2-0.4,0.4-0.8,0.5-1.2s0.4-0.8,0.4-1.2c0-0.2-0.2-0.4-0.3-0.6
							c0-0.2,0-0.4,0.1-0.5c0.1-0.4,0.4-0.7,0.4-1.1c0.1-0.6,0.1-1.2,0.1-1.9c0-0.9,0.1-1.8,0-2.7c-0.1-0.8-0.3-1.5-0.6-2.2
							c-0.4-0.8-1.1-1.5-1.6-2.2c-0.4-0.6-1.2-1.8-1.2-1.8s-0.5,1-0.7,1.5c-0.3,0.5-0.5,1.1-0.8,1.6c-0.2,0.5-0.4,1-0.7,1.5
							c-0.3,0.5-0.7,0.9-1,1.4c-0.5,0.8-0.8,1.6-1.4,2.3c-0.5,0.6-1.2,1-1.9,1.4c-0.5,0.3-0.9,0.5-1.4,0.8c-0.7,0.3-1.3,0.7-2,1
							c-0.8,0.3-1.6,0.5-2.5,0.7c-0.5,0.1-1.1,0.2-1.6,0.3c-0.8,0.1-1.6,0.5-2.4,0.4c-0.5,0-1-0.2-1.5-0.4c-0.6-0.2-1.1-0.5-1.7-0.9
							c-0.4-0.3-0.9-0.6-1.2-1c-0.6-0.5-1.2-1.1-1.7-1.8c-0.3-0.4-0.4-0.9-0.5-1.3c-0.3-0.7-0.6-1.4-0.8-2.1
							c-0.2-0.8-0.4-1.6-0.4-2.4c-0.1-0.8-0.1-1.6,0.1-2.3c0.1-0.6,0.4-1.1,0.7-1.7c0.3-0.7,0.7-1.4,1.1-2c0.5-0.7,1-1.4,1.5-2
							c0.4-0.5,0.7-1.1,1.2-1.6c0.6-0.6,1.4-1,2.2-1.5c0.9-0.5,1.8-1.1,2.7-1.4c0.7-0.2,1.4-0.2,2.1-0.4c0.8-0.2,1.5-0.5,2.2-0.7
							C271.9,212.8,273,212.5,274.2,212.4L274.2,212.4z"/>
						<path id="path1753" inkscape:connector-curvature="0" sodipodi:nodetypes="aaaaaaaaa" class="st3" d="M266.3,248
							c-2.2,2.7-2.8,6.5-3,10c-0.3,5.2-0.7,11.4,2.5,15.5c3.9,5,11.2,6.9,17.5,7.5c7.3,0.7,16.2,0.5,21.5-4.5
							c4.6-4.4,5.8-12.2,5-18.5c-0.8-6.3-4.3-12.9-9.5-16.5c-4.7-3.3-11.3-4-17-3C276.8,239.6,270.3,243,266.3,248L266.3,248z"/>
						<path id="path1755" inkscape:connector-curvature="0" sodipodi:nodetypes="caacccccccaaaaaaaaaccccccc" class="st1" d="
							M276.9,241.3c0,0-1.5,2.2-2.4,3.1c-0.5,0.6-1.2,1.1-1.8,1.6c-0.7,0.7-1.9,2.1-1.9,2.1l-0.5,1l0.4,1.9l-0.1,1.8l-0.2,2.6
							l-0.2,2.5l0.6,3c0,0,0.5,1.6,0.6,2.4c0.1,0.7-0.1,1.4-0.1,2.1c0,0.9-0.1,1.8,0,2.8c0.1,0.6,0.1,1.3,0.4,1.9
							c0.2,0.6,0.6,1.1,1,1.6c0.2,0.3,0.5,0.6,0.8,0.9c0.5,0.6,1.1,1.3,1.6,1.9c0.3,0.3,0.6,0.6,0.9,1c0.3,0.5,0.5,1.1,0.6,1.6
							s0.2,1.6,0.2,1.6v0.9l-11.4-5l-5.4-12.8l3.6-12.6l10-8L276.9,241.3z"/>
						
							<path id="path1759" inkscape:connector-curvature="0" sodipodi:nodetypes="aaaaaaaaaaaaaaaaaaaaaaaaaaaaaaaaaaaaaaaaaaaaaaaaaaaaaaaaaaaaaaaaaaaaaaaaaaaaaaaaaaaaaaaaa" d="
							M285.8,236.2c-1.3,0.1-2.6,0.2-3.9,0.5c-1.2,0.3-2.2,0.9-3.4,1.2c-0.9,0.3-1.8,0.4-2.7,0.7c-1,0.3-2,0.8-3,1.2
							c-1.1,0.5-2.3,0.6-3.2,1.4c-0.7,0.7-0.7,1.9-1.4,2.7c-0.5,0.6-1.3,0.8-1.9,1.2c-0.7,0.5-1.4,1-1.9,1.6c-0.6,0.6-1,1.2-1.4,1.9
							c-0.2,0.3-0.2,0.6-0.4,0.9c-0.4,0.9-1,1.7-1.4,2.7c-0.3,0.7-0.6,1.4-0.7,2.1c-0.2,0.9,0,1.9,0,2.8c0,1.1,0.1,2.2,0.2,3.4
							c0.1,1.1,0.3,2.2,0.4,3.4c0,0.9,0,1.8,0,2.7c0,0.9,0,1.8,0.2,2.7c0.2,0.8,0.6,1.5,0.9,2.3c0.2,0.8,0.2,1.6,0.5,2.3
							c0.3,0.7,0.7,1.4,1.2,1.9c0.6,0.7,1.2,1.3,1.9,1.8c1.3,0.9,2.8,1.5,4.2,2.1c1.1,0.5,2.2,1.2,3.4,1.4c1.6,0.3,3.2-0.1,4.8,0.2
							c1,0.2,2,0.7,3,0.9c1.9,0.4,3.8,0.2,5.7,0.5c1,0.2,2,0.8,3,0.9c1.9,0.1,3.8-0.7,5.7-0.9c1.6-0.1,3.3,0.6,4.8,0
							c0.9-0.4,1.4-1.4,2.1-2.1c0.6-0.6,1.2-1.3,1.8-1.9c1-1.2,1.8-2.4,2.7-3.7c0.4-0.7,0.9-1.4,1.2-2.1c0.4-1,0.9-2,1.1-3
							c0.3-1.4,0.1-2.9,0.2-4.4c0.1-1.2,0.3-2.5,0.2-3.7c-0.1-1.3-0.6-2.6-0.7-3.9s-0.2-2.6-0.2-3.9c0-1.1,0.2-2.2,0.2-3.4
							c-0.1-1.1-0.3-2.1-0.5-3.2c-0.3-1-0.5-2.1-1.1-3c-0.7-1-1.7-1.6-2.7-2.3c-1-0.8-2.1-1.5-3.2-2.1c-1.2-0.7-2.4-1.5-3.7-2.1
							c-1.1-0.5-2.2-0.8-3.4-1.1c-1.5-0.3-3.1-0.4-4.6-0.5C288.4,236.1,287.1,236.1,285.8,236.2L285.8,236.2z M286.9,238.8
							c1.3-0.1,2.6,0.4,3.9,0.7c1.3,0.4,2.5,0.9,3.7,1.4c1.5,0.6,3,1.1,4.4,1.8c1.1,0.5,2.4,0.8,3.4,1.6c1.1,0.9,2,2.1,2.7,3.4
							c0.5,0.9,0.7,1.9,0.9,2.8c0.3,1.7,0.1,3.4,0.2,5.1c0.1,1.4,0.5,2.7,0.4,4.1c-0.1,0.9-0.4,1.7-0.7,2.5c-0.4,1.2-1,2.3-1.2,3.5
							c-0.3,1.5,0.2,3.1,0,4.6c-0.1,1-0.4,2.1-0.9,3c-0.5,1-1.5,1.6-2.1,2.5c-0.4,0.7-0.5,1.5-1.1,2.1c-0.7,0.7-1.6,1.2-2.5,1.6
							s-1.9,0.4-2.8,0.5c-1.8,0.2-3.5,0.3-5.3,0.4c-1.7,0-3.3,0-4.9-0.2c-1.6-0.1-3.2-0.4-4.8-0.7c-1.4-0.2-2.7-0.5-4.1-0.9
							c-1-0.3-2-0.7-3-1.1c-1.2-0.5-2.4-1.1-3.5-1.6c-0.9-0.4-2.1-0.5-2.8-1.2c-0.8-0.7-1-1.8-1.4-2.8s-0.7-2-0.9-3
							c-0.1-0.8-0.1-1.6-0.2-2.5c0-1,0.1-2,0-3c-0.2-1.3-0.9-2.4-1.1-3.7c-0.1-0.8,0.1-1.5,0.2-2.3c0.1-1.1,0.3-2.1,0.5-3.2
							c0.2-0.8,0.3-1.6,0.5-2.3c0.3-0.7,0.6-1.3,1.1-1.9c0.7-1,1.6-1.9,2.5-2.7c0.5-0.5,1.2-0.8,1.8-1.2c0.6-0.4,1.1-0.9,1.6-1.4
							c0.4-0.4,0.8-0.8,1.2-1.1c0.9-0.5,1.9-0.9,2.8-1.2c1.2-0.5,2.3-0.9,3.5-1.2c0.9-0.2,1.8-0.3,2.7-0.5
							C283.3,240.1,285,239,286.9,238.8L286.9,238.8z"/>
						<path id="path1761" inkscape:connector-curvature="0" sodipodi:nodetypes="ccaaacaacaac" class="st3" d="M258.6,255l-1.5,6.5
							c0,0,3.8,7.6,7,10c4.1,3.1,9.5,4,14.5,5c4.7,1,9.7,1.2,14.5,1c5.4-0.2,16-2.5,16-2.5s3.2-7.8,3.5-12c0.2-3.4-0.4-6.8-1.5-10
							c-0.8-2.2-3.5-6-3.5-6s-7,0.2-10.5,0.5c-8.7,0.7-17.5,1-26,3C266.8,251.5,258.6,255,258.6,255L258.6,255z"/>
						<path id="path1763" inkscape:connector-curvature="0" sodipodi:nodetypes="caaaaaaaaaaaacccccc" class="st1" d="M268.2,250.7
							c0,0,0.7,1.1,0.9,1.8c0.3,0.9,0.4,1.9,0.5,2.8s0,1.9,0,2.8c0,0.6,0,1.2,0,1.8c0,0.9,0.1,1.8,0.2,2.7c0,0.8-0.1,1.7,0,2.5
							c0.1,0.7,0.3,1.3,0.5,1.9c0.1,0.2,0.2,0.5,0.4,0.7c0.2,0.5,0.5,0.9,0.7,1.4c0.3,0.6,0.6,1.1,0.7,1.8c0.1,0.5-0.1,1.1-0.2,1.6
							c0,0.2,0,0.4,0,0.5c-0.1,0.6-0.4,1.8-0.4,1.8l-6.7-2.5l-5.9-6.1l-2.6-4l1.3-7.2L268.2,250.7z"/>
						<path id="path1765" inkscape:connector-curvature="0" class="st12" d="M260.1,258.1l2.1-2.6l3,0.7l1.2,2.7l-0.3,2.9l-2.2,1.6
							l-2.9-0.6l-1.5-1.8L260.1,258.1z"/>
						
							<path id="path1767" inkscape:connector-curvature="0" sodipodi:nodetypes="aaaaaaaaaaaaaaaaaaaaaaaaaaaaaaaaaaaaaaaaaaaaaaaaaaaaaaaaaaaaaaaaaaaaaaaaaaaaaaaaaaaaaaaaaaaaaaaaaaaaaaaaaaaaaaaaaaaaaaaaaaaaaaaaaaaaaaaaaaaaa" d="
							M306.1,245.6c-0.7-0.1-1.3,0.1-2,0.1c-1.1,0.1-2.3,0.2-3.4,0.2c-1,0.1-1.9,0.1-2.9,0.2c-1.1,0.1-2.2,0.1-3.2,0.2
							c-1.2,0.1-2.5,0-3.7,0.2c-1.1,0.2-2.1,0.5-3.2,0.8c-0.7,0.2-1.5,0.5-2.2,0.6c-1.5,0.2-2.9-0.1-4.4-0.1c-0.9,0-1.8,0-2.7,0
							c-1.3,0.1-2.7,0.1-4,0.3c-1.1,0.2-2.2,0.5-3.3,0.9c-0.8,0.2-1.6,0.6-2.4,0.8c-0.8,0.3-1.6,0.5-2.4,0.8
							c-0.9,0.2-1.8,0.4-2.6,0.6c-1.1,0.3-2.3,0.6-3.4,1c-0.5,0.2-1,0.5-1.5,0.6c-0.4,0.1-0.9-0.1-1.2,0.2c-0.7,0.6-0.7,1.6-0.9,2.5
							c-0.2,0.9,0,1.8-0.2,2.7c-0.1,0.8-0.4,1.6-0.7,2.3c-0.1,0.2-0.3,0.5-0.4,0.7c-0.1,0.3-0.4,0.7-0.4,1.1c0.2,1,1.2,1.7,1.8,2.5
							c0.3,0.5,0.8,0.9,1.1,1.4c0.4,0.8,0.5,1.7,0.9,2.5c0.3,0.6,0.7,1.1,1.1,1.6c0.5,0.7,1.1,1.3,1.8,1.9c0.3,0.3,0.7,0.6,1.1,0.9
							c0.5,0.3,1.2,0.5,1.8,0.7c0.5,0.2,1,0.6,1.6,0.7c0.5,0.1,0.9,0.1,1.4,0.2c0.2,0,0.5,0.1,0.7,0.2c0.3,0.1,0.6,0.2,0.9,0.4
							c1.2,0.4,2.4,0.8,3.6,1.1c1,0.3,2,0.5,3.1,0.6c0.8,0.1,1.6,0,2.4,0.1c1.1,0.2,2.1,0.6,3.1,0.8c0.9,0.2,1.8,0.1,2.6,0.2
							c1.1,0.2,2.2,0.5,3.2,0.6c0.9,0.1,1.9,0.2,2.8,0.2c1.3,0,2.5,0,3.8-0.2c1.1-0.2,2.1-0.7,3.1-0.9c1.3-0.2,2.6-0.4,3.9-0.4
							c1.5-0.1,3,0.1,4.4-0.1c0.8-0.1,1.7-0.3,2.5-0.6c0.8-0.3,1.6-0.5,2.3-1c0.4-0.3,0.8-0.8,1.1-1.3c0.5-0.9,0.6-2,0.8-3.1
							c0.1-0.5,0.1-1,0.2-1.4c0.1-0.8,0.4-1.5,0.6-2.3c0.2-1.2,0.4-2.5,0.4-3.7c0-0.7,0-1.5,0-2.2c0-0.8,0.2-1.5,0.1-2.2
							s-0.3-1.3-0.5-2c-0.1-0.4-0.2-0.7-0.2-1.1c-0.1-0.7-0.1-1.5-0.2-2.2c-0.2-0.9-0.4-1.7-0.7-2.6c-0.2-0.4-0.4-0.8-0.7-1.2
							c-0.3-0.5-0.6-1-0.9-1.4c-0.4-0.6-0.8-1.3-1.2-1.9c-0.3-0.4-0.5-0.8-0.9-1C307.2,245.8,306.6,245.7,306.1,245.6L306.1,245.6z
							 M298.8,247.6c1.2-0.2,2.4,0.2,3.6,0.2c1.2,0.1,2.6-0.3,3.7,0.2c0.2,0.1,0.2,0.3,0.4,0.4c0.3,0.3,0.7,0.6,0.9,0.9
							c0.3,0.4,0.4,0.8,0.6,1.2c0.3,0.7,0.6,1.4,0.8,2.1c0.2,0.6,0.2,1.2,0.4,1.8c0.1,0.6,0.3,1.2,0.4,1.8c0,0.1,0.1,0.3,0.1,0.4
							c0.3,1.4,0.8,2.8,0.9,4.3c0,0.4,0,0.8-0.1,1.2c-0.1,1.1-0.5,2.1-0.6,3.1c-0.1,0.7,0,1.5-0.2,2.2c-0.2,0.5-0.5,0.9-0.8,1.4
							c-0.2,0.4-0.4,0.8-0.5,1.2c-0.2,0.8-0.2,1.6-0.4,2.4c-0.1,0.5-0.2,1.1-0.6,1.5c-0.3,0.2-0.7,0.1-1.1,0.2
							c-0.7,0.2-1.3,0.7-1.9,0.8c-0.7,0.2-1.5,0-2.2,0.1c-0.5,0-1,0.2-1.6,0.2c-0.8,0.1-1.6,0.1-2.4,0.1c-0.5,0-1,0-1.6,0
							c-0.7,0.1-1.4,0.3-2.1,0.4c-0.6,0.1-1.1,0.2-1.7,0.2c-0.5,0-0.9-0.1-1.4-0.1c-0.6,0-1.2,0.3-1.9,0.4c-0.5,0-1.1,0-1.6-0.1
							c-0.6-0.1-1.2-0.3-1.8-0.3c-0.9-0.1-1.8,0.1-2.8,0.1c-0.6,0-1.2,0-1.8,0c-0.6,0-1.2-0.1-1.8-0.2c-0.8-0.1-1.5-0.4-2.2-0.6
							s-1.5-0.2-2.2-0.4c-0.4-0.1-0.7-0.3-1.1-0.4c-0.9-0.3-1.7-0.4-2.6-0.6c-0.5-0.1-0.9-0.1-1.4-0.2c-0.6-0.2-1.1-0.5-1.6-0.8
							c-0.6-0.3-1.2-0.6-1.8-0.9c-0.4-0.2-0.8-0.5-1.2-0.8c-0.6-0.3-1.2-0.6-1.7-0.9c-0.4-0.3-0.8-0.7-1.2-1
							c-0.2-0.2-0.5-0.3-0.7-0.5c-0.6-0.5-1.1-1.2-1.5-1.8c-0.2-0.3-0.4-0.7-0.6-1.1c-0.1-0.2-0.2-0.4-0.3-0.6
							c-0.2-0.4-0.4-0.8-0.7-1.2c-0.2-0.3-0.4-0.6-0.7-0.9c-0.2-0.3-0.6-0.5-0.8-0.8c-0.2-0.2-0.3-0.5-0.3-0.8c0-0.1,0-0.3,0-0.4
							c0.1-0.3,0.3-0.5,0.4-0.8c0.1-0.4,0-0.9,0-1.4c0-0.4,0.2-0.9,0.2-1.3c0.1-0.5,0.2-1.1,0.4-1.6c0.1-0.1,0.1-0.3,0.2-0.4
							c0.2-0.2,0.4-0.3,0.6-0.4c0.4-0.2,0.8-0.5,1.2-0.6c0.1,0,0.2,0,0.2,0c0.2-0.1,0.4-0.2,0.6-0.3c0.3-0.1,0.7-0.1,1.1-0.2
							c0.3-0.1,0.6-0.1,0.9-0.2c0.6-0.2,1.2-0.4,1.8-0.7c0.7-0.3,1.3-0.6,2-0.9c0.9-0.5,1.8-1.2,2.8-1.4c0.9-0.2,1.9,0.2,2.8,0.2
							c0.7,0,1.4,0.1,2.1,0s1.3-0.5,1.9-0.8c0.5-0.2,1-0.4,1.5-0.5c0.7-0.2,1.4-0.5,2.2-0.6c1-0.1,1.9,0.1,2.9,0.1c0.7,0,1.3,0,2,0
							c1.2,0,2.4-0.1,3.6-0.2c0.8-0.1,1.6-0.3,2.4-0.3c1-0.1,2,0,3.1-0.1c0.9-0.1,1.7-0.2,2.6-0.4
							C297.6,248.3,298.1,247.7,298.8,247.6L298.8,247.6z"/>
						<path id="path1769" inkscape:connector-curvature="0" sodipodi:nodetypes="aaaaaaaaaaaaaaaaaaaaaa" class="st5" d="
							M262.6,255.5c-0.4,0.1-0.7,0.5-1,0.8c-0.2,0.2-0.4,0.5-0.6,0.8c-0.3,0.4-0.7,0.7-0.9,1.1c-0.1,0.3-0.1,0.6-0.1,0.9
							c-0.1,0.7-0.3,1.3-0.2,2c0,0.2,0,0.3,0.1,0.5c0.2,0.3,0.5,0.6,0.8,0.9c0.4,0.4,0.9,0.7,1.4,0.9c0.4,0.2,0.8,0.3,1.2,0.2
							c0.6,0,1.1-0.2,1.6-0.5c0.5-0.2,0.9-0.6,1.2-1c0.2-0.3,0.3-0.7,0.4-1.1c0.1-0.5,0.1-1.1,0-1.6c0-0.3-0.1-0.6-0.2-0.9
							c-0.2-0.5-0.4-1-0.6-1.5c-0.1-0.2-0.1-0.4-0.2-0.5c-0.2-0.2-0.4-0.4-0.7-0.5c-0.2-0.1-0.4-0.2-0.7-0.2c-0.2,0-0.4,0-0.7,0
							c-0.2,0-0.4-0.1-0.6-0.1C262.7,255.6,262.7,255.5,262.6,255.5L262.6,255.5z"/>
					</g>
					<g id="g2133" transform="translate(0,-21.831369)">
						<path id="path1719" inkscape:connector-curvature="0" sodipodi:nodetypes="aaaaaaaaa" class="st3" d="M265.3,310
							c-3.1-4.8-4.1-11.3-3-17c1.4-7.3,5.1-15.4,11.5-19c6.1-3.4,15-3.6,21,0c6.3,3.8,9.3,12.2,10.5,19.5c1,6.2,0.7,13.5-3,18.5
							c-2.2,3-6.4,4.2-10,5c-5.7,1.3-12,1.3-17.5-0.5C271.2,315.3,267.4,313.3,265.3,310z"/>
						
							<path id="path1721" inkscape:connector-curvature="0" sodipodi:nodetypes="cssssaaaaaaaaaaaaaaaaaaaaaaacccccccccc" class="st1" d="
							M286.2,271.7c0,0-0.1,2.1-1.2,3.4c-1.2,1.4-3.6,2.2-4.3,3.6c-0.7,1.3,0.2,3.1-0.2,4.5c-0.3,1.1-1.8,1.8-2.2,2.8
							c-0.3,0.9-0.9,1.6-1.1,2.5c-0.3,1.1-0.2,2.2-0.2,3.2c0,0.8,0.1,1.6,0,2.4s-0.6,1.5-0.8,2.2c-0.1,0.6-0.1,1.2-0.1,1.8
							c0,0.8,0,1.7,0.1,2.5s0.3,1.6,0.5,2.4c0.1,0.6,0.4,1.2,0.5,1.8c0.1,0.5,0.3,1.1,0.2,1.6c0,0.5-0.2,1-0.2,1.5s0,1,0,1.5
							c0,0.7,0.1,1.3,0,2c0,0.3-0.2,0.5-0.1,0.8c0.4,0.8,1.4,1.2,2.2,1.5c1,0.3,2.1,0.2,3.1,0.2c0.8,0.1,1.6,0,2.4,0.1
							c0.3,0.1,0.7,0.1,1,0.2c0.6,0.2,1.1,0.7,1.6,0.6c0.7-0.1,1-1.2,1.8-1.4c0.6-0.2,1.3,0.1,1.9,0.1c0.4,0,0.7,0.1,1.1,0.1
							c0.2,0,0.4-0.1,0.6,0c0.4,0.1,0.8,0.4,1,0.8c0.3,0.5,0.2,1.8,0.2,1.8l-5.1,0.9l-11.5,0.1l-11.8-6.8l-3-12.5l3.6-15l3.5-5.6
							l5.3-3.7l5.7-1.3L286.2,271.7z"/>
						
							<path id="path1723" inkscape:connector-curvature="0" sodipodi:nodetypes="aaaaaaaaaaaaaaaaaaaaaaaaaaaaaaaaaaaaaaaaaaaaaaaaaaaaaaaaaaaaaaaaaaaaaaaaaaaaaaaaaaaaaaaaaaaaaaa" d="
							M289.2,269.4c-1-0.1-2,0.1-3,0.2c-1.2,0-2.5-0.1-3.7,0c-1.7,0.1-3.3,0.2-4.9,0.5c-1.5,0.4-3,0.8-4.4,1.6
							c-1.1,0.6-2.1,1.4-3,2.3c-0.7,0.7-1.1,1.7-1.8,2.5c-0.6,0.7-1.2,1.3-1.8,1.9c-0.8,0.9-1.8,1.8-2.5,2.8
							c-0.3,0.4-0.4,0.9-0.5,1.4c-0.3,0.9-0.4,1.8-0.7,2.7c-0.4,0.9-1.2,1.7-1.6,2.7c-0.3,0.7-0.4,1.5-0.5,2.3
							c-0.1,0.9-0.1,1.9-0.2,2.8c-0.1,1.2,0,2.5-0.2,3.7c-0.1,1-0.5,1.9-0.5,2.8c0,1.1,0.3,2.1,0.5,3.2c0.3,1,0.7,2,1.1,3
							c0.3,0.7,0.5,1.4,0.9,2.1c0.4,0.8,1,1.5,1.4,2.3s0.6,1.8,1.2,2.5c0.7,0.8,1.7,1.2,2.7,1.8c0.5,0.3,1.1,0.5,1.6,0.9
							c0.6,0.5,1.1,1.2,1.8,1.6c0.9,0.5,2,0.5,3,0.9c0.6,0.2,1.1,0.7,1.8,0.9c0.7,0.2,1.4,0.2,2.1,0.4c0.4,0.1,0.8,0.4,1.2,0.5
							c1,0.2,2.1,0.1,3.2,0.2c0.9,0.1,1.8,0.3,2.7,0.4c1,0,2,0,3-0.2c0.7-0.1,1.4-0.4,2.1-0.5s1.4,0.1,2.1,0
							c1.1-0.1,2.1-0.3,3.2-0.5c0.8-0.2,1.7-0.4,2.5-0.7c0.7-0.3,1.3-0.6,1.9-1.1s1.1-1.1,1.8-1.6c0.5-0.4,1.1-0.6,1.6-0.9
							c0.7-0.4,1.6-0.6,2.1-1.2c0.4-0.4,0.6-1,0.7-1.6c0.3-1.3-0.1-2.6,0.2-3.9c0.2-1.2,0.8-2.2,1.1-3.4c0.1-0.8,0.1-1.5,0.2-2.3
							s0.3-1.5,0.4-2.3c0.1-0.9,0-1.8,0-2.7c-0.1-1.2-0.2-2.4-0.4-3.5c-0.1-0.8-0.2-1.7-0.4-2.5c-0.2-0.9-0.4-1.8-0.7-2.7
							c-0.3-1-0.8-2-1.1-3c-0.3-1-0.2-2-0.5-3c-0.3-0.9-0.7-1.6-1.1-2.5s-0.6-1.8-1.1-2.7c-0.7-1.1-1.5-2.1-2.5-3
							c-0.8-0.7-1.9-1.2-2.8-1.8c-0.7-0.4-1.4-0.9-2.1-1.2c-1.1-0.6-2.2-1.2-3.4-1.6C291,269.7,290.1,269.5,289.2,269.4z
							 M283.7,272.8c1.2-0.1,2.4,0,3.5,0.2c1.4,0.2,2.7,0.7,4.1,1.2c1,0.4,2.1,0.8,3,1.4c1.6,1.1,2.8,2.7,4.1,4.2
							c1.1,1.3,2.4,2.6,3.2,4.2c0.7,1.5,1.1,3.3,1.2,4.9c0.2,1.8-0.1,3.5-0.2,5.3c0,1.1,0,2.1,0,3.2c0,2.6,0.4,5.2-0.2,7.8
							c-0.2,1-0.8,1.9-1.2,2.8c-0.4,1-0.7,2.1-1.4,2.8c-0.6,0.6-1.4,0.9-2.1,1.2c-0.6,0.3-1.2,0.4-1.8,0.7c-1,0.5-1.9,1.4-3,1.8
							c-0.9,0.3-1.9,0.3-2.8,0.5c-1.2,0.3-2.4,0.7-3.7,0.9c-1.1,0.1-2.2,0.1-3.4,0c-1.2-0.1-2.5-0.1-3.7-0.4
							c-1.4-0.3-2.8-0.8-4.2-1.2c-0.9-0.3-1.9-0.4-2.8-0.9c-0.6-0.3-1.2-0.8-1.8-1.2c-0.7-0.4-1.5-0.7-2.1-1.2
							c-0.7-0.6-1.5-1.3-1.9-2.1c-0.5-0.9-0.6-1.9-0.9-2.8c-0.3-1-0.7-2-0.9-3c-0.1-0.8-0.2-1.6-0.2-2.5c0-1.3,0.4-2.6,0.5-3.9
							c0.1-0.9,0.3-1.8,0.4-2.7c0-1-0.3-2-0.2-3c0.1-1.1,0.5-2.2,0.9-3.2c0.6-1.4,1.7-2.6,2.3-4.1c0.5-1.2,0.1-2.8,0.9-3.9
							c0.6-0.9,1.8-1.1,2.7-1.8c0.5-0.4,0.8-0.9,1.2-1.2c0.7-0.6,1.5-1.3,2.3-1.8c1.2-0.7,2.5-1.4,3.9-1.8
							C280.7,273.1,282.2,272.9,283.7,272.8z"/>
						<path id="path1725" inkscape:connector-curvature="0" sodipodi:nodetypes="cacacacac" class="st4" d="M261.5,308.8
							c0,0,0.1,1.8,0.4,2.6c0.2,0.5,0.9,1.2,0.9,1.2s12.3-0.1,18.5-0.4c8.5-0.3,25.4-1.5,25.4-1.5s0.6-1.3,0.6-2s-0.6-2.2-0.6-2.2
							s-17.3,2.2-26,2.5C274.3,309.4,261.5,308.8,261.5,308.8z"/>
						<path id="path1727" inkscape:connector-curvature="0" sodipodi:nodetypes="aaaaaaaaccca" class="st6" d="M277,309.2
							c0.1,0,0.2,0,0.3,0c0.4,0.1,0.7,0.4,0.9,0.7c0.1,0.1,0.2,0.3,0.2,0.4c0,0.2-0.1,0.4-0.2,0.6c-0.1,0.3-0.2,0.5-0.2,0.8
							c0,0.1,0.1,0.3,0,0.4c-0.2,0.2-0.6,0.1-0.9,0.1c-2.1,0.1-6.4-0.1-6.4-0.1l-7.8,0.1l-1.1-3.1
							C261.9,309.1,271.9,309.1,277,309.2z"/>
						
							<path id="path1729" inkscape:connector-curvature="0" sodipodi:nodetypes="aaaaaaaaaaaaaaaaaaaaaaaaaaaaaaaaaaaaaaaaaaaaaaaaaaaaaaaaaaaaaaaaaaaaaaaaaaaaaaaaaaa" class="st5" d="
							M262.2,308.8c-0.1,0-0.2,0.2-0.2,0.3c-0.1,0.1-0.1,0.3-0.1,0.4c0,0.2,0,0.3,0.1,0.5c0,0.2,0.1,0.3,0.2,0.4
							c0,0.2,0,0.4,0.1,0.6s0.1,0.4,0.2,0.6c0.1,0.1,0.1,0.2,0.2,0.3c0.1,0.1,0.2,0.2,0.4,0.3c0.1,0.1,0.2,0.1,0.3,0.1
							c0.3,0.1,0.7,0.1,1,0.1c0.4,0,0.8-0.1,1.3-0.1c0.3,0,0.6,0,0.9,0c0.4,0,0.9,0,1.3,0s0.9,0,1.3-0.1c0.4,0,0.7-0.1,1-0.1
							c0.4,0,0.8,0,1.1,0c0.4,0,0.8,0,1.3,0c0.4,0,0.7,0.1,1.1,0.1c0.6,0,1.3-0.1,1.9-0.1c0.4,0,0.8,0,1.2,0c0.5,0,0.9,0,1.4,0
							c0.4,0,0.8,0,1.2,0c0.3,0,0.6-0.1,0.9-0.1c0.5,0,1.1,0,1.6,0c0.4,0,0.8-0.1,1.2-0.1c0.4,0,0.8,0,1.2,0c0.3,0,0.7-0.1,1-0.1
							s0.6,0,1,0c0.2,0,0.4-0.1,0.7-0.1c0.3,0,0.5,0,0.8,0c0.4,0,0.8,0,1.1,0c0.4,0,0.8,0,1.2,0c0.3,0,0.6,0,0.9,0s0.6-0.1,0.9-0.1
							c0.2,0,0.5,0,0.7,0c0.3,0,0.7,0,1-0.1c0.2,0,0.3-0.1,0.5-0.1s0.4,0,0.6,0c0.5,0,1.1,0,1.6-0.1c0.4,0,0.7-0.1,1.1-0.1
							c0.5-0.1,1-0.2,1.6-0.2c0.4,0,0.8,0.1,1.2,0.1c0.4,0,0.9,0.1,1.3,0.1s0.8-0.1,1.2-0.2c0.3,0,0.7-0.1,1-0.1s0.7-0.1,1-0.1
							s0.6,0,0.9,0c0.2,0,0.5,0.1,0.7,0c0.1,0,0.2-0.1,0.3-0.2c0.1-0.2,0-0.4,0.1-0.5c0.1-0.2,0.2-0.4,0.2-0.6
							c0.1-0.2,0.1-0.3,0.1-0.5s0-0.4,0-0.6c0-0.3-0.1-0.5-0.1-0.7s0-0.4-0.1-0.5s-0.2-0.2-0.3-0.2c-0.3-0.1-0.7,0-1,0.1
							c-0.7,0-1.3,0-2,0.1c-0.5,0.1-0.9,0.2-1.4,0.3c-0.6,0.1-1.2,0.2-1.8,0.3c-0.6,0.1-1.3,0.2-1.9,0.2c-0.7,0.1-1.4,0.1-2.1,0.2
							c-0.6,0-1.2,0.1-1.8,0.1c-0.5,0-1,0.1-1.5,0.1c-0.7,0.1-1.5,0.1-2.3,0.2c-0.7,0.1-1.4,0.1-2.1,0.1c-0.5,0-1,0-1.4,0
							c-1.4,0-2.7,0.1-4.1,0.1c-0.2,0-0.5,0-0.7,0c-0.4,0-0.8,0.1-1.3,0.1c-0.7,0.1-1.4,0.2-2.1,0.2c-0.3,0-0.7,0-1,0
							c-0.2,0-0.5,0-0.7,0c-0.8,0-1.6,0.2-2.3,0.2c-0.7,0-1.3-0.1-2-0.1c-0.5,0-1,0-1.5,0c-0.6,0-1.2,0-1.8,0c-0.7,0-1.3-0.1-2-0.1
							c-0.4,0-0.9,0-1.3,0.1c-0.9,0-1.7,0.1-2.6,0c-0.4,0-0.9,0-1.3-0.2C262.4,309,262.4,308.8,262.2,308.8L262.2,308.8z"/>
						
							<path id="path1731" inkscape:connector-curvature="0" inkscape:original-d="m 275.71114,277.33536 c 0,0 -1.79823,0.21587 -2.2934,0.86589 -0.39811,0.52261 -0.18147,1.96254 -0.18147,1.96254 0,0 8.32346,11.68595 11.73789,14.33148 3.76618,2.91806 5.21095,3.95786 11.10662,6.12819 8.25412,3.03852 9.71318,3.00061 9.71318,3.00061 0,0 1.44044,-0.30954 1.89527,-0.82756 0.45814,-0.52179 0.57961,-2.00087 0.57961,-2.00087 0,0 -13.77667,-4.62096 -19.53687,-8.85735 -5.25376,-3.86392 -13.02083,-14.60293 -13.02083,-14.60293 z" inkscape:path-effect="#path-effect1107" sodipodi:nodetypes="cacsscacac" class="st4" d="
							M275.7,277.3c-0.4-0.1-0.9-0.1-1.3,0.1s-0.8,0.4-1,0.8c-0.4,0.6-0.4,1.3-0.2,2c2.7,5.6,6.8,10.6,11.7,14.3
							c3.4,2.6,7.2,4.5,11.1,6.1c3.1,1.3,6.4,2.3,9.7,3c0.7,0,1.4-0.3,1.9-0.8s0.7-1.3,0.6-2c-7.1-1.5-13.8-4.5-19.5-8.9
							C283.5,288,279,283,275.7,277.3z"/>
						
							<path id="path1733" inkscape:connector-curvature="0" sodipodi:nodetypes="aaaaaaaaaaaaaaaaaaaaaaaaaaaaaaaaasaaaaaaaaaaaaaaaaaaaaaaaaaaaaaaaaaacaaaaaaaaaaaaaaaaaaaaaaaaaaaaaaaaaaaaaaaaaaaaaaaaaaaaaaaaaacc" d="
							M274,277c0.3-0.3,0.8,0.1,1.2,0.3c0.2,0.1,0.4,0.2,0.6,0.4c0.2,0.2,0.2,0.5,0.4,0.6c0.1,0,0.2,0,0.2,0
							c0.6,0.2,1.3,0.6,1.8,1.1c0.3,0.3,0.1,0.9,0.4,1.2c0.4,0.6,1.1,1,1.6,1.5c0.4,0.4,0.8,0.8,1.1,1.2c0.3,0.3,0.6,0.7,0.9,1
							c1.3,1.4,2.7,2.8,3.9,4.3c0.2,0.2,0.3,0.4,0.5,0.6c0.4,0.5,0.9,1,1.4,1.4c1,0.8,2.2,1.3,3.4,1.9c0.5,0.2,1,0.4,1.5,0.6
							c0.8,0.4,1.5,1,2.2,1.5c0.5,0.4,1,0.8,1.5,1.1c0.4,0.2,0.8,0.4,1.2,0.6c0.7,0.4,1.5,0.7,2.2,1s1.4,0.6,2.1,0.9
							c0.5,0.2,1,0.5,1.5,0.6c0.4,0.1,0.8,0.1,1.2,0.2c0.9,0.2,1.8,0.6,2.6,0.9c0.1,0,0.3,0.1,0.4,0.1c0.3,0.1,0.8,0.1,1,0.4
							c0.4,0.4,0.7,1,0.5,1.5c-0.1,0.2-0.4,0.3-0.6,0.5s-0.6,0.2-0.8,0.4c-0.1,0.1-0.2,0.4-0.3,0.5c-0.1,0.2-0.3,0.4-0.5,0.5
							s-0.4,0-0.7,0c-0.3,0.1-0.5,0.3-0.8,0.3s-0.5-0.1-0.8-0.1c-0.4-0.1-0.7-0.3-1.1-0.4c-1.3-0.2-0.1,0-0.1,0
							c-0.4,0-0.7-0.1-1.1-0.3c-0.3-0.1-0.6-0.3-1-0.4s-0.8-0.2-1.2-0.3c-0.4-0.1-0.8-0.3-1.2-0.4c-0.3-0.1-0.7-0.2-1-0.4
							c-0.4-0.2-0.9-0.3-1.3-0.5c-0.4-0.1-0.7-0.2-1.1-0.4c-0.4-0.2-0.8-0.4-1.2-0.6c-0.5-0.2-1-0.4-1.5-0.7
							c-0.4-0.2-0.9-0.3-1.3-0.5s-0.9-0.4-1.3-0.6c-0.5-0.2-0.9-0.5-1.4-0.7c-0.5-0.3-1-0.5-1.5-0.8c-0.6-0.3-1.3-0.5-1.9-0.9
							c-0.3-0.2-0.5-0.4-0.8-0.7c-0.5-0.4-0.9-0.9-1.4-1.3c-0.3-0.3-0.7-0.5-1.1-0.8c-0.3-0.2-0.6-0.4-0.9-0.7
							c-0.3-0.3-0.5-0.6-0.8-0.9c-0.2-0.2-0.2-0.5-0.4-0.8c-0.3-0.5-0.7-0.9-1.1-1.4c-0.2-0.2-0.4-0.4-0.6-0.6
							c-1-1.1-2.1-2.1-3.1-3.2c-0.3-0.3-0.6-0.7-0.9-1c-0.2-0.2-0.3-0.4-0.4-0.7c-0.3-0.5-0.6-1-0.9-1.5c-0.4-0.7-1-1.3-1.3-2
							c-0.2-0.5-0.3-1-0.3-1.5c0-0.4,0.1-0.7,0.2-1.1c0.1-0.3,0-0.6,0.2-0.8c0.2-0.3,0.6-0.4,0.9-0.4C273.2,277,273.7,277.3,274,277
							L274,277L274,277z M274.8,278.7c-0.5,0-1.1,0.2-1.4,0.6c-0.1,0.2,0,0.5,0,0.8c0.1,0.4,0.4,0.7,0.6,1c0.2,0.4,0.4,0.8,0.7,1.2
							c0.2,0.4,0.5,0.8,0.8,1.2c0.2,0.2,0.5,0.4,0.7,0.7c0.4,0.5,0.6,1.1,0.9,1.6c0.8,1.2,1.7,2.4,2.6,3.5c0.2,0.3,0.5,0.6,0.8,0.8
							c0.5,0.4,1.2,0.6,1.7,1.1c0.4,0.4,0.6,0.9,0.9,1.4c0.3,0.4,0.6,0.8,1,1.1c0.5,0.3,1,0.5,1.5,0.8c0.4,0.2,0.8,0.3,1.1,0.6
							c0.3,0.2,0.4,0.6,0.7,0.9c0.2,0.2,0.3,0.5,0.6,0.6c0.3,0.2,0.7,0.3,1.1,0.4c0.7,0.3,1.3,0.5,1.9,0.8c0.5,0.2,0.9,0.5,1.3,0.8
							c0.6,0.3,1.3,0.7,1.9,0.8c0.4,0.1,0.8,0,1.2,0.1c0.4,0.2,0.8,0.5,1.1,0.8c0.4,0.3,0.8,0.6,1.3,0.8c0.5,0.2,1,0.2,1.5,0.4
							c0.4,0.1,0.9,0.3,1.3,0.4c0.5,0.2,0.9,0.3,1.4,0.4c0.4,0.1,0.7,0.4,1.1,0.4c0.1,0,0.3-0.1,0.4,0c0.4,0,0.8,0.2,1.3,0.3
							c0.2,0,0.5,0,0.8,0c0.2,0,0.4,0,0.6,0c0.3,0,0.5,0.1,0.8,0c0.1,0,0.1-0.1,0.1-0.2c0.1-0.2,0-0.4,0.1-0.6
							c0.2-0.3,0.5-0.3,0.8-0.6c0.1-0.1,0.2-0.1,0.1-0.2c-0.1-0.2-0.4-0.2-0.6-0.3c-0.3-0.1-0.7-0.2-1.1-0.3c-0.5-0.1-1-0.3-1.5-0.4
							c-0.4-0.1-0.8,0-1.1,0c-0.9-0.2-1.7-0.7-2.5-1c-0.6-0.2-1.1-0.2-1.7-0.4c-0.6-0.3-1.2-0.7-1.8-1c-0.5-0.3-1-0.5-1.5-0.7
							c-0.7-0.3-1.3-0.6-2-0.9c-0.6-0.3-1.1-0.7-1.7-1.1c-0.7-0.4-1.4-0.9-2.1-1.3c-0.4-0.2-0.8-0.5-1.2-0.8
							c-0.5-0.4-1.1-0.8-1.6-1.2c-0.4-0.4-0.8-0.8-1.2-1.2c-0.3-0.3-0.7-0.5-1-0.8c-1.1-1.1-1.9-2.5-3-3.7c-0.4-0.5-0.8-0.9-1.3-1.3
							c-0.4-0.3-0.8-0.6-1.2-0.9c-0.5-0.4-1-0.8-1.4-1.2c-0.4-0.4-0.8-0.9-1.1-1.4c-0.2-0.4-0.4-0.8-0.6-1.1
							c-0.4-0.5-0.8-0.9-1.2-1.2C275.4,278.9,275.1,278.7,274.8,278.7L274.8,278.7z"/>
						<path id="path1735" inkscape:connector-curvature="0" class="st8" d="M289.6,307.6l0.4,5.3l5.7-0.4l-0.2-5.4L289.6,307.6z"/>
						<path id="path1737" inkscape:connector-curvature="0" sodipodi:nodetypes="aaaaaaaaaaaaaaaaaaaa" class="st9" d="M294.7,307.1
							c0.1,0.2,0,0.4-0.2,0.6c-0.1,0.1-0.3,0.1-0.4,0.2s-0.1,0.1-0.2,0.2c-0.3,0.2-0.5,0.3-0.8,0.5c-0.2,0.1-0.3,0.2-0.5,0.2
							c-0.2,0.1-0.5,0.1-0.7,0.2c-0.1,0-0.1,0.1-0.2,0.1c-0.3,0.1-0.5,0.2-0.8,0.3c-0.1,0-0.1,0.1-0.2,0.1c-0.2,0.1-0.3,0.1-0.5,0.2
							h-0.1c-0.2-0.1-0.1-0.4-0.2-0.7c0-0.1,0-0.2,0-0.2c0.3-0.4,0.8-0.6,1.3-0.8c0.3-0.1,0.6-0.1,0.9-0.2c0.2-0.1,0.3-0.2,0.5-0.3
							c0.3-0.1,0.6-0.3,0.8-0.4c0.2-0.1,0.3-0.1,0.5-0.1C294.2,307,294.5,306.9,294.7,307.1L294.7,307.1z"/>
						<path id="path1739" inkscape:connector-curvature="0" sodipodi:nodetypes="caaaaaaaaaaaaaaaaaaaaaaaacc" class="st9" d="
							M295.2,307.9c0,0,0.1,0,0.2,0c0.2,0,0.4,0,0.5,0.1c0.1,0.2,0,0.5-0.2,0.7c-0.1,0-0.2-0.1-0.2,0c-0.1,0-0.1,0.1-0.2,0.2
							c-0.2,0.3-0.4,0.6-0.7,0.8c-0.3,0.3-0.7,0.5-1.1,0.8c-0.2,0.1-0.4,0.1-0.5,0.2c-0.3,0.1-0.6,0.2-0.9,0.4
							c-0.2,0.1-0.5,0.3-0.7,0.4s-0.4,0.1-0.6,0.2s-0.3,0.2-0.5,0.2c-0.1,0-0.2,0.1-0.2,0c-0.2-0.1-0.1-0.5,0-0.7
							c0-0.1,0-0.3,0.1-0.4c0.1-0.2,0.3-0.2,0.5-0.3c0.3-0.2,0.6-0.4,1-0.5c0.3-0.1,0.6-0.3,0.8-0.4c0.3-0.1,0.6-0.2,0.8-0.4
							c0.2-0.1,0.5-0.2,0.7-0.4c0.2-0.1,0.4-0.2,0.6-0.3c0.1,0,0.2-0.1,0.3-0.1c0.1-0.1,0.3-0.1,0.4-0.2
							C295.1,308.2,295.2,308,295.2,307.9L295.2,307.9L295.2,307.9z"/>
						<path id="path1741" inkscape:connector-curvature="0" sodipodi:nodetypes="aaaaaaaaaaaaaaaaaaaaaa" class="st5" d="
							M289.6,307.4c0.4-0.5,1.3-0.1,1.9-0.1c0.5,0,1-0.1,1.5-0.1c0.3,0,0.7-0.1,1-0.1c0.2,0,0.3,0,0.5,0s0.4-0.1,0.6,0
							c0.3,0.1,0.4,0.5,0.5,0.8c0.1,0.2,0.1,0.5,0.1,0.8c0,0.4-0.1,0.8-0.1,1.2c0,0.3,0.1,0.6,0.1,0.9c0,0.4,0,0.8,0,1.2
							c0,0.1,0.1,0.3,0,0.4c-0.2,0.3-0.7,0.2-1.1,0.3c-0.6,0.1-1.1,0.2-1.7,0.2c-0.5,0-1,0.1-1.4,0.1c-0.2,0-0.5,0-0.7-0.1
							c-0.2,0-0.4,0-0.5-0.1c-0.5-0.4-0.6-1.1-0.7-1.8c-0.1-0.4-0.1-0.8-0.1-1.1c0-0.4,0.2-0.8,0.2-1.2c0-0.2,0-0.3,0-0.5
							C289.7,308,289.4,307.6,289.6,307.4z"/>
						<path id="path1743" inkscape:connector-curvature="0" class="st8" d="M288.9,291.1l-1.8-1.8l-5.3,4.4l1.6,2L288.9,291.1z"/>
						<path id="path1745" inkscape:connector-curvature="0" class="st9" d="M287.5,290.1l-0.3,0.7l-0.3,0.4l-0.4,0.7l-0.1,0.4
							L286,293l-0.4,0.4l-0.4,0.4l-0.2,0.4l-0.4,0.4l-0.4,0.4l-0.4,0.3l-0.4,0.1l0.5-0.8l0.4-0.8l0.3-0.5l0.4-0.4l0.7-0.9l0.4-0.8
							l0.2-0.4l0.1-0.1l0.4-0.7l0.1-0.2l0.2-0.3l0.3,0.4L287.5,290.1z"/>
						<path id="path1747" inkscape:connector-curvature="0" sodipodi:nodetypes="aaaaaaaaaaaaaaaaaaaaaaa" class="st5" d="
							M287.1,289.2c0.5,0,0.6,0.7,0.9,1.1c0.3,0.3,0.9,0.5,0.9,0.9s-0.5,0.6-0.8,0.9c-0.2,0.2-0.3,0.3-0.5,0.5
							c-0.3,0.2-0.6,0.4-0.9,0.7c-0.3,0.3-0.7,0.5-1,0.8c-0.2,0.2-0.4,0.3-0.6,0.5s-0.3,0.4-0.4,0.6c-0.2,0.2-0.4,0.3-0.7,0.4
							c-0.2,0-0.4,0-0.5,0c-0.1-0.1-0.2-0.2-0.4-0.3c-0.2-0.1-0.3-0.3-0.4-0.5c-0.1-0.1-0.2-0.2-0.3-0.4c-0.1-0.1-0.2-0.2-0.3-0.3
							c0-0.1-0.1-0.1-0.1-0.2c0-0.3,0.2-0.5,0.4-0.7c0.2-0.3,0.6-0.5,0.9-0.8c0.4-0.3,0.7-0.6,1.1-0.9c0.3-0.2,0.6-0.4,0.8-0.6
							c0.2-0.2,0.5-0.4,0.7-0.6c0.3-0.2,0.6-0.4,0.8-0.7C286.9,289.6,286.9,289.2,287.1,289.2L287.1,289.2z"/>
						<path id="path1771" inkscape:connector-curvature="0" class="st5" d="M308.5,301.3"/>
					</g>
				</g>
			</g>
			<g id="g2877" transform="matrix(1.5546954,0,0,1.5546954,-138.88574,-410.46549)">
				
					<path id="path2848" inkscape:connector-curvature="0" inkscape:original-d="m 279.5169,779.24035 c 1.38667,2.17367 1.22205,7.63779 1.22205,7.63779 0,0 -2.71963,0.94138 -4.13819,1.09579 -1.41403,0.15391 -4.26339,-0.17925 -4.26339,-0.17925 l -14.5118,-2.29134 c 0,0 -0.30571,-5.79554 -0.40691,-8.69542 -0.10316,-2.95615 -0.20411,-8.8715 -0.20411,-8.8715 l 11.60944,-0.45827 -0.91653,7.79055 c 0,0 3.73837,-0.66479 5.4992,-0.15275 2.35958,0.68615 4.78864,2.05274 6.11024,4.1244 z" inkscape:path-effect="#path-effect2850" sodipodi:nodetypes="acaccacccaa" class="st13" d="
					M279.5,779.2c1.5,2.2,1.9,5.1,1.2,7.6c-1.3,0.6-2.7,0.9-4.1,1.1c-1.4,0.2-2.9,0-4.3-0.2l-14.5-2.3c-0.2-2.9-0.3-5.8-0.4-8.7
					c-0.1-3-0.2-5.9-0.2-8.9l11.6-0.5l-0.9,7.8c1.8-0.5,3.7-0.6,5.5-0.2C275.9,775.7,278.1,777.1,279.5,779.2L279.5,779.2z"/>
				<path id="path2859" inkscape:connector-curvature="0" sodipodi:nodetypes="caaaaaaaaaaccccc" class="st3" d="M260.7,768.5
					c0,0,0.7,1.2,0.9,1.8c0.1,0.6,0,1.2,0,1.8s0.1,1.2,0.1,1.7c0,0.6,0.1,1.2,0.1,1.8c0,0.7,0,1.4,0,2.1c0,0.5,0.1,0.9,0.1,1.4
					c0,0.3,0.1,0.6,0.1,0.9c0,0.3,0.1,0.6,0.1,0.9c0,0.2,0,0.4,0,0.6c0,0.7,0.1,1.4,0.1,2.2c0,0.5,0,1.5,0,1.5l-0.1,0.4l-4.6-0.3
					l-0.3-17.4L260.7,768.5z"/>
				
					<path id="path2854" inkscape:connector-curvature="0" sodipodi:nodetypes="aaaaaaaaaaaaaaaaaaaaaaaaaaaaaaaaaaaaaaaaaaaaaaaaaaaaaaaaaaaaaaaaaaaaaaaaaaaaaaaaaaaaaaaaaaaaaaaaacaaaaaaaaa" d="
					M259.8,766.2c0.8,0,1.7,0.3,2.5,0.3s1.6-0.2,2.4-0.2c0.7,0,1.4,0,2.1,0c0.5,0,1,0.1,1.5,0.2c0.2,0,0.4,0.1,0.6,0.1
					c0.3,0,0.7-0.3,1-0.1c0.6,0.5,0.1,1.6,0.1,2.4c0,0.6-0.2,1.2-0.3,1.8c-0.1,0.4-0.3,0.7-0.3,1.1c0,0.4,0,0.8,0.2,1.1
					s0.7,0.4,1,0.5c0.4,0.2,0.9,0.2,1.4,0.3c0.4,0.1,0.8,0.1,1.2,0.2c0.4,0,0.8,0,1.1,0.1c0.5,0.1,1.1,0.3,1.6,0.6
					c0.4,0.2,0.6,0.5,1,0.7c0.4,0.3,0.9,0.4,1.3,0.7c0.5,0.3,1,0.6,1.5,1c0.3,0.3,0.5,0.8,0.8,1.2c0.2,0.4,0.4,0.7,0.6,1.1
					c0.2,0.4,0.4,0.9,0.6,1.3c0.2,0.5,0.4,1,0.6,1.6c0.1,0.5,0.2,1,0.3,1.6c0,0.6,0,1.1,0,1.7c0,0.5-0.1,1-0.2,1.5
					c-0.1,0.3-0.2,0.6-0.3,0.9c0,0,0,0.1-0.1,0.1c-0.3,0.4-0.8,0.6-1.3,0.8c-0.3,0.1-0.7,0.2-1,0.3c-0.6,0.2-1.2,0.4-1.8,0.5
					c-0.7,0.2-1.5,0.4-2.2,0.4c-0.6,0-1.2-0.2-1.8-0.3c-0.5-0.1-1-0.4-1.6-0.5c-0.4-0.1-0.9,0-1.3-0.1c-0.5-0.1-1-0.4-1.6-0.5
					c-0.7-0.1-1.4,0-2.1-0.1c-0.6-0.1-1.1-0.2-1.7-0.3c-0.7-0.1-1.3-0.2-2-0.3s-1.5-0.3-2.2-0.4c-0.4-0.1-0.7-0.1-1.1-0.1
					c-0.8-0.1-1.6-0.3-2.3-0.5c-0.2-0.1-0.3-0.1-0.5-0.2c-0.2-0.1-0.5-0.2-0.6-0.4c-0.4-0.6-0.1-1.4-0.2-2.1c0-1,0-2.1-0.1-3.1
					c0-1.1,0-2.2,0-3.3c0-0.8,0.2-1.5,0.2-2.3c0-0.6-0.1-1.3-0.1-1.9c0-0.9-0.1-1.7-0.1-2.6c0-0.5,0.1-1.1,0.1-1.6
					c0-0.3,0-0.6-0.1-0.9c0-0.4-0.1-0.8-0.1-1.2c0-0.1,0-0.3,0.1-0.4c0.4-0.4,1.1-0.3,1.7-0.4C258.7,766.1,259.2,766.2,259.8,766.2
					L259.8,766.2z M266.1,768.5c-0.6-0.1-1.1,0.4-1.7,0.5s-1.1,0.1-1.7,0.2c-0.5,0-0.9,0-1.4,0s-1,0.1-1.5,0.2c-0.1,0-0.2-0.1-0.3,0
					c-0.6,0.4-0.7,1.4-0.8,2.1c-0.1,0.5,0.1,0.9,0.2,1.4c0,0.6,0,1.2,0,1.8c0.1,0.7,0.2,1.3,0.3,2c0.1,0.6,0.2,1.1,0.2,1.7
					c-0.1,0.5-0.5,1-0.5,1.5c0,0.6,0.3,1.1,0.5,1.7c0.1,0.5,0.4,0.9,0.5,1.4c0,0.2,0,0.3,0,0.5c0.1,0.4,0.3,0.8,0.6,1.1
					c0.6,0.4,1.5,0.1,2.3,0.3c0.5,0.1,1,0.5,1.5,0.6c1.3,0.3,2.8,0.1,4.1,0.3c0.5,0.1,1,0.2,1.5,0.3c0.8,0.2,1.5,0.3,2.3,0.5
					c0.9,0.2,1.8,0.6,2.8,0.8c0.3,0,0.6,0,0.9,0c0.7-0.1,1.4-0.4,2.1-0.6c0.3-0.1,0.5-0.2,0.8-0.3c0.4-0.1,0.9-0.1,1.1-0.4
					c0.3-0.3,0.1-0.8,0.1-1.2s0.2-0.9,0.2-1.3c-0.1-0.7-0.6-1.2-0.9-1.9c-0.2-0.4-0.3-0.9-0.5-1.2c-0.2-0.4-0.6-0.7-0.9-1
					c-0.2-0.4-0.4-0.8-0.6-1.1s-0.5-0.5-0.8-0.7c-0.4-0.3-0.9-0.5-1.4-0.7c-0.6-0.2-1.3-0.3-1.9-0.4c-0.5-0.1-1-0.3-1.5-0.3
					c-0.4-0.1-0.8-0.1-1.2-0.1c-0.4,0-0.8,0-1.1,0.1c-0.2,0.1-0.5,0.2-0.7,0.3c-0.4,0.2-0.7,0.3-1.1,0.5c-0.3,0.2-0.6,0.4-0.9,0.6
					c-0.5,0.3-1.5,0.6-1.5,0.6s-0.3-0.5-0.3-0.7c0-0.4,0-0.9,0.3-1.1c0,0,0.1,0,0.2,0c0.3-0.2,0.3-0.6,0.5-0.9
					c0.2-0.3,0.4-0.6,0.6-0.9c0.3-0.5,0.6-1.1,0.8-1.7c0.1-0.5,0.1-1.1,0.2-1.7c0-0.5,0.4-1.1,0.2-1.5
					C267.2,768.8,266.6,768.6,266.1,768.5z"/>
				<path id="path2857" inkscape:connector-curvature="0" sodipodi:nodetypes="aaaaaaaaaaaaaaaa" class="st2" d="M268.6,777.8
					c0.6-0.5,1.4-0.8,2.2-1c0.4-0.1,0.7,0,1.1,0c0.6,0,1.2-0.1,1.8,0c0.4,0.1,0.7,0.2,1.1,0.3c0.4,0.2,0.8,0.5,1.1,0.8
					c0.5,0.4,0.9,0.9,1.2,1.4c0.2,0.3,0.3,0.7,0.3,1.1c0,0.4,0.1,0.8-0.2,1.1c-0.3,0.2-0.7,0.1-1.1,0.1c-0.9,0.1-1.8,0.3-2.7,0.3
					c-1.1,0-2.3,0.2-3.2-0.3c-0.2-0.1-0.3-0.4-0.4-0.5c-0.3-0.4-0.8-0.6-1-1.1c-0.3-0.5-0.4-1.1-0.3-1.7
					C268.4,778,268.5,777.9,268.6,777.8L268.6,777.8z"/>
				<path id="path2861" inkscape:connector-curvature="0" sodipodi:nodetypes="ccccccc" class="st12" d="M255.3,765.8l-0.3,5.4
					l8.9,0.2l7-0.7v-6l-9.9-0.2L255.3,765.8z"/>
				<path id="path2868" inkscape:connector-curvature="0" class="st14" d="M262.4,771.8l0.2-1.5l-0.2-0.9l0.2-1.6l-0.3-2.1V765
					l-0.1-0.5l-1.1-0.2l-2.2,0.4l-1.7,0.4l-1.5,0.5l-0.9,0.3l-0.4,1.1l-0.1,1.7l0.1,1.2l0.3,1l1.4,0.2l1.1,0.2l1,0.2l1.6,0.1
					l1.4,0.1h0.9L262.4,771.8z"/>
				<path id="path2863" inkscape:connector-curvature="0" d="M260.4,763.8l-1.7,0.4l-1.7,0.4l-1.7,0.2l-0.9,0.2l-0.5,0.7l0.1,0.9
					l0.2,1.4l-0.4,1.2l0.2,1.3v0.8l0.2,0.3l1.8,0.1l1.8-0.1l1.3,0.1l1.7,0.1l2.5,0.1l1.3-0.1l2.8-0.3l2.1-0.3l1.1-0.1l1-0.3l0.2-1.2
					l-0.1-1.2l-0.1-1.6l0.3-1.2v-1l-0.7-0.6l-3.3-0.2h-3.6h-2.1l-1,0.1L260.4,763.8z M262.8,764.7l1.9,0.1l2.3,0.2l3.1,0.1l0.4,0.8
					l-0.3,1.6l0.2,1.5l-0.3,1.2l-1.1,0.1l-1.4,0.3h-1.5l-1.9,0.5l-1.4,0.3h-0.7l-0.6-0.2h-1.7l-2.3-0.1l-2.1-0.1l-0.3-0.4l0.1-0.8
					v-0.9l-0.1-1.1l0.2-1.2l0.4-0.4l1.1-0.4l1.5-0.3l1.9-0.5h0.2l0.1-0.1h0.7L262.8,764.7z"/>
			</g>
			<g id="g2906" transform="matrix(1.5546954,0,0,1.5546954,-55.175137,-345.56304)">
				<path id="path2895" inkscape:connector-curvature="0" class="st3" d="M234,728.2l-1.8,12.8l1.8,2.7l13.5-0.5l1.1-4.3l-1.6-11.2
					L234,728.2z"/>
				
					<path id="path2897" inkscape:connector-curvature="0" sodipodi:nodetypes="ccccccccccccccccccccccccccccccccccccccccccccccccccccccccccccccccccccccccccccccccccccccccccccccccccccccccccccccccccccccccccccccccccccccccccccccc" d="
					M241.9,726.5l-4.3,0.3l-2.1,0.2l-1.3,0.1l-0.9,0.2l-0.8,2.1l-1.1,2.6l-0.2,2.6l0.2,1.4l-0.2,1.8l-0.2,0.6l-0.3,1.5l0.9,2.1
					l0.3,0.8l1.1,1.4l1.7,0.5l1.7,0.2l1.2-0.2h2.4h1.1l2.6,0.2l2-0.3l1.8-0.6l1.1-1l0.2-0.8l0.7-1.3l0.6-1.5l-0.1-1.6l-0.6-2
					L249,734l-0.6-2.6l-0.1-1.7l-0.2-1.4l-0.3-1.2l-0.5-0.4l-1.1-0.1l-1.8-0.1H241.9z M243.4,728.1l1.2,0.1l1.2,0.3l0.6,0.6l0.2,0.4
					l0.2,1.8l0.3,1.4l0.3,1.1l0.1,1.2l0.1,0.8l0.3,1.6v1v1.3l-0.2,1.6l-0.2,0.4l-0.4,0.3l-0.8,0.2l-0.2-0.4l-0.1-0.5l-0.1-0.8
					l-0.3-1.1l-0.2-1.1l-0.1-1.4l-0.2-1.1l-0.1-0.9l-0.3-0.5l-0.7-0.1l-0.1,0.2l0.1,0.4l0.1,0.5v0.7v0.9l0.2,0.7l0.2,0.9l0.1,1.1
					l0.2,1l0.3,0.6l0.1,1.3h-0.1H245h-0.5h-0.7l-0.8,0.1l-0.1,0.1l-0.7,0.1l-0.7-0.2l-0.1-0.4l-0.1-0.5l-0.1-0.7l-0.2-0.9l-0.3-0.9
					v-0.9l0.1-0.9l0.1-1.2l0.1-0.6l0.1-0.8l-0.4-0.2h-0.6l-0.1,0.1l-0.1,0.4v0.5v0.8v1.1l0.1,0.9l0.1,1.5l0.4,1.3v1.3l-0.6,0.1v0.1
					h-0.6l-0.8,0.1l-0.8-0.2l0.1-0.6l-0.1-0.2v-0.5v-0.8l-0.2-0.8l0.1-0.6l0.4-0.6l0.1-1.2l0.1-0.9v-1.1l-0.9,0.2l-0.2,0.7l0.1,0.3
					l-0.2,1.1l-0.8,1.5l0.2,2.3l-0.3,1.1l-1-0.2l-1-0.4l-0.5-1.2l0.1-1.1l0.2-1.1l-0.2-1.6v-2.1l0.8-1.8L234,731l0.6-2.1h0.8
					l1.3-0.1h1.9l1.8-0.2l1.7-0.4L243.4,728.1z"/>
			</g>
			<g id="g2922" transform="matrix(-1.5546954,0,0,1.5546954,824.83909,-410.46549)">
				
					<path id="path2908" inkscape:connector-curvature="0" inkscape:original-d="m 279.5169,779.24035 c 1.38667,2.17367 1.22205,7.63779 1.22205,7.63779 0,0 -2.71963,0.94138 -4.13819,1.09579 -1.41403,0.15391 -4.26339,-0.17925 -4.26339,-0.17925 l -14.5118,-2.29134 c 0,0 -0.30571,-5.79554 -0.40691,-8.69542 -0.10316,-2.95615 -0.20411,-8.8715 -0.20411,-8.8715 l 11.60944,-0.45827 -0.91653,7.79055 c 0,0 3.73837,-0.66479 5.4992,-0.15275 2.35958,0.68615 4.78864,2.05274 6.11024,4.1244 z" inkscape:path-effect="#path-effect2850" sodipodi:nodetypes="acaccacccaa" class="st15" d="
					M279.5,779.2c1.5,2.2,1.9,5.1,1.2,7.6c-1.3,0.6-2.7,0.9-4.1,1.1c-1.4,0.2-2.9,0-4.3-0.2l-14.5-2.3c-0.2-2.9-0.3-5.8-0.4-8.7
					c-0.1-3-0.2-5.9-0.2-8.9l11.6-0.5l-0.9,7.8c1.8-0.5,3.7-0.6,5.5-0.2C275.9,775.7,278.1,777.1,279.5,779.2L279.5,779.2z"/>
				<path id="path2910" inkscape:connector-curvature="0" sodipodi:nodetypes="caaaaaaaaaaccccc" class="st1" d="M260.7,768.5
					c0,0,0.7,1.2,0.9,1.8c0.1,0.6,0,1.2,0,1.8s0.1,1.2,0.1,1.7c0,0.6,0.1,1.2,0.1,1.8c0,0.7,0,1.4,0,2.1c0,0.5,0.1,0.9,0.1,1.4
					c0,0.3,0.1,0.6,0.1,0.9c0,0.3,0.1,0.6,0.1,0.9c0,0.2,0,0.4,0,0.6c0,0.7,0.1,1.4,0.1,2.2c0,0.5,0,1.5,0,1.5l-0.1,0.4l-4.6-0.3
					l-0.3-17.4L260.7,768.5z"/>
				
					<path id="path2912" inkscape:connector-curvature="0" sodipodi:nodetypes="aaaaaaaaaaaaaaaaaaaaaaaaaaaaaaaaaaaaaaaaaaaaaaaaaaaaaaaaaaaaaaaaaaaaaaaaaaaaaaaaaaaaaaaaaaaaaaaaacaaaaaaaaa" d="
					M259.8,766.2c0.8,0,1.7,0.3,2.5,0.3s1.6-0.2,2.4-0.2c0.7,0,1.4,0,2.1,0c0.5,0,1,0.1,1.5,0.2c0.2,0,0.4,0.1,0.6,0.1
					c0.3,0,0.7-0.3,1-0.1c0.6,0.5,0.1,1.6,0.1,2.4c0,0.6-0.2,1.2-0.3,1.8c-0.1,0.4-0.3,0.7-0.3,1.1c0,0.4,0,0.8,0.2,1.1
					s0.7,0.4,1,0.5c0.4,0.2,0.9,0.2,1.4,0.3c0.4,0.1,0.8,0.1,1.2,0.2c0.4,0,0.8,0,1.1,0.1c0.5,0.1,1.1,0.3,1.6,0.6
					c0.4,0.2,0.6,0.5,1,0.7c0.4,0.3,0.9,0.4,1.3,0.7c0.5,0.3,1,0.6,1.5,1c0.3,0.3,0.5,0.8,0.8,1.2c0.2,0.4,0.4,0.7,0.6,1.1
					c0.2,0.4,0.4,0.9,0.6,1.3c0.2,0.5,0.4,1,0.6,1.6c0.1,0.5,0.2,1,0.3,1.6c0,0.6,0,1.1,0,1.7c0,0.5-0.1,1-0.2,1.5
					c-0.1,0.3-0.2,0.6-0.3,0.9c0,0,0,0.1-0.1,0.1c-0.3,0.4-0.8,0.6-1.3,0.8c-0.3,0.1-0.7,0.2-1,0.3c-0.6,0.2-1.2,0.4-1.8,0.5
					c-0.7,0.2-1.5,0.4-2.2,0.4c-0.6,0-1.2-0.2-1.8-0.3c-0.5-0.1-1-0.4-1.6-0.5c-0.4-0.1-0.9,0-1.3-0.1c-0.5-0.1-1-0.4-1.6-0.5
					c-0.7-0.1-1.4,0-2.1-0.1c-0.6-0.1-1.1-0.2-1.7-0.3c-0.7-0.1-1.3-0.2-2-0.3s-1.5-0.3-2.2-0.4c-0.4-0.1-0.7-0.1-1.1-0.1
					c-0.8-0.1-1.6-0.3-2.3-0.5c-0.2-0.1-0.3-0.1-0.5-0.2c-0.2-0.1-0.5-0.2-0.6-0.4c-0.4-0.6-0.1-1.4-0.2-2.1c0-1,0-2.1-0.1-3.1
					c0-1.1,0-2.2,0-3.3c0-0.8,0.2-1.5,0.2-2.3c0-0.6-0.1-1.3-0.1-1.9c0-0.9-0.1-1.7-0.1-2.6c0-0.5,0.1-1.1,0.1-1.6
					c0-0.3,0-0.6-0.1-0.9c0-0.4-0.1-0.8-0.1-1.2c0-0.1,0-0.3,0.1-0.4c0.4-0.4,1.1-0.3,1.7-0.4C258.7,766.1,259.2,766.2,259.8,766.2
					L259.8,766.2z M266.1,768.5c-0.6-0.1-1.1,0.4-1.7,0.5s-1.1,0.1-1.7,0.2c-0.5,0-0.9,0-1.4,0s-1,0.1-1.5,0.2c-0.1,0-0.2-0.1-0.3,0
					c-0.6,0.4-0.7,1.4-0.8,2.1c-0.1,0.5,0.1,0.9,0.2,1.4c0,0.6,0,1.2,0,1.8c0.1,0.7,0.2,1.3,0.3,2c0.1,0.6,0.2,1.1,0.2,1.7
					c-0.1,0.5-0.5,1-0.5,1.5c0,0.6,0.3,1.1,0.5,1.7c0.1,0.5,0.4,0.9,0.5,1.4c0,0.2,0,0.3,0,0.5c0.1,0.4,0.3,0.8,0.6,1.1
					c0.6,0.4,1.5,0.1,2.3,0.3c0.5,0.1,1,0.5,1.5,0.6c1.3,0.3,2.8,0.1,4.1,0.3c0.5,0.1,1,0.2,1.5,0.3c0.8,0.2,1.5,0.3,2.3,0.5
					c0.9,0.2,1.8,0.6,2.8,0.8c0.3,0,0.6,0,0.9,0c0.7-0.1,1.4-0.4,2.1-0.6c0.3-0.1,0.5-0.2,0.8-0.3c0.4-0.1,0.9-0.1,1.1-0.4
					c0.3-0.3,0.1-0.8,0.1-1.2s0.2-0.9,0.2-1.3c-0.1-0.7-0.6-1.2-0.9-1.9c-0.2-0.4-0.3-0.9-0.5-1.2c-0.2-0.4-0.6-0.7-0.9-1
					c-0.2-0.4-0.4-0.8-0.6-1.1s-0.5-0.5-0.8-0.7c-0.4-0.3-0.9-0.5-1.4-0.7c-0.6-0.2-1.3-0.3-1.9-0.4c-0.5-0.1-1-0.3-1.5-0.3
					c-0.4-0.1-0.8-0.1-1.2-0.1c-0.4,0-0.8,0-1.1,0.1c-0.2,0.1-0.5,0.2-0.7,0.3c-0.4,0.2-0.7,0.3-1.1,0.5c-0.3,0.2-0.6,0.4-0.9,0.6
					c-0.5,0.3-1.5,0.6-1.5,0.6s-0.3-0.5-0.3-0.7c0-0.4,0-0.9,0.3-1.1c0,0,0.1,0,0.2,0c0.3-0.2,0.3-0.6,0.5-0.9
					c0.2-0.3,0.4-0.6,0.6-0.9c0.3-0.5,0.6-1.1,0.8-1.7c0.1-0.5,0.1-1.1,0.2-1.7c0-0.5,0.4-1.1,0.2-1.5
					C267.2,768.8,266.6,768.6,266.1,768.5z"/>
				<path id="path2916" inkscape:connector-curvature="0" sodipodi:nodetypes="ccccccc" class="st14" d="M255.3,765.8l-0.3,5.4
					l8.9,0.2l7-0.7v-6l-9.9-0.2L255.3,765.8z"/>
				<path id="path2918" inkscape:connector-curvature="0" class="st12" d="M262.4,771.8l0.2-1.5l-0.2-0.9l0.2-1.6l-0.3-2.1V765
					l-0.1-0.5l-1.1-0.2l-2.2,0.4l-1.7,0.4l-1.5,0.5l-0.9,0.3l-0.4,1.1l-0.1,1.7l0.1,1.2l0.3,1l1.4,0.2l1.1,0.2l1,0.2l1.6,0.1
					l1.4,0.1h0.9L262.4,771.8z"/>
				<path id="path2920" inkscape:connector-curvature="0" d="M260.4,763.8l-1.7,0.4l-1.7,0.4l-1.7,0.2l-0.9,0.2l-0.5,0.7l0.1,0.9
					l0.2,1.4l-0.4,1.2l0.2,1.3v0.8l0.2,0.3l1.8,0.1l1.8-0.1l1.3,0.1l1.7,0.1l2.5,0.1l1.3-0.1l2.8-0.3l2.1-0.3l1.1-0.1l1-0.3l0.2-1.2
					l-0.1-1.2l-0.1-1.6l0.3-1.2v-1l-0.7-0.6l-3.3-0.2h-3.6h-2.1l-1,0.1L260.4,763.8z M262.8,764.7l1.9,0.1l2.3,0.2l3.1,0.1l0.4,0.8
					l-0.3,1.6l0.2,1.5l-0.3,1.2l-1.1,0.1l-1.4,0.3h-1.5l-1.9,0.5l-1.4,0.3h-0.7l-0.6-0.2h-1.7l-2.3-0.1l-2.1-0.1l-0.3-0.4l0.1-0.8
					v-0.9l-0.1-1.1l0.2-1.2l0.4-0.4l1.1-0.4l1.5-0.3l1.9-0.5h0.2l0.1-0.1h0.7L262.8,764.7z"/>
			</g>
			<g id="g2928" transform="matrix(1.5546954,0,0,1.5546954,-11.177492,-345.56304)">
				<path id="path2924" inkscape:connector-curvature="0" class="st1" d="M234,728.2l-1.8,12.8l1.8,2.7l13.5-0.5l1.1-4.3l-1.6-11.2
					L234,728.2z"/>
				
					<path id="path2926" inkscape:connector-curvature="0" sodipodi:nodetypes="ccccccccccccccccccccccccccccccccccccccccccccccccccccccccccccccccccccccccccccccccccccccccccccccccccccccccccccccccccccccccccccccccccccccccccccccc" d="
					M241.9,726.5l-4.3,0.3l-2.1,0.2l-1.3,0.1l-0.9,0.2l-0.8,2.1l-1.1,2.6l-0.2,2.6l0.2,1.4l-0.2,1.8l-0.2,0.6l-0.3,1.5l0.9,2.1
					l0.3,0.8l1.1,1.4l1.7,0.5l1.7,0.2l1.2-0.2h2.4h1.1l2.6,0.2l2-0.3l1.8-0.6l1.1-1l0.2-0.8l0.7-1.3l0.6-1.5l-0.1-1.6l-0.6-2
					L249,734l-0.6-2.6l-0.1-1.7l-0.2-1.4l-0.3-1.2l-0.5-0.4l-1.1-0.1l-1.8-0.1H241.9z M243.4,728.1l1.2,0.1l1.2,0.3l0.6,0.6l0.2,0.4
					l0.2,1.8l0.3,1.4l0.3,1.1l0.1,1.2l0.1,0.8l0.3,1.6v1v1.3l-0.2,1.6l-0.2,0.4l-0.4,0.3l-0.8,0.2l-0.2-0.4l-0.1-0.5l-0.1-0.8
					l-0.3-1.1l-0.2-1.1l-0.1-1.4l-0.2-1.1l-0.1-0.9l-0.3-0.5l-0.7-0.1l-0.1,0.2l0.1,0.4l0.1,0.5v0.7v0.9l0.2,0.7l0.2,0.9l0.1,1.1
					l0.2,1l0.3,0.6l0.1,1.3h-0.1H245h-0.5h-0.7l-0.8,0.1l-0.1,0.1l-0.7,0.1l-0.7-0.2l-0.1-0.4l-0.1-0.5l-0.1-0.7l-0.2-0.9l-0.3-0.9
					v-0.9l0.1-0.9l0.1-1.2l0.1-0.6l0.1-0.8l-0.4-0.2h-0.6l-0.1,0.1l-0.1,0.4v0.5v0.8v1.1l0.1,0.9l0.1,1.5l0.4,1.3v1.3l-0.6,0.1v0.1
					h-0.6l-0.8,0.1l-0.8-0.2l0.1-0.6l-0.1-0.2v-0.5v-0.8l-0.2-0.8l0.1-0.6l0.4-0.6l0.1-1.2l0.1-0.9v-1.1l-0.9,0.2l-0.2,0.7l0.1,0.3
					l-0.2,1.1l-0.8,1.5l0.2,2.3l-0.3,1.1l-1-0.2l-1-0.4l-0.5-1.2l0.1-1.1l0.2-1.1l-0.2-1.6v-2.1l0.8-1.8L234,731l0.6-2.1h0.8
					l1.3-0.1h1.9l1.8-0.2l1.7-0.4L243.4,728.1z"/>
			</g>
		</g>
	</g>
</g>
</svg>
