<?xml version="1.0" encoding="utf-8"?>
<!-- Generator: Adobe Illustrator 26.2.1, SVG Export Plug-In . SVG Version: 6.00 Build 0)  -->
<svg version="1.1"
	 id="svg8" inkscape:export-filename="E:\Ittle Scape\Media\ItsyScape\Equipment\Leather\MooishLeather.png" inkscape:export-xdpi="384" inkscape:export-ydpi="384" inkscape:version="0.92.2 (5c3e80d, 2017-08-06)" sodipodi:docname="MooishLeather.svg" xmlns:cc="http://creativecommons.org/ns#" xmlns:dc="http://purl.org/dc/elements/1.1/" xmlns:inkscape="http://www.inkscape.org/namespaces/inkscape" xmlns:rdf="http://www.w3.org/1999/02/22-rdf-syntax-ns#" xmlns:sodipodi="http://sodipodi.sourceforge.net/DTD/sodipodi-0.dtd" xmlns:svg="http://www.w3.org/2000/svg"
	 xmlns="http://www.w3.org/2000/svg" xmlns:xlink="http://www.w3.org/1999/xlink" x="0px" y="0px" viewBox="0 0 256 256"
	 style="enable-background:new 0 0 256 256;" xml:space="preserve">
<style type="text/css">
	.st0{fill:#A86843;}
	.st1{fill:#EABB8C;}
	.st2{fill:#855234;}
	.st3{fill:#734A2E;stroke:#000000;stroke-width:2;}
	.st4{fill:none;}
	.st5{fill:#DCA46C;}
	.st6{fill:#613F27;}
	.st7{fill:#CCCCCC;stroke:#000000;stroke-width:1.6684;}
	.st8{fill:#734A2E;}
	.st9{fill:#43251B;}
	.st10{fill:#8D5C39;}
	.st11{fill:#F7E5D4;}
	.st12{fill:#764529;}
	.st13{fill:#070604;}
	.st14{fill:#DCA46C;stroke:#000000;stroke-width:2.9993;stroke-miterlimit:4.3752;}
	.st15{fill:#A86843;stroke:#000000;stroke-width:1.9995;stroke-miterlimit:4.3752;}
	.st16{fill:none;stroke:#000000;stroke-width:1.9995;stroke-miterlimit:4.3752;}
	.st17{fill:#EABB8C;stroke:#000000;stroke-width:2.9993;stroke-miterlimit:4.3752;}
	.st18{fill:none;stroke:#000000;stroke-width:2.9993;stroke-miterlimit:4.3752;}
	.st19{fill:#734A2E;stroke:#000000;stroke-width:1.9995;stroke-miterlimit:4.3752;}
	.st20{fill:none;stroke:#000000;stroke-width:2.9993;stroke-linecap:round;stroke-miterlimit:4.3752;}
	.st21{fill:none;stroke:#000000;stroke-width:3.1603;}
	.st22{fill:none;stroke:#000000;stroke-width:2;}
	.st23{fill:none;stroke:#000000;stroke-width:2.8402;}
	.st24{fill:none;stroke:#000000;stroke-width:2.8402;stroke-linecap:round;}
	.st25{fill:none;stroke:#000000;stroke-width:3;}
	.st26{fill:#EABB8C;stroke:#000000;stroke-width:3;}
	.st27{fill:none;stroke:#000000;stroke-width:4;}
	.st28{fill:#855234;stroke:#000000;stroke-width:2;stroke-linecap:round;}
	.st29{fill:#613F27;stroke:#000000;stroke-width:2;}
	.st30{fill:#CCCCCC;stroke:#000000;stroke-width:2.0104;stroke-linecap:round;}
	.st31{fill:none;stroke:#000000;stroke-width:3;stroke-linecap:round;}
	.st32{fill:none;stroke:#000000;}
</style>
<defs>
	<inkscape:path-effect  effect="spiro" id="path-effect1069" is_visible="true"></inkscape:path-effect>
	<inkscape:path-effect  effect="spiro" id="path-effect1049" is_visible="true"></inkscape:path-effect>
	<inkscape:path-effect  effect="spiro" id="path-effect1020" is_visible="true"></inkscape:path-effect>
	<inkscape:path-effect  effect="spiro" id="path-effect1016" is_visible="true"></inkscape:path-effect>
	<inkscape:path-effect  effect="spiro" id="path-effect1000" is_visible="true"></inkscape:path-effect>
	<inkscape:path-effect  effect="spiro" id="path-effect986" is_visible="true"></inkscape:path-effect>
	<inkscape:path-effect  effect="spiro" id="path-effect982" is_visible="true"></inkscape:path-effect>
	<inkscape:path-effect  effect="spiro" id="path-effect2280" is_visible="true"></inkscape:path-effect>
	<inkscape:path-effect  effect="spiro" id="path-effect2274" is_visible="true"></inkscape:path-effect>
	<inkscape:path-effect  effect="spiro" id="path-effect2361" is_visible="true"></inkscape:path-effect>
	<inkscape:path-effect  effect="spiro" id="path-effect2349" is_visible="true"></inkscape:path-effect>
	<inkscape:path-effect  effect="spiro" id="path-effect2298" is_visible="true"></inkscape:path-effect>
	<inkscape:path-effect  effect="spiro" id="path-effect2239" is_visible="true"></inkscape:path-effect>
	<inkscape:path-effect  effect="spiro" id="path-effect2235" is_visible="true"></inkscape:path-effect>
	<inkscape:path-effect  effect="spiro" id="path-effect2850" is_visible="true"></inkscape:path-effect>
	<inkscape:path-effect  effect="spiro" id="path-effect8865" is_visible="true"></inkscape:path-effect>
	<inkscape:path-effect  effect="spiro" id="path-effect8851" is_visible="true"></inkscape:path-effect>
	<inkscape:path-effect  effect="spiro" id="path-effect5016" is_visible="true"></inkscape:path-effect>
	<inkscape:path-effect  effect="spiro" id="path-effect5004" is_visible="true"></inkscape:path-effect>
	<inkscape:path-effect  effect="spiro" id="path-effect1107" is_visible="true"></inkscape:path-effect>
	<inkscape:path-effect  effect="spiro" id="path-effect903" is_visible="true"></inkscape:path-effect>
	<inkscape:path-effect  effect="spiro" id="path-effect885" is_visible="true"></inkscape:path-effect>
	<inkscape:path-effect  effect="spiro" id="path-effect33" is_visible="true"></inkscape:path-effect>
	<inkscape:path-effect  effect="spiro" id="path-effect29" is_visible="true"></inkscape:path-effect>
	<inkscape:path-effect  effect="spiro" id="path-effect25" is_visible="true"></inkscape:path-effect>
	<inkscape:path-effect  effect="spiro" id="path-effect903-1" is_visible="true"></inkscape:path-effect>
	<inkscape:path-effect  effect="spiro" id="path-effect885-6" is_visible="true"></inkscape:path-effect>
	<inkscape:path-effect  effect="spiro" id="path-effect33-0" is_visible="true"></inkscape:path-effect>
	<inkscape:path-effect  effect="spiro" id="path-effect29-6" is_visible="true"></inkscape:path-effect>
	<inkscape:path-effect  effect="spiro" id="path-effect25-1" is_visible="true"></inkscape:path-effect>
	<inkscape:path-effect  effect="spiro" id="path-effect885-9" is_visible="true"></inkscape:path-effect>
	<inkscape:path-effect  effect="spiro" id="path-effect885-9-3" is_visible="true"></inkscape:path-effect>
	<inkscape:path-effect  effect="spiro" id="path-effect903-4" is_visible="true"></inkscape:path-effect>
	<inkscape:path-effect  effect="spiro" id="path-effect2235-4" is_visible="true"></inkscape:path-effect>
	<inkscape:path-effect  effect="spiro" id="path-effect2298-2" is_visible="true"></inkscape:path-effect>
	<inkscape:path-effect  effect="spiro" id="path-effect2349-4" is_visible="true"></inkscape:path-effect>
	<inkscape:path-effect  effect="spiro" id="path-effect1069-3" is_visible="true"></inkscape:path-effect>
</defs>
<sodipodi:namedview  bordercolor="#666666" borderopacity="1.0" id="base" inkscape:current-layer="layer1" inkscape:cx="248.57607" inkscape:cy="116.09576" inkscape:document-units="px" inkscape:lockguides="false" inkscape:pageopacity="0.0" inkscape:pageshadow="2" inkscape:snap-global="false" inkscape:window-height="1017" inkscape:window-maximized="1" inkscape:window-width="1920" inkscape:window-x="-8" inkscape:window-y="-8" inkscape:zoom="2" pagecolor="#ffffff" showgrid="false" showguides="true" units="px">
	</sodipodi:namedview>
<g id="layer1" transform="translate(0,-417.53331)" inkscape:groupmode="layer" inkscape:label="Layer 1">
	<g id="g951" transform="translate(0,-20)">
	</g>
	<g id="g3606">
		<path id="path3608" inkscape:connector-curvature="0" sodipodi:nodetypes="ccccccccccc" class="st0" d="M49.4,556.5l-4.9,19.8
			l2.3,25.9L62.4,616l22.1,4.4l19.2-7.8l7.3-18l-1.7-27.9l-9.9-12.8l-38.9,0.9L49.4,556.5z"/>
		<path id="path3670" inkscape:connector-curvature="0" sodipodi:nodetypes="aaaaaaaaaaaaaaaaaaaaa" class="st1" d="M99.1,615.4
			c-2.8,0.7-5.8,0-8.6-0.6c-2.4-0.5-5-1-6.8-2.6c-1.2-1-2.5-2.5-2.3-4.1c0.1-1,1.1-1.9,2-2.3c1.1-0.5,2.4,0.1,3.5,0.1
			c1.6,0,3.2,0.2,4.6-0.4c1.3-0.5,2.7-1.3,3.5-2.5c0.8-1.2,0.8-2.8,0.9-4.2c0.1-1.5-0.5-2.9-0.3-4.4c0.2-1.4,0.4-2.9,1.2-4
			c0.5-0.6,1.2-1,1.9-1.1c0.6-0.1,1.3,0,1.8,0.3c0.8,0.6,1,1.8,1.5,2.7c0.1,0.2,0.2,0.4,0.4,0.5c0.9,0.6,2.2,0.5,3.3,0.7
			c0.6,0.1,1.2,0.2,1.8,0.3c0.4,0.1,1,0.1,1.2,0.4c1.6,2.1,0.8,5.2,0.5,7.8c-0.4,3.1-0.9,6.5-2.9,8.9
			C104.6,613.3,101.8,614.7,99.1,615.4L99.1,615.4z"/>
		<path id="path3645" inkscape:connector-curvature="0" sodipodi:nodetypes="aaaaaaaaaaaaaa" class="st1" d="M85.7,564.3
			c-2.7-1-5.7-2.5-8.4-1.7c-1.1,0.3-2.3,1.2-2.6,2.3c-0.5,1.8,0.8,3.6,1.7,5.2c0.7,1.1,2.2,1.7,2.6,2.9c0.4,1.4-0.6,2.9-0.6,4.4
			c0.1,1.3-0.1,2.9,0.9,3.8c1.8,1.7,5,2.5,7.3,1.5c2-0.9,2.8-3.6,3.2-5.8c0.3-1.5-1.3-3.3-0.6-4.6c0.8-1.6,3.6-1.2,4.6-2.6
			c0.7-1,1.4-2.8,0.6-3.8c-1.4-1.7-4.5,0.3-6.7-0.3C87,565.3,86.4,564.6,85.7,564.3z"/>
		<path id="path3641" inkscape:connector-curvature="0" sodipodi:nodetypes="aaaaaaaaaaaaaaaaaaaa" class="st2" d="M67.1,560.3
			c-0.1,3.2-0.8,6.4-0.9,9.6c-0.1,3.7-0.5,7.4,0.3,11c0.4,1.9,1.6,3.5,2.3,5.2c0.5,1.2,1.1,2.5,1.5,3.8c0.5,1.8,0.3,3.7,0.9,5.5
			c0.5,1.6,1.5,3.1,2.3,4.6c1.1,1.8,2.5,3.4,3.5,5.2c0.9,1.6,1.9,3.2,2.3,4.9c0.3,1.1,0.7,2.4,0.3,3.5c-0.8,1.8-2.7,3.4-4.6,3.8
			c-5.4,1-10.7-2.6-15.7-4.9c-3.2-1.5-6.8-3-9-5.8c-3.6-4.4-5.3-10.3-6.1-16c-1.2-8.3-0.3-16.9,2-25c1.1-3.9,2.9-7.7,5.5-10.7
			c1.1-1.3,2.4-2.8,4.1-2.9c2.9-0.2,5.4,2.3,7.8,3.8c1.2,0.8,2.8,1.3,3.5,2.6C67.4,559,67.1,559.7,67.1,560.3L67.1,560.3z"/>
		<path id="path3622" inkscape:connector-curvature="0" d="M89.8,609l3.1-3.3l4.1-2.7l1.6-1.2l0.6-1.4l-5.1-2.9l-3.3-2.1l-3.5-2.1
			l-1-1.8l1.4-1.8l4.9-3.1l3.5-2.9l1.4-3.1l-5.5-2.9l-4.9-2.7l-3.7-1.6l-2.3-1.2l5.1-4.9l5.1-2.5l1.6-1.2l1.4-2.1l-0.8-1.2l-4.5,3.5
			l-4.1,2.9l-3.9,3.1l-2.5,2.7l-0.4,1l3.9,2.7l5.8,2.3l2.5,1.2l2.7,1.8l1,0.6l-3.1,3.7l-2.5,1.6l-1.4,1.4l-2.3,2.5l-0.6,1.8l1,2.1
			l2.5,1.2l3.5,2.5l2.5,1.2l0.8,1.4l-1.4,1.8l-4.5,4.1l-0.2,0.2v1.4L89.8,609z"/>
		<path id="path3543" inkscape:connector-curvature="0" d="M87.4,551.3l-7.6,0.3L68.5,553l-6.1,1.2l-6.4,1.2l-4.1,0.9l-3.5,0.6
			l-4.6,7.3l-0.9,6.1l-2,5.5l-0.9,6.7l0.3,4.6l0.9,4.6v2l1.2,6.7l4.1,7.6l5.8,6.1l7.8,4.4l5.5,0.3l6.1,2.3l6.7,1.5l7-0.3l6.4-0.6
			l6.1-1.5l7-4.1l4.6-6.7l2.9-4.1l1.2-10.5l1.2-11.6l-0.9-11l-3.8-7.6l-2-6.1l-1.5-2.9l-8.1-3.8L87.4,551.3z M68.8,557.4l9.6,0.9
			h12.5l6.7,1.2l4.6,6.1l1.2,7.3l2.6,9.3l0.6,14.8l-2,7l-5.8,5.8l-8.4,4.4l-8.4,1.2l-9-1.7l-12.5-2.6l-7-4.4l-3.5-6.1l-1.7-8.4
			L47.9,580l1.7-7l1.2-12.2l2.9-1.2l6.1-1.2L68.8,557.4z"/>
		<path id="path3535" inkscape:connector-curvature="0" class="st1" d="M49,558.8l24.1,4.1l11,1l17.4-4.6l4.4-2.8l-4.4-7.7l-25-4.4
			l-7.3,0.5l-18,7.2l-2.6,2.3L49,558.8z"/>
		<path id="path3530" inkscape:connector-curvature="0" sodipodi:nodetypes="aaaaaaaaaaaaaaaaaaaaaaaaaaaaaaaaaaaaaaaaaaaaaaaa" d="
			M79.1,542.9c-2.3-0.1-4.7-0.2-7,0.4c-1.5,0.3-2.7,1.3-4.1,1.8c-1.9,0.7-3.8,1.2-5.8,1.8c-2.5,0.8-4.8,2.1-7.4,2.5
			c-0.7,0.1-1.4-0.2-2.1,0c-1.9,0.7-3.6,2.2-4.5,4c-0.9,1.7-1.5,4.2-0.4,5.8c0.6,0.9,1.9,0.8,2.9,1.1c1.5,0.5,3,1.1,4.5,1.5
			c2.7,0.6,5.5,0.6,8.2,1.1c2.2,0.4,4.4,1.1,6.6,1.5c2.9,0.5,5.7,1.1,8.6,1.1c3.2,0,6.3-0.7,9.4-1.1c2.6-0.3,5.3-0.4,7.8-1.1
			c2.7-0.7,5.4-1.6,7.8-2.9c1.6-0.9,3.8-1.6,4.5-3.3c0.3-0.8-0.1-1.7-0.4-2.5c-0.1-0.3-0.3-0.5-0.4-0.7c-1.2-1.9-2-4-3.7-5.5
			c-0.7-0.6-1.6-0.8-2.5-1.1c-2-0.7-4.1-0.9-6.2-1.5c-1.7-0.4-3.3-1-4.9-1.5c-1.2-0.3-2.5-0.5-3.7-0.7C84,543.3,81.6,543,79.1,542.9
			z M81.3,545.9c1.3,0.1,2.5,0.5,3.8,0.8c2.7,0.5,5.5,0.8,8.1,1.5c1.9,0.5,3.8,1,5.5,2.1c1,0.6,1.9,1.4,2.6,2.3
			c0.8,0.9,2.1,1.9,2,3.1c0,0.8-0.8,1.4-1.5,1.8c-1.2,0.8-2.7,0.7-4.1,1c-2,0.5-3.8,1.3-5.8,1.8c-2.1,0.5-4.2,1-6.4,1.3
			c-1.9,0.3-3.9,0.6-5.8,0.5c-2.1-0.1-4.1-0.7-6.1-1c-2-0.3-4.1-0.5-6.1-0.8c-2.2-0.3-4.4-0.7-6.7-1c-2.6-0.4-5.3-0.3-7.8-1
			c-1.1-0.3-2.6-0.5-3.2-1.5c-0.3-0.6-0.1-1.5,0.3-2.1c0.8-1.2,2.4-1.7,3.8-2.3c1.3-0.6,2.7-0.9,4.1-1.3c0.9-0.2,1.8-0.2,2.6-0.5
			c0.8-0.3,1.5-0.9,2.3-1.3c2.1-1,4.1-2.3,6.4-2.8C73.3,545.5,77.4,545.6,81.3,545.9L81.3,545.9z"/>
		<path id="path3537" inkscape:connector-curvature="0" sodipodi:nodetypes="aaaaaaaaaaaaaaa" d="M85.4,545.9
			c2.3,0.4,4.4,1.4,6.4,2.3c0.9,0.4,1.8,1,2.6,1.5c1.3,0.9,2.7,1.7,3.8,2.8c0.4,0.4,0.7,0.8,0.9,1.3c0.3,0.7,0.8,1.5,0.3,2.1
			c-1,1-3,0.5-4.4,0c-1.6-0.7-2.3-2.4-3.5-3.6c-0.4-0.4-0.8-0.7-1.2-1c-0.9-0.7-1.9-1.4-2.9-2.1c-0.3-0.2-0.6-0.4-0.9-0.5
			c-1.1-0.6-2.2-1.4-3.5-1.8c-0.4-0.1-0.8-0.1-1.2-0.3c-0.5-0.2-1.6-0.3-1.5-0.8C80.9,544.5,83.8,545.6,85.4,545.9L85.4,545.9z"/>
		<path id="path3539" inkscape:connector-curvature="0" sodipodi:nodetypes="aaaaaaaaaaaaaaaaaaaa" d="M73.5,545.2
			c0.9,0.2,1.3,1.1,2,1.5c1.3,0.8,2.9,1.2,4.4,1.8c1,0.4,2,0.8,2.9,1.3c0.5,0.2,1,0.5,1.5,0.8c0.7,0.4,1.5,0.7,2,1.3
			c0.7,0.8,1.1,1.8,1.5,2.8c0.2,0.4,0.2,0.9,0.3,1.3c0.1,0.5,0.4,1.2,0,1.5c-0.9,0.8-2.5,0.5-3.8,0.3c-1.5-0.2-2.8-1-4.1-1.8
			c-0.7-0.4-1.3-0.8-1.8-1.3c-1-0.8-1.7-1.8-2.7-2.5c-0.3-0.2-0.6-0.4-0.8-0.5c-0.5-0.3-1.1-0.6-1.4-1.1c-0.4-0.5-0.3-1.3-0.8-1.8
			c-1.1-1.1-3-1.4-4.5-2c-0.3-0.1-1.1,0-1-0.4c0.2-1.5,3.4-0.6,5.1-0.9C72.6,545.4,73,545.1,73.5,545.2z"/>
		<path id="path3541" inkscape:connector-curvature="0" sodipodi:nodetypes="aaaaaaaaaaaaaaaaa" d="M60.4,548.7
			c1.4-0.2,2.8,0.4,4.1,0.7c0.8,0.2,1.7,0.4,2.5,0.7c0.8,0.3,1.7,0.7,2.5,1.1c0.8,0.4,1.6,0.9,2.3,1.5c0.5,0.5,0.9,1.1,1.2,1.6
			c0.4,0.6,0.7,1.2,1,1.8c0.2,0.3,0.7,0.6,0.6,0.9c-0.3,0.7-1.6,0.7-2.5,0.9c-1.2,0.2-2.6,0.6-3.7,0.2c-0.7-0.2-1-1-1.4-1.5
			c-0.7-0.7-1.2-1.6-2.1-2.2c-0.6-0.4-1.4-0.6-2.1-0.9c-1.1-0.5-2.3-1-3.5-1.3c-0.3-0.1-0.7-0.1-1-0.2c-0.7-0.3-1.8-0.4-1.8-1.1
			C56.5,549.7,58.9,549,60.4,548.7L60.4,548.7z"/>
		<path id="path3610" inkscape:connector-curvature="0" sodipodi:nodetypes="aaaaaaaaaaa" class="st3" d="M80.7,567.8
			c-0.8,0-1.6-0.1-2.3,0.3c-0.9,0.4-1.6,1.2-2,2c-0.4,0.8-0.5,1.8-0.3,2.6c0.2,1.1,0.8,2.3,1.7,2.9c1,0.6,2.3,0.4,3.5,0.3
			c0.9-0.1,1.9-0.3,2.6-0.9c0.6-0.5,1-1.3,1.2-2c0.2-1.2,0.1-2.5-0.6-3.5c-0.5-0.8-1.5-1.1-2.3-1.5
			C81.7,567.9,81.2,567.8,80.7,567.8L80.7,567.8z"/>
		<path id="path3612" inkscape:connector-curvature="0" class="st4" d="M98.2,576.2"/>
		<path id="path3614" inkscape:connector-curvature="0" sodipodi:nodetypes="aaaaaaaaa" class="st3" d="M96.1,575.8
			c-1.2,0.4-1.8,1.9-2.1,3.1c-0.4,1.5-0.4,3.5,0.6,4.7c0.9,1,2.5,1.3,3.9,1.2c1.3-0.1,2.6-0.7,3.5-1.6c0.9-1,1.7-2.5,1.4-3.9
			c-0.1-0.9-0.9-1.6-1.6-2.1c-0.8-0.5-1.8-0.4-2.7-0.6C98.2,576.3,97.1,575.4,96.1,575.8z"/>
		<path id="path3616" inkscape:connector-curvature="0" sodipodi:nodetypes="aaaaaaaaaaa" class="st3" d="M87.1,588.7
			c-1.2-0.5-2.7-1-3.9-0.4c-0.6,0.3-0.8,1.1-1,1.6c-0.6,1.2-1.4,2.4-1.2,3.7c0.2,1.1,0.9,2.1,1.8,2.7c1.4,0.9,3.3,1.2,4.9,0.8
			c1.1-0.2,2.4-0.8,2.9-1.8c0.5-1-0.2-2.2-0.4-3.3c-0.1-0.4-0.2-0.9-0.4-1.2c-0.5-0.6-1.2-1-1.8-1.4
			C87.6,589.1,87.4,588.8,87.1,588.7z"/>
		<path id="path3620" inkscape:connector-curvature="0" sodipodi:nodetypes="aaaaaaaaaa" class="st3" d="M90.6,606.2
			c-1,0.1-2.1-0.4-2.9,0.2c-0.9,0.7-1,2-1.2,3.1c-0.1,0.5-0.1,1,0,1.4c0.1,0.6,0,1.4,0.4,1.8c0.9,0.9,2.5,0.9,3.7,0.6
			c1-0.3,1.9-1.1,2.5-2.1c0.5-0.8,0.7-1.9,0.4-2.9c-0.3-1-0.9-2.1-1.8-2.5C91.3,605.8,90.9,606.1,90.6,606.2z"/>
		<path id="path3668" inkscape:connector-curvature="0" sodipodi:nodetypes="aaaaaaaaaaaaaaaaaaa" class="st5" d="M52,587
			c-0.3-1.4-0.8-3.2,0-4.4c0.9-1.4,3-1.9,4.6-1.7c1,0.1,1.9,1,2.6,1.7s1,1.9,1.7,2.6c0.8,0.8,2,1,2.9,1.7c0.7,0.6,1.4,1.2,1.7,2
			c0.5,1.4,0.5,3,0,4.4c-0.4,1-1.3,1.8-2,2.6c-0.9,1.2-1.9,2.4-2.9,3.5c-0.6,0.7-1.4,1.3-2,2c-0.7,0.8-1.3,1.7-2,2.6
			c-0.4,0.5-0.5,1.4-1.2,1.5c-1.8,0.1-3.1-2.4-3.8-4.1c-0.8-1.8-0.9-4-0.3-5.8c0.4-1.1,1.6-1.7,2.3-2.6c0.2-0.3,0.6-0.5,0.6-0.9
			c0.1-1-0.8-1.7-1.2-2.6C52.8,588.7,52.2,587.9,52,587L52,587z"/>
		<g id="g3639" transform="rotate(3.0513776,56.285871,579.88867)">
			<path id="path3618" inkscape:connector-curvature="0" sodipodi:nodetypes="aaaaaaaaa" class="st3" d="M100.4,597.3
				c-0.8-0.1-1.8,0.1-2.5,0.6c-0.7,0.6-0.9,1.6-1,2.5c-0.2,0.8-0.5,1.8,0,2.5c0.7,1.1,2.4,1.4,3.7,1.4c1.2,0,2.7-0.3,3.5-1.2
				c0.6-0.7,0.7-1.9,0.4-2.9c-0.2-0.7-0.7-1.2-1.2-1.6C102.5,597.9,101.5,597.4,100.4,597.3L100.4,597.3z"/>
			<path id="path3633" inkscape:connector-curvature="0" class="st6" d="M42.6,598.3l2.2,8.6l34.6-1l34.7-3.9l0.7-6.5l-30.4,3
				L42.6,598.3z"/>
			
				<path id="path3624" inkscape:connector-curvature="0" sodipodi:nodetypes="aaaaaaaaaaaaaaaaaaaaaaaaaaaaaaaaaaaaaaaaaaaaaaaaaaaaaaaaa" d="
				M115.3,594.2c-1.4-0.8-3.3,0.1-4.9,0.3c-3.2,0.3-6.4,1-9.5,1.3c-4.5,0.5-8.9,1.3-13.4,1.3c-3.9,0.1-7.7-0.6-11.6-0.7
				c-4.5-0.1-8.9,0.4-13.4,0.4c-3.3,0-6.6-0.5-9.8-0.3c-3.9,0.2-9.3-1.7-11.6,1.5c-0.6,0.8,0.4,1.9,0.6,2.9c0.1,0.8,0,1.6,0.3,2.3
				c0.6,1.7,1.2,3.6,2.6,4.6c0.5,0.3,1.2,0.2,1.7,0.3c2,0.2,4.1,0.1,6.1,0c1.5-0.1,2.9-0.5,4.4-0.6c2.6-0.2,5.2,0,7.8,0
				c3,0,6,0,9-0.3c3.3-0.3,6.6-1.1,9.9-1.5c2.5-0.3,5-0.5,7.6-0.6c3.9-0.1,7.8,0.2,11.6,0c2.7-0.1,5.5-0.3,8.1-0.9
				c1.6-0.3,3.4-0.4,4.6-1.5c0.5-0.5,0.7-1.3,0.9-2c0.2-0.6,0.2-1.2,0.3-1.7c0.1-0.9,0.2-1.8,0-2.6
				C116.3,595.7,116.1,594.7,115.3,594.2z M109.4,597.1c1.4-0.2,3.2-0.9,4.2,0c0.4,0.3,0.3,1,0.2,1.5c-0.1,0.7-0.3,1.6-0.8,2.1
				c-0.3,0.3-0.9,0.3-1.3,0.4c-1.4,0.3-2.7,0.5-4.1,0.7c-1.3,0.2-2.7,0.2-4,0.3c-2.1,0.1-4.1,0.2-6.2,0.4c-2,0.2-4,0.4-6,0.6
				c-2.1,0.2-4.2,0.2-6.3,0.5c-1.3,0.2-2.6,0.6-3.9,0.8c-1.3,0.2-2.6,0.4-3.9,0.5c-1.6,0.1-3.1,0-4.7,0c-1.8,0.1-3.6,0.3-5.4,0.3
				c-1.4,0-2.7,0-4.1,0c-2.2,0-4.5,0-6.7,0.1c-1,0.1-1.9,0.2-2.9,0.3c-1.9,0.1-3.9,0.4-5.8,0.1c-0.7-0.1-1.5-0.2-2-0.7
				c-0.6-0.6-0.7-1.5-0.8-2.4c-0.1-0.8-0.3-1.7,0.2-2.4c0.2-0.3,0.7-0.4,1.1-0.5c1.2-0.4,2.5-0.5,3.7-0.7c0.2,0,0.3-0.1,0.5-0.1
				c1-0.1,1.9,0.2,2.9,0.2c2.1,0.1,4.2,0,6.4,0c3.1,0,6.2-0.1,9.3-0.1c3.5,0,7,0.2,10.5,0.3c2.9,0.1,5.8,0.3,8.6,0.2
				c3.1-0.1,6.2-0.6,9.2-0.9c2.6-0.2,5.2-0.3,7.8-0.7C106.6,597.8,108,597.3,109.4,597.1L109.4,597.1z"/>
			<path id="path3626" inkscape:connector-curvature="0" sodipodi:nodetypes="aaaaaaaaaaaaa" class="st7" d="M100.6,595.8
				c1.1,0.9,0.1,2.8,0.2,4.1c0.1,1.2,0.4,2.4,0.5,3.6c0,0.5,0.3,1.1,0,1.5c-0.9,1-2.7,0.1-4.1,0.2c-1,0.1-1.9,0.1-2.9,0.2
				c-0.9,0.1-1.9,0.8-2.8,0.4c-1.2-0.5-1.8-1.9-2.2-3.1c-0.5-1.2-0.4-2.6-0.3-3.9c0-0.7-0.1-1.6,0.3-2.1c1.1-1.1,3.1-0.7,4.6-0.9
				c1.4-0.1,2.9,0.2,4.3,0.2C99,596.1,99.9,595.3,100.6,595.8z"/>
		</g>
		<path id="path3643" inkscape:connector-curvature="0" sodipodi:nodetypes="aaaaaaaaaaaaaaaaa" d="M90.9,600.5
			c0.3-0.5,1.1-0.3,1.7-0.3c1.1-0.1,2.1,0.1,3.2,0.3c0.3,0,0.7,0,0.8,0.2c0.7,0.8,0.4,2,0.3,3.1c-0.1,0.6-0.1,1.3-0.5,1.7
			c-0.3,0.3-0.8,0.1-1.2,0.2c-0.7,0-1.4,0-2.1,0c-0.5-0.1-1,0-1.4-0.3s-0.9-0.9-0.6-1.3c0.4-0.5,1.3,0,1.9,0c0.4,0,0.7-0.1,1.1-0.1
			c0.4,0,0.9,0.3,1.2,0.1c0.4-0.4,0.4-1.4,0-1.9c-0.6-0.6-1.8-0.2-2.6-0.2c-0.5,0-1,0.5-1.4,0.3C90.9,601.8,90.6,600.9,90.9,600.5
			L90.9,600.5z"/>
	</g>
	<g id="g3968" transform="translate(0,-20)">
		<g id="g3598">
			
				<path id="path2278" inkscape:connector-curvature="0" inkscape:original-d="m 118.70905,511.90005 c 0,0 0.61097,7.44448 0,11.09047 -0.69414,4.14234 -4.10758,11.91198 -4.10758,11.91198 0,0 -28.984303,4.22627 -43.540345,3.69682 -8.728135,-0.31747 -25.877751,-4.10758 -25.877751,-4.10758 0,0 -1.534731,-4.03857 -1.643031,-6.16137 -0.176624,-3.46202 1.643031,-10.26894 1.643031,-10.26894 0,0 27.420108,4.25726 41.075795,2.8753 11.171161,-1.13052 32.449881,-9.03668 32.449881,-9.03668 z" inkscape:path-effect="#path-effect2280" sodipodi:nodetypes="cacacacac" class="st0" d="
				M118.7,511.9c0.6,3.7,0.6,7.4,0,11.1c-0.7,4.2-2.1,8.2-4.1,11.9c-14.2,3.4-29,4.7-43.5,3.7c-8.7-0.6-17.4-2-25.9-4.1
				c-0.9-1.9-1.4-4-1.6-6.2c-0.4-3.5,0.2-7.1,1.6-10.3c13.4,3.5,27.4,4.5,41.1,2.9C97.5,519.6,108.4,516.5,118.7,511.9L118.7,511.9z
				"/>
			<path id="path3511" inkscape:connector-curvature="0" sodipodi:nodetypes="caacccccccccc" class="st2" d="M73.6,521.6
				c0,0-0.8,3.7-0.8,5.6c0,2.3,1,4.5,0.8,6.7c-0.1,1.2-1,3.4-1,3.4h-2.5H54.9l-3.8-1.7l-7-1.6l-0.2-7.3l0.9-8.8l8.9,0.3l16,3.2
				L73.6,521.6z"/>
			<path id="path3462" inkscape:connector-curvature="0" d="M120.1,509.8l-1.4,0.8l-2.3,0.6l-3.5,1.4l-5.3,1.8l-6.4,1.4l-4.9,1.8
				l-7,1.2h-8.8l-9,0.4l-4.7-0.6l-7.2-1.2l-7.8-0.8l-6.6-1.6l-0.8,0.2l-1.6,2.1l-0.2,2.1l-1,3.3l0.2,4.3l0.6,5.8l1.2,1.6l2.7,2.3
				l6,1.2l7.2,1l10.1,1l8,0.8l6.2-0.2l6.2-0.4L98,540l9.2-1.6l8-1.4l1.2-1.2l2.7-3.9l1.4-4.9v-6.8l0.6-6.2L120.1,509.8z M116.9,515
				l1.2,0.8v0.8v2.7l-0.8,3.1l-1.2,3.9l-0.2,6.4l-0.8,0.8l-2.7,0.8l-3.7,0.6l-5.5,1l-6.8,0.8l-6,0.4l-8.8,0.2l-6.2-0.4l-8.2-0.4
				l-6.4-0.6l-5.8-1.4l-8-1l-0.6-1l-0.8-2.3l-0.4-4.3l0.6-3.5l0.8-2.7l2.5,0.8l2.5,0.2l6.8,1l10.3,1.2l10.1,0.2h8.6l6.2-0.8l6.6-1.4
				l7-3.7L116.9,515z"/>
			<path id="path3509" inkscape:connector-curvature="0" sodipodi:nodetypes="caaaaaaaaaaaaacc" class="st1" d="M92.4,537.9
				c0,0-4.4-2.1-4.4-4.1c0-1.6,2.2-2.6,3.8-3.2c1.5-0.5,3.1,0.3,4.6,0c1.3-0.2,2.7-0.6,3.8-1.5c1.2-1,1.5-2.9,2.6-4.1
				c0.7-0.7,1.4-1.4,2.3-1.7c1.3-0.5,2.8-1.1,4.1-0.6c0.6,0.3,1,1.1,1.2,1.7c0.3,1.1,0.2,2.3,0,3.5c-0.1,0.6-0.6,1.1-0.6,1.7
				c0,0.7,0.3,1.5,0.9,2c0.7,0.6,1.8,0.4,2.6,0.9c0.6,0.4,1.6,0.8,1.5,1.5c-0.3,1.6-4.4,2-4.4,2L92.4,537.9z"/>
		</g>
		<g id="g3563" transform="translate(0,-8)">
			<path id="path3490" inkscape:connector-curvature="0" class="st1" d="M40.4,494.3l2.9-3.8l7,3.2l11.3,3.8l13.4,2.3v5.2l-6.1,13.1
				l-1.7,21.2l-4.9,1.7L34.9,537l-0.9-6.1L33.7,519L40.4,494.3z"/>
			<path id="path3478" inkscape:connector-curvature="0" d="M42.3,489c-0.9,0-1.7,0.6-2.3,1.2c-0.8,0.7-1.3,1.7-1.7,2.6
				c-1.1,2.2-1.6,4.6-2.3,7c-0.8,2.7-1.4,5.4-2,8.1c-0.6,2.6-1.4,5.2-1.7,7.8c-0.4,3.8,0,7.7,0,11.6c0,2.7-1.1,5.7,0,8.1
				c0.6,1.4,2.1,2.4,3.5,3.2c0.6,0.3,1.3,0.5,2,0.6c1.2,0.2,2.5-0.1,3.8,0c1.7,0.1,3.3,0.5,4.9,0.9c2.2,0.5,4.4,1.3,6.7,1.7
				c2.1,0.4,4.3,0.5,6.4,0.6c2.2,0.1,4.7,0.7,6.7-0.3c0.9-0.4,1.6-1.4,2-2.3c0.8-1.6,0.9-3.5,1.2-5.2c0.4-2.8,0.4-5.6,0.6-8.4
				c0.1-2.5-0.3-5.1,0.3-7.6c0.6-2.3,2.2-4.2,3.2-6.4c1.2-2.8,2.7-5.5,3.2-8.4c0.3-1.9,1.2-4.3,0-5.8c-0.9-1.1-2.7-0.7-4.1-0.9
				c-2.9-0.5-5.8-0.4-8.7-0.9c-3.4-0.6-6.6-1.5-9.9-2.6C49.9,492.3,46.5,488.8,42.3,489z M44.5,492.9c1.8,0.1,3.5,2.4,5.3,3
				c2.1,0.7,4.3,0.9,6.4,1.5c1.3,0.3,2.5,0.9,3.8,1.2c1.3,0.3,2.7,0.4,4.1,0.6c1.5,0.2,3.1,0.2,4.6,0.6c1.2,0.3,2.9,0.1,3.5,1.2
				c0.8,1.6-1.1,3.3-1.7,4.9c-0.8,2.1-2,4-2.6,6.1c-0.5,1.8-0.7,3.7-0.9,5.5c-0.3,2.4-0.3,4.8-0.6,7.3c-0.2,2.2-0.4,4.5-0.9,6.7
				c-0.4,1.8-0.1,4-1.5,5.2c-0.8,0.7-2.1,0.6-3.2,0.6c-2.2,0.1-4.4-0.8-6.7-0.9c-3.9-0.2-7.8,1-11.6,0.6c-1.8-0.2-3.7-0.5-5.2-1.5
				c-0.8-0.5-1.6-1.2-2-2c-1.5-3-1.4-6.5-1.5-9.9c0-2.1,0.5-4.3,0.9-6.4c0.5-2.4,1.1-4.9,1.7-7.3c0.5-1.8,1-3.5,1.7-5.2
				c0.9-2.2,2.2-4.2,3.2-6.4c0.4-0.9,0.8-1.7,1.2-2.6c0.2-0.5,0.4-1,0.6-1.5c0.2-0.4,0.2-1,0.6-1.2C44,493,44.3,492.9,44.5,492.9z"
				/>
			<path id="path3492" inkscape:connector-curvature="0" sodipodi:nodetypes="aaaaaaaaaaaaaaaa" d="M49.7,499.8
				c-2,1.4-1.6,4.6-2.3,7c-0.8,2.7-1.4,5.4-2,8.1c-0.5,2-1.1,4-1.5,6.1c-0.4,1.9-0.7,3.9-0.9,5.8c-0.1,0.8-0.4,1.7,0,2.3
				c0.5,0.7,1.5,1,2.3,0.9c1-0.1,1.9-0.9,2.3-1.7c0.9-1.7,0-3.9,0.3-5.8c0.2-1.9,0.8-3.7,1.2-5.5c0.4-2.3,0.4-4.7,1.2-7
				c0.4-1.2,1.3-2.3,1.7-3.5c0.5-1.3,0.6-2.7,0.9-4.1c0.1-0.6,0.6-1.2,0.3-1.7c-0.4-0.7-1.5-0.7-2.3-0.9
				C50.4,499.8,50,499.6,49.7,499.8z"/>
			<path id="path3494" inkscape:connector-curvature="0" sodipodi:nodetypes="aaaaaaaaaaaaaaa" d="M61.9,502.5
				c-0.7-0.6-2-0.3-2.6,0.3c-2.4,2.3-0.8,6.6-1.2,9.9c-0.3,2.2-0.6,4.5-0.9,6.7c-0.2,1.8-0.3,3.7-0.6,5.5c-0.1,1-0.8,1.9-0.6,2.9
				c0.2,0.9,0.7,1.8,1.5,2.3c0.7,0.5,1.9,0.8,2.6,0.3c0.6-0.5,0.2-1.5,0.3-2.3c0-0.7,0-1.4,0-2c0-1.1,0-2.1,0-3.2
				c0-1.3,0.1-2.5,0.3-3.8c0.2-1.8,0.6-3.7,0.9-5.5c0.3-1.6,0.8-3.1,0.9-4.6C62.5,506.7,63.5,503.8,61.9,502.5z"/>
		</g>
		<g id="g3569" transform="translate(0,-8)">
			
				<path id="path2272" inkscape:connector-curvature="0" inkscape:original-d="m 44.772616,484.99541 c 4.923595,-7.61337 12.998323,-13.33432 21.359414,-16.84107 7.000517,-2.93611 15.064574,-3.86047 22.591687,-2.87531 7.916186,1.03608 15.770453,4.27797 22.180933,9.03667 2.97038,2.20501 6.98288,8.62592 6.98288,8.62592 0,0 -1.36124,5.5045 -3.28606,7.39364 -4.7732,4.68473 -11.96333,6.31794 -18.48411,7.80441 -10.959582,2.49833 -22.492868,2.71728 -33.682152,1.64302 -6.875688,-0.66012 -20.127139,-4.92909 -20.127139,-4.92909 0,0 0.625159,-7.01394 2.464547,-9.85819 z" inkscape:path-effect="#path-effect2274" sodipodi:nodetypes="aaaacaaaca" class="st0" d="
				M44.8,485c2-4.2,5.2-7.8,9-10.5c3.7-2.8,8-4.8,12.4-6.3c7.2-2.5,15-3.6,22.6-2.9c8.1,0.8,16.1,3.7,22.2,9c2.8,2.5,5.2,5.4,7,8.6
				c-0.4,2.7-1.5,5.3-3.3,7.4c-2.2,2.6-5.3,4.4-8.5,5.6s-6.6,1.7-10,2.2c-11.1,1.7-22.5,2.9-33.7,1.6c-6.9-0.8-13.7-2.4-20.1-4.9
				C42.4,491.4,43.3,488.1,44.8,485L44.8,485z"/>
			<path id="path3460" inkscape:connector-curvature="0" sodipodi:nodetypes="aaaaaaaaaaaaa" class="st2" d="M72.9,479.9
				c-0.5,1.8-1.9,3.2-2.9,4.7c-0.7,1.2-1.5,2.4-2.3,3.5c-0.8,1.1-1.8,2.1-2.5,3.3c-0.4,0.7-0.7,1.5-1,2.3c-0.3,0.7-0.3,1.4-0.6,2.1
				c-0.3,0.7-0.5,1.7-1.2,2.1c-2.9,1.6-6.6,0.2-9.9-0.4c-3.4-0.6-8.4,0-9.9-3.1c-2.3-5,2.9-11.1,6.6-15.2c3.8-4.3,9.7-6.4,15-8.8
				c2.8-1.3,6.3-4.9,8.8-3.1C76.6,469.6,74.1,475.8,72.9,479.9z"/>
			<path id="path3456" inkscape:connector-curvature="0" sodipodi:nodetypes="aaaaaaaaaaaaaaaa" class="st1" d="M60,469.4
				c-2.7,1.8-5.5,4.6-5.8,7.8c-0.1,1.5,0.7,3.4,2.1,4.1c3,1.7,6.8-0.6,10.3-0.8c1.8-0.1,3.6-0.8,5.3-0.4c1.6,0.4,2.7,1.7,4.1,2.5
				c1.9,1.1,3.5,3.3,5.8,3.3c1.7,0,3.6-1,4.5-2.5c1-1.6-0.4-4,0.4-5.8c0.7-1.5,2.2-2.5,3.7-3.3c1.1-0.6,2.5-0.6,3.7-0.8
				c0.7-0.1,1.4-0.1,2.1-0.4c1.5-0.8,4-2,3.7-3.7c-0.7-3.5-6.4-3.5-9.9-4.1c-5.1-1-10.5-0.3-15.6,0.4
				C69.4,466.4,64.1,466.6,60,469.4L60,469.4z"/>
			
				<path id="path2282" inkscape:connector-curvature="0" sodipodi:nodetypes="aaaaaaaaaaaaaaaaaaaaaaaaaaaaaaaaaaaaaaaaaaaaaaaaaaaaaaaaaaaaaa" d="
				M87.9,461c-2.5-0.1-5.1,0.2-7.6,0.6c-1.3,0.2-2.6,0.5-3.9,0.8c-1.9,0.4-3.8,0.8-5.8,1.2c-1.6,0.3-3.3,0.6-4.9,1
				c-1.3,0.3-2.6,0.6-3.9,1c-1.6,0.6-3.1,1.2-4.5,2.1c-1.4,0.8-2.5,2-3.9,2.9c-1.4,0.8-3,1.1-4.3,2.1c-1.3,0.9-2.4,2.3-3.5,3.5
				c-0.8,0.9-1.8,1.7-2.5,2.7c-1.3,1.9-2.1,4-2.9,6.2c-0.6,1.7-1.1,3.4-1.2,5.1c-0.2,2.3-0.7,4.8,0.4,6.8c0.2,0.3,0.5,0.5,0.8,0.6
				c1.1,0.6,2.3,0.8,3.5,1.2c1.4,0.5,2.8,1.2,4.3,1.6c2,0.6,4.1,1.1,6.2,1.4c2.7,0.4,5.5,0.5,8.2,0.6c3.1,0.2,6.3,0.4,9.4,0.4
				c2.1,0,4.1-0.1,6.2-0.2c3-0.1,6,0.1,9-0.2c2.8-0.2,5.5-0.7,8.2-1.2c2-0.4,4-0.7,6-1.2c2.2-0.6,4.3-1.3,6.4-2.3
				c2.6-1.2,5.1-2.4,7.4-4.1c1.4-1,2.7-2.1,3.7-3.5c1.1-1.6,2.4-3.4,2.5-5.3c0-1.1-0.7-2.1-1.2-3.1c-0.8-1.5-1.9-2.8-2.9-4.1
				c-0.9-1.2-1.8-2.3-2.7-3.5c-0.8-1-1.4-2.2-2.3-3.1c-1.6-1.6-3.4-2.9-5.3-3.9c-1.7-0.9-3.7-1.3-5.5-2.1c-2.1-0.9-4-2.4-6.2-3.1
				C92.8,461.3,90.3,461,87.9,461z M84.8,469.2c2.9,0,5.8-0.2,8.6,0.6c2.9,0.8,5.3,2.9,8,4.1c2.7,1.2,5.9,1.7,8.4,3.3
				c2.5,1.6,5.7,3.3,6.4,6.2c0.1,0.4-0.3,0.7-0.4,1c-0.1,0.3-0.3,0.6-0.4,0.8c-0.6,0.9-1.1,1.9-1.8,2.7c-1.1,1.1-2.4,1.8-3.7,2.7
				c-1.9,1.2-3.7,2.5-5.8,3.3c-2.2,0.9-4.5,1.2-6.8,1.6c-2.6,0.5-5.2,0.7-7.8,1c-3.2,0.5-6.4,1.3-9.7,1.4c-3.5,0.2-7,0.1-10.5-0.4
				c-2.5-0.4-4.9-1.4-7.4-1.8c-4.5-0.9-9.1-0.9-13.6-1.8c-0.9-0.2-2.1-0.1-2.7-0.8c-0.3-0.4-0.1-1,0-1.4c0.2-1.7,0.8-3.3,1.4-4.9
				c0.7-1.9,1.3-3.9,2.7-5.3c0.5-0.6,1.4-0.8,2.1-1.2c1.1-0.8,2-1.9,3.1-2.9c1.3-1.2,2.6-2.6,4.1-3.5c2.6-1.5,5.7-2.4,8.6-3.1
				c2.3-0.5,4.6-0.6,7-0.8C78.1,469.5,81.5,469.2,84.8,469.2z"/>
		</g>
		<g id="g3577" transform="translate(0,-8)">
			<path id="path3485" inkscape:connector-curvature="0" class="st8" d="M71.2,496.6l-1.5,4.9l0.9,2.1l0.9,1.7l2,1.2l3.4,0.3
				l3.4-0.8l2.1-1.7l0.6-3.6l-0.3-3.8l-0.5-1.4l-4.6-0.3l-2.7,0.8L71.2,496.6z"/>
			<path id="path3482" inkscape:connector-curvature="0" sodipodi:nodetypes="aaaaaaaaaaaaaaaaaaaaaa" d="M79,493.7
				c-1.6,0.1-3.1,0.7-4.6,0.9c-0.4,0-0.8-0.1-1.2,0c-1.2,0.4-2.4,1-3.2,2c-0.8,1-1.2,2.3-1.2,3.5c0,1.8,0.6,3.8,1.7,5.2
				c0.8,1.1,2.1,2,3.5,2.3c2,0.5,4.1-0.3,6.1-0.9c1.2-0.4,2.8-0.7,3.5-1.7c1.2-1.8,0.7-4.3,0.6-6.4c-0.1-1.7,0.4-3.9-0.9-4.9
				C82.2,492.8,80.4,493.6,79,493.7z M80.2,496.1c0.7,0.3,0.8,1.3,0.9,2c0.3,2,0.6,4.4-0.6,6.1c-0.6,0.8-1.7,1-2.6,1.2
				c-0.9,0.2-2,0.2-2.9,0c-1.5-0.4-3.4-0.9-4.1-2.3c-0.4-0.9,0-2,0.3-2.9c0.3-0.9,0.7-1.8,1.5-2.3c1.2-0.8,2.9-0.5,4.4-0.9
				C78,496.7,79.2,495.6,80.2,496.1z"/>
		</g>
	</g>
	<g id="g3726" transform="translate(40)">
		<g id="g3699">
			<path id="path3680" inkscape:connector-curvature="0" class="st6" d="M6.2,632.5l-1,9.9l2.3,18.5L14,662l17.5,1.4l5.3-3.1
				l-1.4-12.9l-6-0.8l-10.5,3.3l4.1-18.5l-2.3-3.1L8.8,630l-2.3,1.6L6.2,632.5z"/>
			<path id="path3687" inkscape:connector-curvature="0" class="st9" d="M10.3,630.2l-0.2,4.9v2.3l0.4,4.9l-0.2,4.9l-0.2,1.2v3.3
				v2.3l0.2,2.5l0.6,4.7l-4.7-2.5l-1.2-25.7L10.3,630.2z"/>
			<path id="path3689" inkscape:connector-curvature="0" class="st10" d="M31.8,647.5l-1.4,0.4l-3.1,2.3l-3.3,3.3l-0.2,2.7l1,3.1
				l1.2,1.8l2.5,1.8l2.9,0.2l4.3-1.4l1.4-2.7l-0.2-7.2l-1.8-3.9l-1.8-0.4l-0.6-0.2L31.8,647.5z"/>
			<path id="path3682" inkscape:connector-curvature="0" d="M18.6,631.3l-0.8,1.4l-0.4,2.4l-0.8,2l-0.2,0.5l-1.1,0.5l-2.1-1.6
				l-1.5-2l-1.1-1.4l-1.3-0.5l-0.2,3.9l2.3,2l1.7,1.9l0.6,0.5l-0.6,0.5l-1.7,1.9l-2.3,2l0.2,3.9l1.3-0.5l1.1-1.4l1.5-2l2.1-1.6
				l1.1,0.5l0.2,0.5l0.8,2l0.4,2.4l0.8,1.4l1.5-0.9l-0.4-3.1l-0.4-2.8l-1.9-2.7l1.9-2.7l0.4-2.8l0.4-3.1L18.6,631.3z"/>
			
				<path id="path3672" inkscape:connector-curvature="0" sodipodi:nodetypes="ccccccccccccccccccccccccccccccccccccccaaaaaaaaaaaaaaaaaaaaaaaaaaaaaaaaaaaaaa" d="
				M19.3,627.4l-5.2,0.6l-3.6,0.6l-5.9,2.3l-1,5.5l0.5,3.7l0.7,5.5l0.2,4.9l0.2,4.7l0.5,4.7l1.6,2.3l1.6,0.2l4.2,0.4h3.2l6.2,0.8
				l4.9,0.6l6.2-0.4l3.1-2l1.5-2l0-1.6l0.4-2.4v-0.9l-1.2-4.9v-1.7l-2.9-2.3l-2.9-0.9l-3.9,0.9l-1.3,0.6l-5.2,2l0.1-1.3l0.3-3.4
				l0.7-1.4l0.7-3.2l0.7-0.9l1.3-2.9l0.3-5.5l-2.3-2.6H19.3z M19.4,629.6c0.5,0.2,0.6,0.9,0.8,1.4c0.3,0.8,0.5,1.6,0.6,2.5
				c0.1,0.9,0,1.8-0.2,2.7c-0.2,1.1-0.6,2.1-1,3.1c-0.4,1.2-1.1,2.3-1.4,3.5c-0.3,1.2-0.1,2.5-0.5,3.6c-0.3,0.7-0.7,1.3-1.2,1.8
				c-0.6,0.7-2,0.8-2.2,1.7c-0.1,0.7,0.4,1.6,1,1.8c0.6,0.3,1.4-0.3,2.1-0.4c1-0.2,2-0.6,3.1-0.8c0.4-0.1,0.8-0.1,1.2-0.2
				c1.1-0.2,2.2-0.2,3.3-0.4c1.3-0.3,2.4-0.8,3.7-1c1-0.2,2.1-0.4,3.1-0.2c0.7,0.2,1.4,0.5,1.8,1c1,1.1,1.6,2.5,2,4
				c0.3,1.1,0.1,2.2,0,3.3c-0.1,1.3,0.5,2.9-0.4,3.9c-0.6,0.7-1.9,0.3-2.8,0.5c-0.8,0.2-1.6,0.8-2.5,0.8c-1.3,0.1-2.6-0.4-3.9-0.6
				c-1.4-0.3-2.9-0.8-4.3-1c-2-0.3-4.1-0.2-6.2-0.4c-0.8-0.1-1.5-0.3-2.3-0.4c-1.4-0.2-3,0.2-4.3-0.4c-0.4-0.2-0.6-0.5-0.8-0.8
				c-0.4-0.6-0.5-1.3-0.6-2.1c-0.2-1.7,0.2-3.4,0-5.1c-0.1-1.3-0.6-2.4-0.8-3.7c-0.2-1.3-0.4-2.6-0.4-3.9c0-1.7,0.5-3.3,0.6-4.9
				c0.1-1.7-0.7-3.6,0-5.1c0.3-0.6,1-0.8,1.4-1.2c0.5-0.5,0.8-1.3,1.4-1.6c0.9-0.4,2.1,0.1,3.1,0C15,630.6,17.3,628.6,19.4,629.6z"
				/>
		</g>
		<path id="path3701" inkscape:connector-curvature="0" class="st11" d="M29.6,649.9l1.5-0.6l2.2,0.6l0.9,0.9l0.3,1.5l-0.3,1
			l-2.6,0.3l-1.5-0.7l-0.4-1.3l-0.4-0.6L29.6,649.9z"/>
		<path id="path3708" inkscape:connector-curvature="0" class="st2" d="M10.9,624.2l14.2,0.8l1.4,3.1l-0.8,6.6l-22.8,0.6l0.8-7.8
			l2.5-1.6L10.9,624.2z"/>
		<path id="path3739" inkscape:connector-curvature="0" class="st12" d="M11.4,625.8v3.9l-0.1,3.2l-0.1,2.5l-0.9,0.6l-3.8-0.4L5,635
			l-1.6-3l1-4.8l1.6-1.3l4.2-0.9l0.4,0.1L11.4,625.8z"/>
		<path id="path3703" inkscape:connector-curvature="0" d="M14.8,623.8l-5.5,0.6l-3.5,0.4l-3.1,1.6l-0.4,4.7l-0.2,3.1l0.4,1.8
			l4.9,0.2l6,0.4l3.9,0.2l5.1-0.4l3.9-0.8l0.4-1l0.4-3.9v-2.7l-0.4-2.3l-0.4-0.6l-2.7-1.2h-4.7L14.8,623.8z M6.4,626.3h2.3l3.1,0.2
			l6.2-0.2l6.4,0.2l1,1.8v3.5l-1.2,2.3l-2.5,0.4h-4.3h-5.1l-5.8,0.2l-2.1-1.4v-2.7l0.2-2.3L6.4,626.3z"/>
		<path id="path3710" inkscape:connector-curvature="0" class="st1" d="M8.8,626.1l-2,0.5l-0.4,1.7l2.6,1.5l4.4,0.3H16l3.6-0.3
			l2.4-0.5l1.2-1.3v-1.3l-3-0.3l-8.4,0.3L8.8,626.1z"/>
		<path id="path3712" inkscape:connector-curvature="0" d="M8.6,625.8l-1.8,1l1.4,2.2l4.1,1.1l3.5,0.2l3.5-0.8l2.3-1.1l1.6-1.7
			l0.4-1l1,1.4l-1.2,1.7l-2.7,1.1l-4.5,1h-4.5l-3.3-0.5l-1.2-0.5l-1.6-1.3l-1.2-1.9l-0.3-0.6l3-0.7h0.7L8.6,625.8z"/>
	</g>
	<g id="g3790" transform="translate(99.608802,-1.6430318)">
		<path id="path3737" inkscape:connector-curvature="0" class="st6" d="M-8.6,648.1l0.2,8.8l7.8,3.3l5.8,1.6l6.2,0.2l3.7-5.1
			l1.8-3.1l-1-3.3l-1.8-4.7l-0.4-0.8l-21.4,2.7L-8.6,648.1z"/>
		<path id="path3733" inkscape:connector-curvature="0" class="st2" d="M-7.6,641.1l-1.2,3.7l-0.2,2.7l3.1,0.6l4.3-1.4l4.1-0.2
			l4.5-0.8l3.7,0.4l2.3-0.2l0.4-1.4l-0.2-4.1l-0.2-1.4L8,637.6l-8,1.2l-5.3,0.2l-0.6,0.6L-7.6,641.1z"/>
		<path id="path3728" inkscape:connector-curvature="0" d="M13,635.8l-11,0.9l-5.5,0.9l-3.8,0.6l-2,2.6l-1.2,5.8l-0.6,8.4l0.9,3.2
			l5.8,3.2l4.9,0.3l5.5,0.9l4.9-0.3l2.9-1.5l4.6-5.5l-1.7-6.7l-2-7.8v-4.6L13,635.8z M7.5,638.7l3.8,0.3l0.3,2l1.2,3.8l1.5,5.8v4.4
			l-2.9,3.2l-2.6,2l-3.5,0.3l-3.5-0.9l-4.4-1.2l-4.1-1.7l-1.7-2.3l0.3-3.2l-0.3-5.5l1.2-3.8l2-1.7l4.1-0.6h1.5l1.5-0.6h2L7.5,638.7z
			"/>
		<path id="path3735" inkscape:connector-curvature="0" class="st13" d="M-10.1,646h4.3l4.3-1.2l5.8-0.6l4.1-0.6l4.1,0.2l1.2,2.3
			l-1.2,1.8l-6,1.2l-8.6,0.8l-4.3-0.2h-2.5l-0.6-1.6v-1.2L-10.1,646z"/>
		<path id="path3756" inkscape:connector-curvature="0" class="st13" d="M-2.5,660l-1.8-4.9l-0.2-1.8v-1.4l2.1,0.2l0.6,2.3l1.2,3.1
			l0.4,1.6L-2.5,660z"/>
		<path id="path3758" inkscape:connector-curvature="0" class="st13" d="M2.7,661.2l-0.2-4.9l-1-3.3v-1l3.3-0.4l1.2,1.8l0.4,3.7
			l0.2,2.7l-1,1.4L2.7,661.2z"/>
		<path id="path3760" inkscape:connector-curvature="0" class="st13" d="M10.3,660.6l-1.4-3.7l-0.6-3.3v-2.5v-0.8l2.5,1.2l1,2.7
			l1,2.5l0.2,1.4l-0.2,1.6L10.3,660.6z"/>
	</g>
	<g id="g3838" transform="matrix(-1,0,0,1,255.35891,0)">
		<path id="path3792" inkscape:connector-curvature="0" sodipodi:nodetypes="ccccccccccc" class="st2" d="M49.4,556.5l-4.9,19.8
			l2.3,25.9L62.4,616l22.1,4.4l19.2-7.8l7.3-18l-1.7-27.9l-9.9-12.8l-38.9,0.9L49.4,556.5z"/>
		<path id="path3794" inkscape:connector-curvature="0" sodipodi:nodetypes="aaaaaaaaaaaaaaaaaaaaa" class="st5" d="M99.1,615.4
			c-2.8,0.7-5.8,0-8.6-0.6c-2.4-0.5-5-1-6.8-2.6c-1.2-1-2.5-2.5-2.3-4.1c0.1-1,1.1-1.9,2-2.3c1.1-0.5,2.4,0.1,3.5,0.1
			c1.6,0,3.2,0.2,4.6-0.4c1.3-0.5,2.7-1.3,3.5-2.5c0.8-1.2,0.8-2.8,0.9-4.2c0.1-1.5-0.5-2.9-0.3-4.4c0.2-1.4,0.4-2.9,1.2-4
			c0.5-0.6,1.2-1,1.9-1.1c0.6-0.1,1.3,0,1.8,0.3c0.8,0.6,1,1.8,1.5,2.7c0.1,0.2,0.2,0.4,0.4,0.5c0.9,0.6,2.2,0.5,3.3,0.7
			c0.6,0.1,1.2,0.2,1.8,0.3c0.4,0.1,1,0.1,1.2,0.4c1.6,2.1,0.8,5.2,0.5,7.8c-0.4,3.1-0.9,6.5-2.9,8.9
			C104.6,613.3,101.8,614.7,99.1,615.4L99.1,615.4z"/>
		<path id="path3796" inkscape:connector-curvature="0" sodipodi:nodetypes="aaaaaaaaaaaaaa" class="st5" d="M85.7,564.3
			c-2.7-1-5.7-2.5-8.4-1.7c-1.1,0.3-2.3,1.2-2.6,2.3c-0.5,1.8,0.8,3.6,1.7,5.2c0.7,1.1,2.2,1.7,2.6,2.9c0.4,1.4-0.6,2.9-0.6,4.4
			c0.1,1.3-0.1,2.9,0.9,3.8c1.8,1.7,5,2.5,7.3,1.5c2-0.9,2.8-3.6,3.2-5.8c0.3-1.5-1.3-3.3-0.6-4.6c0.8-1.6,3.6-1.2,4.6-2.6
			c0.7-1,1.4-2.8,0.6-3.8c-1.4-1.7-4.5,0.3-6.7-0.3C87,565.3,86.4,564.6,85.7,564.3z"/>
		<path id="path3798" inkscape:connector-curvature="0" sodipodi:nodetypes="aaaaaaaaaaaaaaaaaaaa" class="st0" d="M67.1,560.3
			c-0.1,3.2-0.8,6.4-0.9,9.6c-0.1,3.7-0.5,7.4,0.3,11c0.4,1.9,1.6,3.5,2.3,5.2c0.5,1.2,1.1,2.5,1.5,3.8c0.5,1.8,0.3,3.7,0.9,5.5
			c0.5,1.6,1.5,3.1,2.3,4.6c1.1,1.8,2.5,3.4,3.5,5.2c0.9,1.6,1.9,3.2,2.3,4.9c0.3,1.1,0.7,2.4,0.3,3.5c-0.8,1.8-2.7,3.4-4.6,3.8
			c-5.4,1-10.7-2.6-15.7-4.9c-3.2-1.5-6.8-3-9-5.8c-3.6-4.4-5.3-10.3-6.1-16c-1.2-8.3-0.3-16.9,2-25c1.1-3.9,2.9-7.7,5.5-10.7
			c1.1-1.3,2.4-2.8,4.1-2.9c2.9-0.2,5.4,2.3,7.8,3.8c1.2,0.8,2.8,1.3,3.5,2.6C67.4,559,67.1,559.7,67.1,560.3L67.1,560.3z"/>
		<path id="path3800" inkscape:connector-curvature="0" d="M92.7,609l-3.1-3.3l-4.1-2.7l-1.6-1.2l-0.6-1.4l5.1-2.9l3.3-2.1l3.5-2.1
			l1-1.8l-1.4-1.8l-4.9-3.1l-3.5-2.9l-1.4-3.1l5.5-2.9l4.9-2.7l3.7-1.6l2.3-1.2l-5.1-4.9l-5.1-2.5l-1.6-1.2l-1.4-2.1l0.8-1.2
			l4.5,3.5l4.1,2.9l3.9,3.1l2.5,2.7l0.4,1l-3.9,2.7l-5.8,2.3l-2.5,1.2l-2.7,1.8l-1,0.6l3.1,3.7l2.5,1.6l1.4,1.4l2.3,2.5l0.6,1.8
			l-1,2.1l-2.5,1.2l-3.5,2.5l-2.5,1.2l-0.8,1.4l1.4,1.8l4.5,4.1l0.2,0.2v1.4L92.7,609z"/>
		<path id="path3802" inkscape:connector-curvature="0" d="M87.4,551.3l-7.6,0.3L68.5,553l-6.1,1.2l-6.4,1.2l-4.1,0.9l-3.5,0.6
			l-4.6,7.3l-0.9,6.1l-2,5.5l-0.9,6.7l0.3,4.6l0.9,4.6v2l1.2,6.7l4.1,7.6l5.8,6.1l7.8,4.4l5.5,0.3l6.1,2.3l6.7,1.5l7-0.3l6.4-0.6
			l6.1-1.5l7-4.1l4.6-6.7l2.9-4.1l1.2-10.5l1.2-11.6l-0.9-11l-3.8-7.6l-2-6.1l-1.5-2.9l-8.1-3.8L87.4,551.3z M68.8,557.4l9.6,0.9
			h12.5l6.7,1.2l4.6,6.1l1.2,7.3l2.6,9.3l0.6,14.8l-2,7l-5.8,5.8l-8.4,4.4l-8.4,1.2l-9-1.7l-12.5-2.6l-7-4.4l-3.5-6.1l-1.7-8.4
			L47.9,580l1.7-7l1.2-12.2l2.9-1.2l6.1-1.2L68.8,557.4z"/>
		<path id="path3804" inkscape:connector-curvature="0" class="st1" d="M49,558.8l24.1,4.1l11,1l17.4-4.6l4.4-2.8l-4.4-7.7l-25-4.4
			l-7.3,0.5l-18,7.2l-2.6,2.3L49,558.8z"/>
		<path id="path3806" inkscape:connector-curvature="0" sodipodi:nodetypes="aaaaaaaaaaaaaaaaaaaaaaaaaaaaaaaaaaaaaaaaaaaaaaaa" d="
			M79.1,542.9c-2.3-0.1-4.7-0.2-7,0.4c-1.5,0.3-2.7,1.3-4.1,1.8c-1.9,0.7-3.8,1.2-5.8,1.8c-2.5,0.8-4.8,2.1-7.4,2.5
			c-0.7,0.1-1.4-0.2-2.1,0c-1.9,0.7-3.6,2.2-4.5,4c-0.9,1.7-1.5,4.2-0.4,5.8c0.6,0.9,1.9,0.8,2.9,1.1c1.5,0.5,3,1.1,4.5,1.5
			c2.7,0.6,5.5,0.6,8.2,1.1c2.2,0.4,4.4,1.1,6.6,1.5c2.9,0.5,5.7,1.1,8.6,1.1c3.2,0,6.3-0.7,9.4-1.1c2.6-0.3,5.3-0.4,7.8-1.1
			c2.7-0.7,5.4-1.6,7.8-2.9c1.6-0.9,3.8-1.6,4.5-3.3c0.3-0.8-0.1-1.7-0.4-2.5c-0.1-0.3-0.3-0.5-0.4-0.7c-1.2-1.9-2-4-3.7-5.5
			c-0.7-0.6-1.6-0.8-2.5-1.1c-2-0.7-4.1-0.9-6.2-1.5c-1.7-0.4-3.3-1-4.9-1.5c-1.2-0.3-2.5-0.5-3.7-0.7C84,543.3,81.6,543,79.1,542.9
			z M81.3,545.9c1.3,0.1,2.5,0.5,3.8,0.8c2.7,0.5,5.5,0.8,8.1,1.5c1.9,0.5,3.8,1,5.5,2.1c1,0.6,1.9,1.4,2.6,2.3
			c0.8,0.9,2.1,1.9,2,3.1c0,0.8-0.8,1.4-1.5,1.8c-1.2,0.8-2.7,0.7-4.1,1c-2,0.5-3.8,1.3-5.8,1.8c-2.1,0.5-4.2,1-6.4,1.3
			c-1.9,0.3-3.9,0.6-5.8,0.5c-2.1-0.1-4.1-0.7-6.1-1c-2-0.3-4.1-0.5-6.1-0.8c-2.2-0.3-4.4-0.7-6.7-1c-2.6-0.4-5.3-0.3-7.8-1
			c-1.1-0.3-2.6-0.5-3.2-1.5c-0.3-0.6-0.1-1.5,0.3-2.1c0.8-1.2,2.4-1.7,3.8-2.3c1.3-0.6,2.7-0.9,4.1-1.3c0.9-0.2,1.8-0.2,2.6-0.5
			c0.8-0.3,1.5-0.9,2.3-1.3c2.1-1,4.1-2.3,6.4-2.8C73.3,545.5,77.4,545.6,81.3,545.9L81.3,545.9z"/>
		<path id="path3808" inkscape:connector-curvature="0" sodipodi:nodetypes="aaaaaaaaaaaaaaa" d="M85.4,545.9
			c2.3,0.4,4.4,1.4,6.4,2.3c0.9,0.4,1.8,1,2.6,1.5c1.3,0.9,2.7,1.7,3.8,2.8c0.4,0.4,0.7,0.8,0.9,1.3c0.3,0.7,0.8,1.5,0.3,2.1
			c-1,1-3,0.5-4.4,0c-1.6-0.7-2.3-2.4-3.5-3.6c-0.4-0.4-0.8-0.7-1.2-1c-0.9-0.7-1.9-1.4-2.9-2.1c-0.3-0.2-0.6-0.4-0.9-0.5
			c-1.1-0.6-2.2-1.4-3.5-1.8c-0.4-0.1-0.8-0.1-1.2-0.3c-0.5-0.2-1.6-0.3-1.5-0.8C80.9,544.5,83.8,545.6,85.4,545.9L85.4,545.9z"/>
		<path id="path3810" inkscape:connector-curvature="0" sodipodi:nodetypes="aaaaaaaaaaaaaaaaaaaa" d="M73.5,545.2
			c0.9,0.2,1.3,1.1,2,1.5c1.3,0.8,2.9,1.2,4.4,1.8c1,0.4,2,0.8,2.9,1.3c0.5,0.2,1,0.5,1.5,0.8c0.7,0.4,1.5,0.7,2,1.3
			c0.7,0.8,1.1,1.8,1.5,2.8c0.2,0.4,0.2,0.9,0.3,1.3c0.1,0.5,0.4,1.2,0,1.5c-0.9,0.8-2.5,0.5-3.8,0.3c-1.5-0.2-2.8-1-4.1-1.8
			c-0.7-0.4-1.3-0.8-1.8-1.3c-1-0.8-1.7-1.8-2.7-2.5c-0.3-0.2-0.6-0.4-0.8-0.5c-0.5-0.3-1.1-0.6-1.4-1.1c-0.4-0.5-0.3-1.3-0.8-1.8
			c-1.1-1.1-3-1.4-4.5-2c-0.3-0.1-1.1,0-1-0.4c0.2-1.5,3.4-0.6,5.1-0.9C72.6,545.4,73,545.1,73.5,545.2z"/>
		<path id="path3812" inkscape:connector-curvature="0" sodipodi:nodetypes="aaaaaaaaaaaaaaaaa" d="M60.4,548.7
			c1.4-0.2,2.8,0.4,4.1,0.7c0.8,0.2,1.7,0.4,2.5,0.7c0.8,0.3,1.7,0.7,2.5,1.1c0.8,0.4,1.6,0.9,2.3,1.5c0.5,0.5,0.9,1.1,1.2,1.6
			c0.4,0.6,0.7,1.2,1,1.8c0.2,0.3,0.7,0.6,0.6,0.9c-0.3,0.7-1.6,0.7-2.5,0.9c-1.2,0.2-2.6,0.6-3.7,0.2c-0.7-0.2-1-1-1.4-1.5
			c-0.7-0.7-1.2-1.6-2.1-2.2c-0.6-0.4-1.4-0.6-2.1-0.9c-1.1-0.5-2.3-1-3.5-1.3c-0.3-0.1-0.7-0.1-1-0.2c-0.7-0.3-1.8-0.4-1.8-1.1
			C56.5,549.7,58.9,549,60.4,548.7L60.4,548.7z"/>
		<path id="path3814" inkscape:connector-curvature="0" sodipodi:nodetypes="aaaaaaaaaaa" class="st3" d="M101.7,567.8
			c0.8,0,1.6-0.1,2.3,0.3c0.9,0.4,1.6,1.2,2,2c0.4,0.8,0.5,1.8,0.3,2.6c-0.2,1.1-0.8,2.3-1.7,2.9c-1,0.6-2.3,0.4-3.5,0.3
			c-0.9-0.1-1.9-0.3-2.6-0.9c-0.6-0.5-1-1.3-1.2-2c-0.2-1.2-0.1-2.5,0.6-3.5c0.5-0.8,1.5-1.1,2.3-1.5
			C100.7,567.9,101.2,567.8,101.7,567.8L101.7,567.8z"/>
		<path id="path3816" inkscape:connector-curvature="0" class="st4" d="M98.2,576.2"/>
		<path id="path3818" inkscape:connector-curvature="0" sodipodi:nodetypes="aaaaaaaaa" class="st3" d="M86.3,575.8
			c1.2,0.4,1.8,1.9,2.1,3.1c0.4,1.5,0.4,3.5-0.6,4.7c-0.9,1-2.5,1.3-3.9,1.2c-1.3-0.1-2.6-0.7-3.5-1.6c-0.9-1-1.7-2.5-1.4-3.9
			c0.1-0.9,0.9-1.6,1.6-2.1c0.8-0.5,1.8-0.4,2.7-0.6C84.3,576.3,85.4,575.4,86.3,575.8z"/>
		<path id="path3820" inkscape:connector-curvature="0" sodipodi:nodetypes="aaaaaaaaaaa" class="st3" d="M95.4,588.7
			c1.2-0.5,2.7-1,3.9-0.4c0.6,0.3,0.8,1.1,1,1.6c0.6,1.2,1.4,2.4,1.2,3.7c-0.2,1.1-0.9,2.1-1.8,2.7c-1.4,0.9-3.3,1.2-4.9,0.8
			c-1.1-0.2-2.4-0.8-2.9-1.8c-0.5-1,0.2-2.2,0.4-3.3c0.1-0.4,0.2-0.9,0.4-1.2c0.5-0.6,1.2-1,1.8-1.4
			C94.8,589.1,95.1,588.8,95.4,588.7z"/>
		<path id="path3822" inkscape:connector-curvature="0" sodipodi:nodetypes="aaaaaaaaaa" class="st3" d="M91.9,606.2
			c1,0.1,2.1-0.4,2.9,0.2c0.9,0.7,1,2,1.2,3.1c0.1,0.5,0.1,1,0,1.4c-0.1,0.6,0,1.4-0.4,1.8c-0.9,0.9-2.5,0.9-3.7,0.6
			c-1-0.3-1.9-1.1-2.5-2.1c-0.5-0.8-0.7-1.9-0.4-2.9c0.3-1,0.9-2.1,1.8-2.5C91.2,605.8,91.5,606.1,91.9,606.2z"/>
		<path id="path3824" inkscape:connector-curvature="0" sodipodi:nodetypes="aaaaaaaaaaaaaaaaaaa" class="st1" d="M52,587
			c-0.3-1.4-0.8-3.2,0-4.4c0.9-1.4,3-1.9,4.6-1.7c1,0.1,1.9,1,2.6,1.7s1,1.9,1.7,2.6c0.8,0.8,2,1,2.9,1.7c0.7,0.6,1.4,1.2,1.7,2
			c0.5,1.4,0.5,3,0,4.4c-0.4,1-1.3,1.8-2,2.6c-0.9,1.2-1.9,2.4-2.9,3.5c-0.6,0.7-1.4,1.3-2,2c-0.7,0.8-1.3,1.7-2,2.6
			c-0.4,0.5-0.5,1.4-1.2,1.5c-1.8,0.1-3.1-2.4-3.8-4.1c-0.8-1.8-0.9-4-0.3-5.8c0.4-1.1,1.6-1.7,2.3-2.6c0.2-0.3,0.6-0.5,0.6-0.9
			c0.1-1-0.8-1.7-1.2-2.6C52.8,588.7,52.2,587.9,52,587L52,587z"/>
		<g id="g3834" transform="rotate(3.0513776,56.285871,579.88867)">
			<path id="path3826" inkscape:connector-curvature="0" sodipodi:nodetypes="aaaaaaaaa" class="st3" d="M100.4,597.3
				c-0.8-0.1-1.8,0.1-2.5,0.6c-0.7,0.6-0.9,1.6-1,2.5c-0.2,0.8-0.5,1.8,0,2.5c0.7,1.1,2.4,1.4,3.7,1.4c1.2,0,2.7-0.3,3.5-1.2
				c0.6-0.7,0.7-1.9,0.4-2.9c-0.2-0.7-0.7-1.2-1.2-1.6C102.5,597.9,101.5,597.4,100.4,597.3L100.4,597.3z"/>
			<path id="path3828" inkscape:connector-curvature="0" class="st6" d="M42.6,598.3l2.2,8.6l34.6-1l34.7-3.9l0.7-6.5l-30.4,3
				L42.6,598.3z"/>
			
				<path id="path3830" inkscape:connector-curvature="0" sodipodi:nodetypes="aaaaaaaaaaaaaaaaaaaaaaaaaaaaaaaaaaaaaaaaaaaaaaaaaaaaaaaaa" d="
				M115.3,594.2c-1.4-0.8-3.3,0.1-4.9,0.3c-3.2,0.3-6.4,1-9.5,1.3c-4.5,0.5-8.9,1.3-13.4,1.3c-3.9,0.1-7.7-0.6-11.6-0.7
				c-4.5-0.1-8.9,0.4-13.4,0.4c-3.3,0-6.6-0.5-9.8-0.3c-3.9,0.2-9.3-1.7-11.6,1.5c-0.6,0.8,0.4,1.9,0.6,2.9c0.1,0.8,0,1.6,0.3,2.3
				c0.6,1.7,1.2,3.6,2.6,4.6c0.5,0.3,1.2,0.2,1.7,0.3c2,0.2,4.1,0.1,6.1,0c1.5-0.1,2.9-0.5,4.4-0.6c2.6-0.2,5.2,0,7.8,0
				c3,0,6,0,9-0.3c3.3-0.3,6.6-1.1,9.9-1.5c2.5-0.3,5-0.5,7.6-0.6c3.9-0.1,7.8,0.2,11.6,0c2.7-0.1,5.5-0.3,8.1-0.9
				c1.6-0.3,3.4-0.4,4.6-1.5c0.5-0.5,0.7-1.3,0.9-2c0.2-0.6,0.2-1.2,0.3-1.7c0.1-0.9,0.2-1.8,0-2.6
				C116.3,595.7,116.1,594.7,115.3,594.2z M109.4,597.1c1.4-0.2,3.2-0.9,4.2,0c0.4,0.3,0.3,1,0.2,1.5c-0.1,0.7-0.3,1.6-0.8,2.1
				c-0.3,0.3-0.9,0.3-1.3,0.4c-1.4,0.3-2.7,0.5-4.1,0.7c-1.3,0.2-2.7,0.2-4,0.3c-2.1,0.1-4.1,0.2-6.2,0.4c-2,0.2-4,0.4-6,0.6
				c-2.1,0.2-4.2,0.2-6.3,0.5c-1.3,0.2-2.6,0.6-3.9,0.8c-1.3,0.2-2.6,0.4-3.9,0.5c-1.6,0.1-3.1,0-4.7,0c-1.8,0.1-3.6,0.3-5.4,0.3
				c-1.4,0-2.7,0-4.1,0c-2.2,0-4.5,0-6.7,0.1c-1,0.1-1.9,0.2-2.9,0.3c-1.9,0.1-3.9,0.4-5.8,0.1c-0.7-0.1-1.5-0.2-2-0.7
				c-0.6-0.6-0.7-1.5-0.8-2.4c-0.1-0.8-0.3-1.7,0.2-2.4c0.2-0.3,0.7-0.4,1.1-0.5c1.2-0.4,2.5-0.5,3.7-0.7c0.2,0,0.3-0.1,0.5-0.1
				c1-0.1,1.9,0.2,2.9,0.2c2.1,0.1,4.2,0,6.4,0c3.1,0,6.2-0.1,9.3-0.1c3.5,0,7,0.2,10.5,0.3c2.9,0.1,5.8,0.3,8.6,0.2
				c3.1-0.1,6.2-0.6,9.2-0.9c2.6-0.2,5.2-0.3,7.8-0.7C106.6,597.8,108,597.3,109.4,597.1L109.4,597.1z"/>
			<path id="path3832" inkscape:connector-curvature="0" sodipodi:nodetypes="aaaaaaaaaaaaa" class="st7" d="M100.6,595.8
				c1.1,0.9,0.1,2.8,0.2,4.1c0.1,1.2,0.4,2.4,0.5,3.6c0,0.5,0.3,1.1,0,1.5c-0.9,1-2.7,0.1-4.1,0.2c-1,0.1-1.9,0.1-2.9,0.2
				c-0.9,0.1-1.9,0.8-2.8,0.4c-1.2-0.5-1.8-1.9-2.2-3.1c-0.5-1.2-0.4-2.6-0.3-3.9c0-0.7-0.1-1.6,0.3-2.1c1.1-1.1,3.1-0.7,4.6-0.9
				c1.4-0.1,2.9,0.2,4.3,0.2C99,596.1,99.9,595.3,100.6,595.8z"/>
		</g>
		<path id="path3836" inkscape:connector-curvature="0" sodipodi:nodetypes="aaaaaaaaaaaaaaaaa" d="M90.9,600.5
			c0.3-0.5,1.1-0.3,1.7-0.3c1.1-0.1,2.1,0.1,3.2,0.3c0.3,0,0.7,0,0.8,0.2c0.7,0.8,0.4,2,0.3,3.1c-0.1,0.6-0.1,1.3-0.5,1.7
			c-0.3,0.3-0.8,0.1-1.2,0.2c-0.7,0-1.4,0-2.1,0c-0.5-0.1-1,0-1.4-0.3s-0.9-0.9-0.6-1.3c0.4-0.5,1.3,0,1.9,0c0.4,0,0.7-0.1,1.1-0.1
			c0.4,0,0.9,0.3,1.2,0.1c0.4-0.4,0.4-1.4,0-1.9c-0.6-0.6-1.8-0.2-2.6-0.2c-0.5,0-1,0.5-1.4,0.3C90.9,601.8,90.6,600.9,90.9,600.5
			L90.9,600.5z"/>
	</g>
	<g id="g3573" transform="translate(0,-28)">
		
			<ellipse id="path3507" transform="matrix(-0.9943 0.1063 -0.1063 -0.9943 283.7967 966.3313)" class="st8" cx="116.1" cy="490.7" rx="4.6" ry="4.5"/>
		<path id="path3504" inkscape:connector-curvature="0" sodipodi:nodetypes="aaaaaaaaaaaaaaaaaaaaaaa" d="M115.6,484.6
			c-0.4,0-0.7,0.3-1,0.5c-1,0.7-2.1,1.4-2.9,2.4c-0.7,0.9-1.3,1.9-1.6,3.1c-0.3,1-0.8,2.3-0.4,3.3c0.4,1.1,1.7,1.6,2.7,2.1
			c1.1,0.6,2.3,1.1,3.5,1.2c1.6,0.1,3.4-0.2,4.7-1.2c0.7-0.5,1.3-1.5,1.6-2.4c0.6-1.4,1.2-3,0.8-4.5c-0.3-1.1-1.4-1.8-2.3-2.4
			C119.2,485.6,117.4,484.5,115.6,484.6L115.6,484.6z M117.3,487.2c0.6,0.1,1.2,0.3,1.6,0.7c0.6,0.6,1.1,1.6,1.2,2.6
			c0.1,0.5,0,1.1-0.2,1.7c-0.3,0.9-0.9,1.7-1.6,2.1c-0.6,0.4-1.4,0.5-2.1,0.5c-0.9-0.1-1.9-0.4-2.7-0.9c-0.6-0.4-1.2-0.9-1.4-1.7
			c-0.2-0.8,0.1-1.7,0.4-2.4c0.4-0.9,1.1-1.7,1.8-2.1C115.3,487.2,116.3,487.1,117.3,487.2L117.3,487.2z"/>
	</g>
	<g id="g1124">
		<g id="g3848" transform="matrix(-1,0,0,1,254.78344,-20)">
			
				<path id="path3840" inkscape:connector-curvature="0" inkscape:original-d="m 118.70905,511.90005 c 0,0 0.61097,7.44448 0,11.09047 -0.69414,4.14234 -4.10758,11.91198 -4.10758,11.91198 0,0 -28.984303,4.22627 -43.540345,3.69682 -8.728135,-0.31747 -25.877751,-4.10758 -25.877751,-4.10758 0,0 -1.534731,-4.03857 -1.643031,-6.16137 -0.176624,-3.46202 1.643031,-10.26894 1.643031,-10.26894 0,0 27.420108,4.25726 41.075795,2.8753 11.171161,-1.13052 32.449881,-9.03668 32.449881,-9.03668 z" inkscape:path-effect="#path-effect2280" sodipodi:nodetypes="cacacacac" class="st2" d="
				M118.7,511.9c0.6,3.7,0.6,7.4,0,11.1c-0.7,4.2-2.1,8.2-4.1,11.9c-14.2,3.4-29,4.7-43.5,3.7c-8.7-0.6-17.4-2-25.9-4.1
				c-0.9-1.9-1.4-4-1.6-6.2c-0.4-3.5,0.2-7.1,1.6-10.3c13.4,3.5,27.4,4.5,41.1,2.9C97.5,519.6,108.4,516.5,118.7,511.9L118.7,511.9z
				"/>
			<path id="path3842" inkscape:connector-curvature="0" sodipodi:nodetypes="caacccccccccc" class="st0" d="M73.6,521.6
				c0,0-0.8,3.7-0.8,5.6c0,2.3,1,4.5,0.8,6.7c-0.1,1.2-1,3.4-1,3.4h-2.5H54.9l-3.8-1.7l-7-1.6l-0.2-7.3l0.9-8.8l8.9,0.3l16,3.2
				L73.6,521.6z"/>
			<path id="path3844" inkscape:connector-curvature="0" d="M120.1,509.8l-1.4,0.8l-2.3,0.6l-3.5,1.4l-5.3,1.8l-6.4,1.4l-4.9,1.8
				l-7,1.2h-8.8l-9,0.4l-4.7-0.6l-7.2-1.2l-7.8-0.8l-6.6-1.6l-0.8,0.2l-1.6,2.1l-0.2,2.1l-1,3.3l0.2,4.3l0.6,5.8l1.2,1.6l2.7,2.3
				l6,1.2l7.2,1l10.1,1l8,0.8l6.2-0.2l6.2-0.4L98,540l9.2-1.6l8-1.4l1.2-1.2l2.7-3.9l1.4-4.9v-6.8l0.6-6.2L120.1,509.8z M116.9,515
				l1.2,0.8v0.8v2.7l-0.8,3.1l-1.2,3.9l-0.2,6.4l-0.8,0.8l-2.7,0.8l-3.7,0.6l-5.5,1l-6.8,0.8l-6,0.4l-8.8,0.2l-6.2-0.4l-8.2-0.4
				l-6.4-0.6l-5.8-1.4l-8-1l-0.6-1l-0.8-2.3l-0.4-4.3l0.6-3.5l0.8-2.7l2.5,0.8l2.5,0.2l6.8,1l10.3,1.2l10.1,0.2h8.6l6.2-0.8l6.6-1.4
				l7-3.7L116.9,515z"/>
			<path id="path3846" inkscape:connector-curvature="0" sodipodi:nodetypes="caaaaaaaaaaaaacc" class="st1" d="M92.4,537.9
				c0,0-4.4-2.1-4.4-4.1c0-1.6,2.2-2.6,3.8-3.2c1.5-0.5,3.1,0.3,4.6,0c1.3-0.2,2.7-0.6,3.8-1.5c1.2-1,1.5-2.9,2.6-4.1
				c0.7-0.7,1.4-1.4,2.3-1.7c1.3-0.5,2.8-1.1,4.1-0.6c0.6,0.3,1,1.1,1.2,1.7c0.3,1.1,0.2,2.3,0,3.5c-0.1,0.6-0.6,1.1-0.6,1.7
				c0,0.7,0.3,1.5,0.9,2c0.7,0.6,1.8,0.4,2.6,0.9c0.6,0.4,1.6,0.8,1.5,1.5c-0.3,1.6-4.4,2-4.4,2L92.4,537.9z"/>
		</g>
		<g id="g3858" transform="matrix(-1,0,0,1,254.78344,-30)">
			<path id="path3850" inkscape:connector-curvature="0" class="st1" d="M40.4,494.3l2.9-3.8l7,3.2l11.3,3.8l13.4,2.3v5.2l-6.1,13.1
				l-1.7,21.2l-4.9,1.7L34.9,537l-0.9-6.1L33.7,519L40.4,494.3z"/>
			<path id="path3852" inkscape:connector-curvature="0" d="M42.3,489c-0.9,0-1.7,0.6-2.3,1.2c-0.8,0.7-1.3,1.7-1.7,2.6
				c-1.1,2.2-1.6,4.6-2.3,7c-0.8,2.7-1.4,5.4-2,8.1c-0.6,2.6-1.4,5.2-1.7,7.8c-0.4,3.8,0,7.7,0,11.6c0,2.7-1.1,5.7,0,8.1
				c0.6,1.4,2.1,2.4,3.5,3.2c0.6,0.3,1.3,0.5,2,0.6c1.2,0.2,2.5-0.1,3.8,0c1.7,0.1,3.3,0.5,4.9,0.9c2.2,0.5,4.4,1.3,6.7,1.7
				c2.1,0.4,4.3,0.5,6.4,0.6c2.2,0.1,4.7,0.7,6.7-0.3c0.9-0.4,1.6-1.4,2-2.3c0.8-1.6,0.9-3.5,1.2-5.2c0.4-2.8,0.4-5.6,0.6-8.4
				c0.1-2.5-0.3-5.1,0.3-7.6c0.6-2.3,2.2-4.2,3.2-6.4c1.2-2.8,2.7-5.5,3.2-8.4c0.3-1.9,1.2-4.3,0-5.8c-0.9-1.1-2.7-0.7-4.1-0.9
				c-2.9-0.5-5.8-0.4-8.7-0.9c-3.4-0.6-6.6-1.5-9.9-2.6C49.9,492.3,46.5,488.8,42.3,489z M44.5,492.9c1.8,0.1,3.5,2.4,5.3,3
				c2.1,0.7,4.3,0.9,6.4,1.5c1.3,0.3,2.5,0.9,3.8,1.2c1.3,0.3,2.7,0.4,4.1,0.6c1.5,0.2,3.1,0.2,4.6,0.6c1.2,0.3,2.9,0.1,3.5,1.2
				c0.8,1.6-1.1,3.3-1.7,4.9c-0.8,2.1-2,4-2.6,6.1c-0.5,1.8-0.7,3.7-0.9,5.5c-0.3,2.4-0.3,4.8-0.6,7.3c-0.2,2.2-0.4,4.5-0.9,6.7
				c-0.4,1.8-0.1,4-1.5,5.2c-0.8,0.7-2.1,0.6-3.2,0.6c-2.2,0.1-4.4-0.8-6.7-0.9c-3.9-0.2-7.8,1-11.6,0.6c-1.8-0.2-3.7-0.5-5.2-1.5
				c-0.8-0.5-1.6-1.2-2-2c-1.5-3-1.4-6.5-1.5-9.9c0-2.1,0.5-4.3,0.9-6.4c0.5-2.4,1.1-4.9,1.7-7.3c0.5-1.8,1-3.5,1.7-5.2
				c0.9-2.2,2.2-4.2,3.2-6.4c0.4-0.9,0.8-1.7,1.2-2.6c0.2-0.5,0.4-1,0.6-1.5c0.2-0.4,0.2-1,0.6-1.2C44,493,44.3,492.9,44.5,492.9z"
				/>
			<path id="path3854" inkscape:connector-curvature="0" sodipodi:nodetypes="aaaaaaaaaaaaaaaa" d="M49.7,499.8
				c-2,1.4-1.6,4.6-2.3,7c-0.8,2.7-1.4,5.4-2,8.1c-0.5,2-1.1,4-1.5,6.1c-0.4,1.9-0.7,3.9-0.9,5.8c-0.1,0.8-0.4,1.7,0,2.3
				c0.5,0.7,1.5,1,2.3,0.9c1-0.1,1.9-0.9,2.3-1.7c0.9-1.7,0-3.9,0.3-5.8c0.2-1.9,0.8-3.7,1.2-5.5c0.4-2.3,0.4-4.7,1.2-7
				c0.4-1.2,1.3-2.3,1.7-3.5c0.5-1.3,0.6-2.7,0.9-4.1c0.1-0.6,0.6-1.2,0.3-1.7c-0.4-0.7-1.5-0.7-2.3-0.9
				C50.4,499.8,50,499.6,49.7,499.8z"/>
			<path id="path3856" inkscape:connector-curvature="0" sodipodi:nodetypes="aaaaaaaaaaaaaaa" d="M61.9,502.5
				c-0.7-0.6-2-0.3-2.6,0.3c-2.4,2.3-0.8,6.6-1.2,9.9c-0.3,2.2-0.6,4.5-0.9,6.7c-0.2,1.8-0.3,3.7-0.6,5.5c-0.1,1-0.8,1.9-0.6,2.9
				c0.2,0.9,0.7,1.8,1.5,2.3c0.7,0.5,1.9,0.8,2.6,0.3c0.6-0.5,0.2-1.5,0.3-2.3c0-0.7,0-1.4,0-2c0-1.1,0-2.1,0-3.2
				c0-1.3,0.1-2.5,0.3-3.8c0.2-1.8,0.6-3.7,0.9-5.5c0.3-1.6,0.8-3.1,0.9-4.6C62.5,506.7,63.5,503.8,61.9,502.5z"/>
		</g>
		<g id="g3868" transform="matrix(-1,0,0,1,254.78344,-30)">
			
				<path id="path3860" inkscape:connector-curvature="0" inkscape:original-d="m 44.772616,484.99541 c 4.923595,-7.61337 12.998323,-13.33432 21.359414,-16.84107 7.000517,-2.93611 15.064574,-3.86047 22.591687,-2.87531 7.916186,1.03608 15.770453,4.27797 22.180933,9.03667 2.97038,2.20501 6.98288,8.62592 6.98288,8.62592 0,0 -1.36124,5.5045 -3.28606,7.39364 -4.7732,4.68473 -11.96333,6.31794 -18.48411,7.80441 -10.959582,2.49833 -22.492868,2.71728 -33.682152,1.64302 -6.875688,-0.66012 -20.127139,-4.92909 -20.127139,-4.92909 0,0 0.625159,-7.01394 2.464547,-9.85819 z" inkscape:path-effect="#path-effect2274" sodipodi:nodetypes="aaaacaaaca" class="st2" d="
				M44.8,485c2-4.2,5.2-7.8,9-10.5c3.7-2.8,8-4.8,12.4-6.3c7.2-2.5,15-3.6,22.6-2.9c8.1,0.8,16.1,3.7,22.2,9c2.8,2.5,5.2,5.4,7,8.6
				c-0.4,2.7-1.5,5.3-3.3,7.4c-2.2,2.6-5.3,4.4-8.5,5.6s-6.6,1.7-10,2.2c-11.1,1.7-22.5,2.9-33.7,1.6c-6.9-0.8-13.7-2.4-20.1-4.9
				C42.4,491.4,43.3,488.1,44.8,485L44.8,485z"/>
			<path id="path3862" inkscape:connector-curvature="0" sodipodi:nodetypes="aaaaaaaaaaaaa" class="st0" d="M72.9,479.9
				c-0.5,1.8-1.9,3.2-2.9,4.7c-0.7,1.2-1.5,2.4-2.3,3.5c-0.8,1.1-1.8,2.1-2.5,3.3c-0.4,0.7-0.7,1.5-1,2.3c-0.3,0.7-0.3,1.4-0.6,2.1
				c-0.3,0.7-0.5,1.7-1.2,2.1c-2.9,1.6-6.6,0.2-9.9-0.4c-3.4-0.6-8.4,0-9.9-3.1c-2.3-5,2.9-11.1,6.6-15.2c3.8-4.3,9.7-6.4,15-8.8
				c2.8-1.3,6.3-4.9,8.8-3.1C76.6,469.6,74.1,475.8,72.9,479.9z"/>
			<path id="path3864" inkscape:connector-curvature="0" sodipodi:nodetypes="aaaaaaaaaaaaaaaa" class="st1" d="M60,469.4
				c-2.7,1.8-5.5,4.6-5.8,7.8c-0.1,1.5,0.7,3.4,2.1,4.1c3,1.7,6.8-0.6,10.3-0.8c1.8-0.1,3.6-0.8,5.3-0.4c1.6,0.4,2.7,1.7,4.1,2.5
				c1.9,1.1,3.5,3.3,5.8,3.3c1.7,0,3.6-1,4.5-2.5c1-1.6-0.4-4,0.4-5.8c0.7-1.5,2.2-2.5,3.7-3.3c1.1-0.6,2.5-0.6,3.7-0.8
				c0.7-0.1,1.4-0.1,2.1-0.4c1.5-0.8,4-2,3.7-3.7c-0.7-3.5-6.4-3.5-9.9-4.1c-5.1-1-10.5-0.3-15.6,0.4
				C69.4,466.4,64.1,466.6,60,469.4L60,469.4z"/>
			
				<path id="path3866" inkscape:connector-curvature="0" sodipodi:nodetypes="aaaaaaaaaaaaaaaaaaaaaaaaaaaaaaaaaaaaaaaaaaaaaaaaaaaaaaaaaaaaaa" d="
				M87.9,461c-2.5-0.1-5.1,0.2-7.6,0.6c-1.3,0.2-2.6,0.5-3.9,0.8c-1.9,0.4-3.8,0.8-5.8,1.2c-1.6,0.3-3.3,0.6-4.9,1
				c-1.3,0.3-2.6,0.6-3.9,1c-1.6,0.6-3.1,1.2-4.5,2.1c-1.4,0.8-2.5,2-3.9,2.9c-1.4,0.8-3,1.1-4.3,2.1c-1.3,0.9-2.4,2.3-3.5,3.5
				c-0.8,0.9-1.8,1.7-2.5,2.7c-1.3,1.9-2.1,4-2.9,6.2c-0.6,1.7-1.1,3.4-1.2,5.1c-0.2,2.3-0.7,4.8,0.4,6.8c0.2,0.3,0.5,0.5,0.8,0.6
				c1.1,0.6,2.3,0.8,3.5,1.2c1.4,0.5,2.8,1.2,4.3,1.6c2,0.6,4.1,1.1,6.2,1.4c2.7,0.4,5.5,0.5,8.2,0.6c3.1,0.2,6.3,0.4,9.4,0.4
				c2.1,0,4.1-0.1,6.2-0.2c3-0.1,6,0.1,9-0.2c2.8-0.2,5.5-0.7,8.2-1.2c2-0.4,4-0.7,6-1.2c2.2-0.6,4.3-1.3,6.4-2.3
				c2.6-1.2,5.1-2.4,7.4-4.1c1.4-1,2.7-2.1,3.7-3.5c1.1-1.6,2.4-3.4,2.5-5.3c0-1.1-0.7-2.1-1.2-3.1c-0.8-1.5-1.9-2.8-2.9-4.1
				c-0.9-1.2-1.8-2.3-2.7-3.5c-0.8-1-1.4-2.2-2.3-3.1c-1.6-1.6-3.4-2.9-5.3-3.9c-1.7-0.9-3.7-1.3-5.5-2.1c-2.1-0.9-4-2.4-6.2-3.1
				C92.8,461.3,90.3,461,87.9,461z M84.8,469.2c2.9,0,5.8-0.2,8.6,0.6c2.9,0.8,5.3,2.9,8,4.1c2.7,1.2,5.9,1.7,8.4,3.3
				c2.5,1.6,5.7,3.3,6.4,6.2c0.1,0.4-0.3,0.7-0.4,1c-0.1,0.3-0.3,0.6-0.4,0.8c-0.6,0.9-1.1,1.9-1.8,2.7c-1.1,1.1-2.4,1.8-3.7,2.7
				c-1.9,1.2-3.7,2.5-5.8,3.3c-2.2,0.9-4.5,1.2-6.8,1.6c-2.6,0.5-5.2,0.7-7.8,1c-3.2,0.5-6.4,1.3-9.7,1.4c-3.5,0.2-7,0.1-10.5-0.4
				c-2.5-0.4-4.9-1.4-7.4-1.8c-4.5-0.9-9.1-0.9-13.6-1.8c-0.9-0.2-2.1-0.1-2.7-0.8c-0.3-0.4-0.1-1,0-1.4c0.2-1.7,0.8-3.3,1.4-4.9
				c0.7-1.9,1.3-3.9,2.7-5.3c0.5-0.6,1.4-0.8,2.1-1.2c1.1-0.8,2-1.9,3.1-2.9c1.3-1.2,2.6-2.6,4.1-3.5c2.6-1.5,5.7-2.4,8.6-3.1
				c2.3-0.5,4.6-0.6,7-0.8C78.1,469.5,81.5,469.2,84.8,469.2z"/>
		</g>
		<g id="g3874" transform="matrix(-1,0,0,1,254.78344,-30)">
			<path id="path3870" inkscape:connector-curvature="0" class="st8" d="M71.2,496.6l-1.5,4.9l0.9,2.1l0.9,1.7l2,1.2l3.4,0.3
				l3.4-0.8l2.1-1.7l0.6-3.6l-0.3-3.8l-0.5-1.4l-4.6-0.3l-2.7,0.8L71.2,496.6z"/>
			<path id="path3872" inkscape:connector-curvature="0" sodipodi:nodetypes="aaaaaaaaaaaaaaaaaaaaaa" d="M79,493.7
				c-1.6,0.1-3.1,0.7-4.6,0.9c-0.4,0-0.8-0.1-1.2,0c-1.2,0.4-2.4,1-3.2,2c-0.8,1-1.2,2.3-1.2,3.5c0,1.8,0.6,3.8,1.7,5.2
				c0.8,1.1,2.1,2,3.5,2.3c2,0.5,4.1-0.3,6.1-0.9c1.2-0.4,2.8-0.7,3.5-1.7c1.2-1.8,0.7-4.3,0.6-6.4c-0.1-1.7,0.4-3.9-0.9-4.9
				C82.2,492.8,80.4,493.6,79,493.7z M80.2,496.1c0.7,0.3,0.8,1.3,0.9,2c0.3,2,0.6,4.4-0.6,6.1c-0.6,0.8-1.7,1-2.6,1.2
				c-0.9,0.2-2,0.2-2.9,0c-1.5-0.4-3.4-0.9-4.1-2.3c-0.4-0.9,0-2,0.3-2.9c0.3-0.9,0.7-1.8,1.5-2.3c1.2-0.8,2.9-0.5,4.4-0.9
				C78,496.7,79.2,495.6,80.2,496.1z"/>
		</g>
		<g id="g3880" transform="matrix(-1,0,0,1,254.78344,-30)">
			
				<ellipse id="ellipse3876" transform="matrix(0.9943 -0.1063 0.1063 0.9943 -51.5131 15.1286)" class="st8" cx="116.1" cy="490.7" rx="4.6" ry="-4.5"/>
			<path id="path3878" inkscape:connector-curvature="0" sodipodi:nodetypes="aaaaaaaaaaaaaaaaaaaaaaa" d="M115.6,484.6
				c-0.4,0-0.7,0.3-1,0.5c-1,0.7-2.1,1.4-2.9,2.4c-0.7,0.9-1.3,1.9-1.6,3.1c-0.3,1-0.8,2.3-0.4,3.3c0.4,1.1,1.7,1.6,2.7,2.1
				c1.1,0.6,2.3,1.1,3.5,1.2c1.6,0.1,3.4-0.2,4.7-1.2c0.7-0.5,1.3-1.5,1.6-2.4c0.6-1.4,1.2-3,0.8-4.5c-0.3-1.1-1.4-1.8-2.3-2.4
				C119.2,485.6,117.4,484.5,115.6,484.6L115.6,484.6z M117.3,487.2c0.6,0.1,1.2,0.3,1.6,0.7c0.6,0.6,1.1,1.6,1.2,2.6
				c0.1,0.5,0,1.1-0.2,1.7c-0.3,0.9-0.9,1.7-1.6,2.1c-0.6,0.4-1.4,0.5-2.1,0.5c-0.9-0.1-1.9-0.4-2.7-0.9c-0.6-0.4-1.2-0.9-1.4-1.7
				c-0.2-0.8,0.1-1.7,0.4-2.4c0.4-0.9,1.1-1.7,1.8-2.1C115.3,487.2,116.3,487.1,117.3,487.2L117.3,487.2z"/>
		</g>
	</g>
	<g id="g3906" transform="matrix(-1,0,0,1,212.54266,0)">
		<g id="g3892">
			<path id="path3882" inkscape:connector-curvature="0" class="st9" d="M6.2,632.5l-1,9.9l2.3,18.5L14,662l17.5,1.4l5.3-3.1
				l-1.4-12.9l-6-0.8l-10.5,3.3l4.1-18.5l-2.3-3.1L8.8,630l-2.3,1.6L6.2,632.5z"/>
			<path id="path3884" inkscape:connector-curvature="0" class="st6" d="M10.3,630.2l-0.2,4.9v2.3l0.4,4.9l-0.2,4.9l-0.2,1.2v3.3
				v2.3l0.2,2.5l0.6,4.7l-4.7-2.5l-1.2-25.7L10.3,630.2z"/>
			<path id="path3886" inkscape:connector-curvature="0" class="st10" d="M31.8,647.5l-1.4,0.4l-3.1,2.3l-3.3,3.3l-0.2,2.7l1,3.1
				l1.2,1.8l2.5,1.8l2.9,0.2l4.3-1.4l1.4-2.7l-0.2-7.2l-1.8-3.9l-1.8-0.4l-0.6-0.2L31.8,647.5z"/>
			<path id="path3888" inkscape:connector-curvature="0" d="M18.6,631.3l-0.8,1.4l-0.4,2.4l-0.8,2l-0.2,0.5l-1.1,0.5l-2.1-1.6
				l-1.5-2l-1.1-1.4l-1.3-0.5l-0.2,3.9l2.3,2l1.7,1.9l0.6,0.5l-0.6,0.5l-1.7,1.9l-2.3,2l0.2,3.9l1.3-0.5l1.1-1.4l1.5-2l2.1-1.6
				l1.1,0.5l0.2,0.5l0.8,2l0.4,2.4l0.8,1.4l1.5-0.9l-0.4-3.1l-0.4-2.8l-1.9-2.7l1.9-2.7l0.4-2.8l0.4-3.1L18.6,631.3z"/>
			
				<path id="path3890" inkscape:connector-curvature="0" sodipodi:nodetypes="ccccccccccccccccccccccccccccccccccccccaaaaaaaaaaaaaaaaaaaaaaaaaaaaaaaaaaaaaa" d="
				M19.3,627.4l-5.2,0.6l-3.6,0.6l-5.9,2.3l-1,5.5l0.5,3.7l0.7,5.5l0.2,4.9l0.2,4.7l0.5,4.7l1.6,2.3l1.6,0.2l4.2,0.4h3.2l6.2,0.8
				l4.9,0.6l6.2-0.4l3.1-2l1.5-2l0-1.6l0.4-2.4v-0.9l-1.2-4.9v-1.7l-2.9-2.3l-2.9-0.9l-3.9,0.9l-1.3,0.6l-5.2,2l0.1-1.3l0.3-3.4
				l0.7-1.4l0.7-3.2l0.7-0.9l1.3-2.9l0.3-5.5l-2.3-2.6H19.3z M19.4,629.6c0.5,0.2,0.6,0.9,0.8,1.4c0.3,0.8,0.5,1.6,0.6,2.5
				c0.1,0.9,0,1.8-0.2,2.7c-0.2,1.1-0.6,2.1-1,3.1c-0.4,1.2-1.1,2.3-1.4,3.5c-0.3,1.2-0.1,2.5-0.5,3.6c-0.3,0.7-0.7,1.3-1.2,1.8
				c-0.6,0.7-2,0.8-2.2,1.7c-0.1,0.7,0.4,1.6,1,1.8c0.6,0.3,1.4-0.3,2.1-0.4c1-0.2,2-0.6,3.1-0.8c0.4-0.1,0.8-0.1,1.2-0.2
				c1.1-0.2,2.2-0.2,3.3-0.4c1.3-0.3,2.4-0.8,3.7-1c1-0.2,2.1-0.4,3.1-0.2c0.7,0.2,1.4,0.5,1.8,1c1,1.1,1.6,2.5,2,4
				c0.3,1.1,0.1,2.2,0,3.3c-0.1,1.3,0.5,2.9-0.4,3.9c-0.6,0.7-1.9,0.3-2.8,0.5c-0.8,0.2-1.6,0.8-2.5,0.8c-1.3,0.1-2.6-0.4-3.9-0.6
				c-1.4-0.3-2.9-0.8-4.3-1c-2-0.3-4.1-0.2-6.2-0.4c-0.8-0.1-1.5-0.3-2.3-0.4c-1.4-0.2-3,0.2-4.3-0.4c-0.4-0.2-0.6-0.5-0.8-0.8
				c-0.4-0.6-0.5-1.3-0.6-2.1c-0.2-1.7,0.2-3.4,0-5.1c-0.1-1.3-0.6-2.4-0.8-3.7c-0.2-1.3-0.4-2.6-0.4-3.9c0-1.7,0.5-3.3,0.6-4.9
				c0.1-1.7-0.7-3.6,0-5.1c0.3-0.6,1-0.8,1.4-1.2c0.5-0.5,0.8-1.3,1.4-1.6c0.9-0.4,2.1,0.1,3.1,0C15,630.6,17.3,628.6,19.4,629.6z"
				/>
		</g>
		<path id="path3896" inkscape:connector-curvature="0" class="st12" d="M10.9,624.2l14.2,0.8l1.4,3.1l-0.8,6.6l-22.8,0.6l0.8-7.8
			l2.5-1.6L10.9,624.2z"/>
		<path id="path3898" inkscape:connector-curvature="0" class="st2" d="M11.4,625.8v3.9l-0.1,3.2l-0.1,2.5l-0.9,0.6l-3.8-0.4L5,635
			l-1.6-3l1-4.8l1.6-1.3l4.2-0.9l0.4,0.1L11.4,625.8z"/>
		<path id="path3900" inkscape:connector-curvature="0" d="M14.8,623.8l-5.5,0.6l-3.5,0.4l-3.1,1.6l-0.4,4.7l-0.2,3.1l0.4,1.8
			l4.9,0.2l6,0.4l3.9,0.2l5.1-0.4l3.9-0.8l0.4-1l0.4-3.9v-2.7l-0.4-2.3l-0.4-0.6l-2.7-1.2h-4.7L14.8,623.8z M6.4,626.3h2.3l3.1,0.2
			l6.2-0.2l6.4,0.2l1,1.8v3.5l-1.2,2.3l-2.5,0.4h-4.3h-5.1l-5.7,0.2l-2.1-1.4v-2.7l0.2-2.3L6.4,626.3z"/>
		<path id="path3902" inkscape:connector-curvature="0" class="st1" d="M8.8,626.1l-2,0.5l-0.4,1.7l2.6,1.5l4.4,0.3H16l3.6-0.3
			l2.4-0.5l1.2-1.3v-1.3l-3-0.3l-8.4,0.3L8.8,626.1z"/>
		<path id="path3904" inkscape:connector-curvature="0" d="M8.6,625.8l-1.8,1l1.4,2.2l4.1,1.1l3.5,0.2l3.5-0.8l2.3-1.1l1.6-1.7
			l0.4-1l1,1.4l-1.2,1.7l-2.7,1.1l-4.5,1h-4.5l-3.3-0.5l-1.2-0.5l-1.6-1.3l-1.2-1.9l-0.3-0.6l3-0.7h0.7L8.6,625.8z"/>
	</g>
	<g id="g3922" transform="translate(143.6088,-1.6430318)">
		<path id="path3908" inkscape:connector-curvature="0" class="st6" d="M-8.6,648.1l0.2,8.8l7.8,3.3l5.8,1.6l6.2,0.2l3.7-5.1
			l1.8-3.1l-1-3.3l-1.8-4.7l-0.4-0.8l-21.4,2.7L-8.6,648.1z"/>
		<path id="path3910" inkscape:connector-curvature="0" class="st2" d="M-7.6,641.1l-1.2,3.7l-0.2,2.7l3.1,0.6l4.3-1.4l4.1-0.2
			l4.5-0.8l3.7,0.4l2.3-0.2l0.4-1.4l-0.2-4.1l-0.2-1.4L8,637.6l-8,1.2l-5.3,0.2l-0.6,0.6L-7.6,641.1z"/>
		<path id="path3912" inkscape:connector-curvature="0" d="M13,635.8l-11,0.9l-5.5,0.9l-3.8,0.6l-2,2.6l-1.2,5.8l-0.6,8.4l0.9,3.2
			l5.8,3.2l4.9,0.3l5.5,0.9l4.9-0.3l2.9-1.5l4.6-5.5l-1.7-6.7l-2-7.8v-4.6L13,635.8z M7.5,638.7l3.8,0.3l0.3,2l1.2,3.8l1.5,5.8v4.4
			l-2.9,3.2l-2.6,2l-3.5,0.3l-3.5-0.9l-4.4-1.2l-4.1-1.7l-1.7-2.3l0.3-3.2l-0.3-5.5l1.2-3.8l2-1.7l4.1-0.6h1.5l1.5-0.6h2L7.5,638.7z
			"/>
		<path id="path3914" inkscape:connector-curvature="0" class="st13" d="M-10.1,646h4.3l4.3-1.2l5.8-0.6l4.1-0.6l4.1,0.2l1.2,2.3
			l-1.2,1.8l-6,1.2l-8.6,0.8l-4.3-0.2h-2.5l-0.6-1.6v-1.2L-10.1,646z"/>
		<path id="path3916" inkscape:connector-curvature="0" class="st13" d="M-2.5,660l-1.8-4.9l-0.2-1.8v-1.4l2.1,0.2l0.6,2.3l1.2,3.1
			l0.4,1.6L-2.5,660z"/>
		<path id="path3918" inkscape:connector-curvature="0" class="st13" d="M2.7,661.2l-0.2-4.9l-1-3.3v-1l3.3-0.4l1.2,1.8l0.4,3.7
			l0.2,2.7l-1,1.4L2.7,661.2z"/>
		<path id="path3920" inkscape:connector-curvature="0" class="st13" d="M10.3,660.6l-1.4-3.7l-0.6-3.3v-2.5v-0.8l2.5,1.2l1,2.7
			l1,2.5l0.2,1.4l-0.2,1.6L10.3,660.6z"/>
	</g>
	
		<g id="g1339" inkscape:export-filename="E:\Ittle Scape\Media\ItsyScape\Items\LeatherArmor\MooishLeatherCoif.png" inkscape:export-xdpi="192" inkscape:export-ydpi="192">
		
			<rect id="rect1028" x="283.2" y="455.7" transform="matrix(-0.9943 0.1063 -0.1063 -0.9943 663.5611 924.0859)" class="st4" width="48" height="48"/>
		<g id="g1043" transform="matrix(-1.092632,-0.05063095,-0.05060745,1.0931392,666.98824,-29.137607)">
			<path id="path1026" inkscape:connector-curvature="0" class="st14" d="M292.4,475.6l2.5,14.6l22.2,2.1l0.1-17.3L292.4,475.6z"/>
			
				<path id="path1014" inkscape:connector-curvature="0" inkscape:original-d="m 290.84147,482.23792 -1.3434,7.96689 c 0,0 6.84656,3.91664 10.49188,4.889 5.06739,1.35169 15.53299,1.23745 15.53299,1.23745 l 0.39502,-8.52881 c 0,0 -10.0752,0.28814 -14.96157,-0.95198 -3.51296,-0.89156 -10.11492,-4.61255 -10.11492,-4.61255 z" inkscape:path-effect="#path-effect1016" sodipodi:nodetypes="ccaccac" class="st15" d="
				M290.8,482.2l-1.3,8c3.2,2.1,6.8,3.8,10.5,4.9c5,1.5,10.3,1.9,15.5,1.2l0.4-8.5c-5,0.7-10.1,0.4-15-1
				C297.4,485.8,293.9,484.3,290.8,482.2L290.8,482.2z"/>
			<path id="path1022" inkscape:connector-curvature="0" class="st2" d="M306.7,487.9l-0.8,8.3l11.9-0.2l0.6-8.5L306.7,487.9z"/>
			<path id="path1024" inkscape:connector-curvature="0" sodipodi:nodetypes="ccaacc" class="st1" d="M289.9,490.5l0.9-5.4
				c0,0,2.8,3.1,4.6,3.8c1.3,0.5,3.2-1.1,4.1,0.2c1,1.3-0.3,5.4-0.3,5.4L289.9,490.5z"/>
			
				<path id="path1018" inkscape:connector-curvature="0" inkscape:original-d="m 290.84147,482.23792 -1.3434,7.96689 c 0,0 6.84656,3.91664 10.49188,4.889 5.06739,1.35169 15.53299,1.23745 15.53299,1.23745 l 0.39502,-8.52881 c 0,0 -10.0752,0.28814 -14.96157,-0.95198 -3.51296,-0.89156 -10.11492,-4.61255 -10.11492,-4.61255 z" inkscape:path-effect="#path-effect1020" sodipodi:nodetypes="ccaccac" class="st16" d="
				M290.8,482.2l-1.3,8c3.2,2.1,6.8,3.8,10.5,4.9c5,1.5,10.3,1.9,15.5,1.2l0.4-8.5c-5,0.7-10.1,0.4-15-1
				C297.4,485.8,293.9,484.3,290.8,482.2L290.8,482.2z"/>
			
				<path id="path998" inkscape:connector-curvature="0" inkscape:original-d="m 321.52785,473.123 c 0,0 2.90658,8.62719 3.58707,13.10469 0.29848,1.96396 0.20538,5.95599 0.20538,5.95599 0,0 -3.70998,3.33123 -5.956,4.31295 -1.27943,0.55923 -4.10757,0.82152 -4.10757,0.82152 0,0 0.56572,-7.54722 0.20537,-11.29584 -0.31647,-3.29217 -2.06684,-9.70437 -2.06684,-9.70437 z" inkscape:path-effect="#path-effect1000" sodipodi:nodetypes="cacacacc" class="st17" d="
				M321.5,473.1c1.9,4.1,3.1,8.6,3.6,13.1c0.2,2,0.3,4,0.2,6c-1.5,1.9-3.6,3.5-6,4.3c-1.3,0.5-2.7,0.8-4.1,0.8
				c0.5-3.7,0.6-7.5,0.2-11.3c-0.3-3.3-1-6.6-2.1-9.7L321.5,473.1z"/>
			
				<path id="path175" inkscape:connector-curvature="0" inkscape:original-d="m 303.22952,462.37636 c -2.91244,0.0258 -5.86524,1.3668 -8.13259,3.19494 -2.17399,1.75286 -4.6472,6.9708 -4.6472,6.9708 0,0 3.74305,3.52601 6.09944,4.35674 4.75594,1.67667 10.12613,1.68193 15.10339,0.87135 3.60216,-0.58663 10.16574,-4.0663 10.16574,-4.0663 0,0 -1.97361,-4.36489 -3.77585,-5.80899 -4.11196,-3.29483 -9.54397,-5.56521 -14.81293,-5.51854 z" inkscape:path-effect="#path-effect982" sodipodi:nodetypes="aacaacaa" class="st0" d="
				M303.2,462.4c-2.9,0.3-5.8,1.4-8.1,3.2c-2.2,1.8-3.9,4.2-4.6,7c1.7,1.9,3.8,3.3,6.1,4.4c4.7,2.1,10.1,2,15.1,0.9
				c3.6-0.8,7-2.2,10.2-4.1c-0.9-2.2-2.2-4.1-3.8-5.8C314.3,464,308.7,461.8,303.2,462.4L303.2,462.4z"/>
			<path id="path988" inkscape:connector-curvature="0" sodipodi:nodetypes="caccccc" class="st2" d="M300,464.1
				c0,0,4.8,1.4,6.7,2.9c3,2.4,6.7,9.3,6.7,9.3l8.1-3.2l-5.8-8.1l-12.5-2.9L300,464.1z"/>
			<path id="path990" inkscape:connector-curvature="0" sodipodi:nodetypes="aaaaaaaaaaa" class="st1" d="M301.3,463.5
				c-2.4,0.4-5.8,0.4-6.8,2.3c-0.5,0.9,0.4,2.2,1.2,2.9c1.1,0.8,2.7,1,4.1,0.9c1.5-0.2,2.4-1.8,3.9-1.8c1.3,0,2.2,1.6,3.5,1.6
				c1.1,0,2.7-0.3,2.9-1.2c0.1-0.5-1.2-0.6-1-1.1c0.3-0.9,2.7,0.3,3.1-0.5c0.5-1.1-1-2.5-2.3-3C307.4,462.3,304.1,463.1,301.3,463.5
				L301.3,463.5z"/>
			
				<path id="path984" inkscape:connector-curvature="0" inkscape:original-d="m 303.22952,462.37636 c -2.91244,0.0258 -5.86524,1.3668 -8.13259,3.19494 -2.17399,1.75286 -4.6472,6.9708 -4.6472,6.9708 0,0 3.74305,3.52601 6.09944,4.35674 4.75594,1.67667 10.12613,1.68193 15.10339,0.87135 3.60216,-0.58663 10.16574,-4.0663 10.16574,-4.0663 0,0 -1.97361,-4.36489 -3.77585,-5.80899 -4.11196,-3.29483 -9.54397,-5.56521 -14.81293,-5.51854 z" inkscape:path-effect="#path-effect986" sodipodi:nodetypes="aacaacaa" class="st18" d="
				M303.2,462.4c-2.9,0.3-5.8,1.4-8.1,3.2c-2.2,1.8-3.9,4.2-4.6,7c1.7,1.9,3.8,3.3,6.1,4.4c4.7,2.1,10.1,2,15.1,0.9
				c3.6-0.8,7-2.2,10.2-4.1c-0.9-2.2-2.2-4.1-3.8-5.8C314.3,464,308.7,461.8,303.2,462.4L303.2,462.4z"/>
			<circle id="path992" class="st19" cx="291.1" cy="474.3" r="3"/>
			<circle id="circle996" class="st19" cx="310.8" cy="477.8" r="3.6"/>
			<path id="path1002" inkscape:connector-curvature="0" sodipodi:nodetypes="cac" class="st20" d="M317.7,476.4
				c0,0,1.4,3.2,1.8,4.9c0.6,2.1,1,6.4,1,6.4"/>
		</g>
	</g>
	<g id="g1162" transform="matrix(1,0,0,0.90111183,-2.75,65.109414)">
	</g>
	
		<g id="g1383" inkscape:export-filename="E:\Ittle Scape\Media\ItsyScape\Items\LeatherArmor\MooishLeatherBoots.png" inkscape:export-xdpi="192" inkscape:export-ydpi="192">
		
			<rect id="rect1148" x="283.2" y="595.7" transform="matrix(-0.993 -0.1178 0.1178 -0.993 539.1783 1271.3188)" class="st4" width="47.9" height="48.1"/>
		<g id="g1261" transform="translate(10.960156,-7.7781746)">
			<path id="path1241" inkscape:connector-curvature="0" class="st6" d="M288,618.2l1.2,19.6l7.2,2l16.5-0.9l4-5.9l-3-8.6l-6.8-0.7
				l-3.2,0.9l-0.5-9L288,618.2z"/>
			<path id="path1243" inkscape:connector-curvature="0" class="st9" d="M295.8,619l-0.5,20.2l-3.1-0.3l-4.1-2.8l0.5-18.5L295.8,619
				z"/>
			<path id="path1245" inkscape:connector-curvature="0" sodipodi:nodetypes="aaaaaaa" class="st10" d="M307.4,625.5
				c-2.4,1.2-3.2,4.2-3.4,6.7c-0.2,2.6,0.4,6,2.8,7.5c1.5,1,3.9,0.8,5.6,0c2.6-1.3,4.6-4.2,4.9-6.9c0.3-2.3-0.8-5-2.8-6.5
				C312.6,625,309.5,624.4,307.4,625.5L307.4,625.5z"/>
			<path id="path1247" inkscape:connector-curvature="0" sodipodi:nodetypes="aaaaaa" class="st11" d="M309,627c1-1,3-1.1,4.2-0.5
				c1.2,0.6,2.2,2.2,2,3.5c-0.2,1.2-1.6,2-2.8,2.3c-1.3,0.3-3.2,0.3-4-0.8C307.6,630.3,307.9,628.1,309,627z"/>
			<path id="path1249" inkscape:connector-curvature="0" sodipodi:nodetypes="caaacaccccc" class="st21" d="M300.5,629
				c0,0,2.5-4,4.8-4.7c2.5-0.8,5.9-0.6,8,0.9c2.3,1.6,3.3,4.6,3.2,7.2c-0.1,2.7-3.8,7.2-3.8,7.2s-13,0.8-19.2-0.5c-1.8-0.4-5-2-5-2
				L288,618l6.2-3.4l9,0.9l0.4,10.3"/>
			<path id="path1251" inkscape:connector-curvature="0" sodipodi:nodetypes="cccccac" class="st0" d="M286.8,609.6l0.2,8.6l9.9,0.6
				l9.6-0.4v-8.6c0,0-6.3-1.3-9.5-1.4C293.5,608.4,286.8,609.6,286.8,609.6L286.8,609.6z"/>
			<path id="path1253" inkscape:connector-curvature="0" sodipodi:nodetypes="ccccccc" class="st12" d="M287.2,610.5v8.2l8.2,1
				l3-0.5l-0.2-10.5l-3.5,0.5L287.2,610.5z"/>
			<path id="path1255" inkscape:connector-curvature="0" sodipodi:nodetypes="ccaccac" class="st21" d="M286.8,609.6l0.2,8.6
				c0,0,6.4,1.7,9.7,1.7c3.3,0,9.8-1.5,9.8-1.5v-8.6c0,0-6.3-1.2-9.5-1.2C293.5,608.6,286.8,609.6,286.8,609.6L286.8,609.6z"/>
			<path id="path1257" inkscape:connector-curvature="0" sodipodi:nodetypes="cac" class="st22" d="M295.5,619.8c0,0,3,2.1,4.2,3.4
				c1.2,1.2,3,3.8,3,3.8"/>
			<path id="path1259" inkscape:connector-curvature="0" sodipodi:nodetypes="cac" class="st22" d="M304,619.5c0,0-3.5,2.5-4.8,4.1
				c-1.3,1.6-2.8,5.4-2.8,5.4"/>
		</g>
		<g id="g1239" transform="translate(0,-1.0606601)">
			<path id="path1156" inkscape:connector-curvature="0" class="st6" d="M288,618.2l1.2,19.6l7.2,2l16.5-0.9l4-5.9l-3-8.6l-6.8-0.7
				l-3.2,0.9l-0.5-9L288,618.2z"/>
			<path id="path1185" inkscape:connector-curvature="0" class="st9" d="M295.8,619l-0.5,20.2l-3.1-0.3l-4.1-2.8l0.5-18.5L295.8,619
				z"/>
			<path id="path1168" inkscape:connector-curvature="0" sodipodi:nodetypes="aaaaaaa" class="st10" d="M307.4,625.5
				c-2.4,1.2-3.2,4.2-3.4,6.7c-0.2,2.6,0.4,6,2.8,7.5c1.5,1,3.9,0.8,5.6,0c2.6-1.3,4.6-4.2,4.9-6.9c0.3-2.3-0.8-5-2.8-6.5
				C312.6,625,309.5,624.4,307.4,625.5L307.4,625.5z"/>
			<path id="path1204" inkscape:connector-curvature="0" sodipodi:nodetypes="aaaaaa" class="st11" d="M309,627c1-1,3-1.1,4.2-0.5
				c1.2,0.6,2.2,2.2,2,3.5c-0.2,1.2-1.6,2-2.8,2.3c-1.3,0.3-3.2,0.3-4-0.8C307.6,630.3,307.9,628.1,309,627z"/>
			<path id="path1154" inkscape:connector-curvature="0" sodipodi:nodetypes="caaacaccccc" class="st21" d="M300.5,629
				c0,0,2.5-4,4.8-4.7c2.5-0.8,5.9-0.6,8,0.9c2.3,1.6,3.3,4.6,3.2,7.2c-0.1,2.7-3.8,7.2-3.8,7.2s-13,0.8-19.2-0.5c-1.8-0.4-5-2-5-2
				L288,618l6.2-3.4l9,0.9l0.4,10.3"/>
			<path id="path1152" inkscape:connector-curvature="0" sodipodi:nodetypes="cccccac" class="st0" d="M286.8,609.6l0.2,8.6l9.9,0.6
				l9.6-0.4v-8.6c0,0-6.3-1.3-9.5-1.4C293.5,608.4,286.8,609.6,286.8,609.6L286.8,609.6z"/>
			<path id="path1202" inkscape:connector-curvature="0" sodipodi:nodetypes="ccccccc" class="st12" d="M287.2,610.5v8.2l8.2,1
				l3-0.5l-0.2-10.5l-3.5,0.5L287.2,610.5z"/>
			<path id="path1150" inkscape:connector-curvature="0" sodipodi:nodetypes="ccaccac" class="st21" d="M286.8,609.6l0.2,8.6
				c0,0,6.4,1.7,9.7,1.7c3.3,0,9.8-1.5,9.8-1.5v-8.6c0,0-6.3-1.2-9.5-1.2C293.5,608.6,286.8,609.6,286.8,609.6L286.8,609.6z"/>
			<path id="path1164" inkscape:connector-curvature="0" sodipodi:nodetypes="cac" class="st22" d="M295.5,619.8c0,0,3,2.1,4.2,3.4
				c1.2,1.2,3,3.8,3,3.8"/>
			<path id="path1166" inkscape:connector-curvature="0" sodipodi:nodetypes="cac" class="st22" d="M304,619.5c0,0-3.5,2.5-4.8,4.1
				c-1.3,1.6-2.8,5.4-2.8,5.4"/>
		</g>
	</g>
	
		<g id="g1403" inkscape:export-filename="E:\Ittle Scape\Media\ItsyScape\Items\LeatherArmor\MooishLeatherGloves.png" inkscape:export-xdpi="192" inkscape:export-ydpi="192">
		
			<rect id="rect1302" x="363.2" y="595.7" transform="matrix(-0.993 -0.1178 0.1178 -0.993 698.6216 1280.7402)" class="st4" width="47.9" height="48.1"/>
		<g id="g1320" transform="matrix(1,0,0,1.11573,1.4634344,-73.016953)">
			<g id="g1300" transform="matrix(-1,0,0,1,637.37318,-0.58578647)">
				<path id="path1286" inkscape:connector-curvature="0" sodipodi:nodetypes="ccaaaaaaac" class="st6" d="M243.2,615.9l11.3,4.1
					c0,0,1.5,4.5,0.7,6.7c-0.9,2.5-3,4.8-5.7,6.1c-1.7,0.9-4,1-6,0.9c-1.9-0.1-3.8-0.6-5.3-1.5c-2.3-1.3-4.2-3.2-5.3-5.2
					c-0.6-1.1-0.9-2.3-0.7-3.5c0.2-1.4,1-2.8,2.1-3.8C236.7,617.7,243.2,615.9,243.2,615.9L243.2,615.9z"/>
				<path id="path1288" inkscape:connector-curvature="0" sodipodi:nodetypes="cccccc" class="st2" d="M237,618.3l6.5-2.8l11.6,6.8
					l-0.6,6.2l-12.2-4.2L237,618.3z"/>
				<path id="path1290" inkscape:connector-curvature="0" sodipodi:nodetypes="ccaaaaaaac" class="st23" d="M243.2,615.9l11.7,5.8
					c0,0,0.9,3.4,0.4,4.9c-0.9,2.6-3,4.8-5.7,6.1c-1.7,0.9-4,1-6,0.9c-1.9-0.1-3.8-0.6-5.3-1.5c-2.3-1.3-4.2-3.2-5.3-5.2
					c-0.6-1.1-0.9-2.3-0.7-3.5c0.2-1.4,1-2.8,2.1-3.8C236.7,617.7,243.2,615.9,243.2,615.9L243.2,615.9z"/>
				<path id="path1292" inkscape:connector-curvature="0" sodipodi:nodetypes="cac" class="st23" d="M236.5,619c0,0,4.5,4.4,7.2,6
					c3.2,1.8,10.2,3.8,10.2,3.8"/>
				<path id="path1294" inkscape:connector-curvature="0" class="st24" d="M233.5,627.3l4-1.8"/>
				<path id="path1296" inkscape:connector-curvature="0" class="st24" d="M238.1,631.9l2.2-2.5"/>
				<path id="path1298" inkscape:connector-curvature="0" class="st24" d="M245.1,633.3l0.2-2.9"/>
			</g>
			<g id="g1284" transform="translate(134,-7.0606602)">
				<path id="path1265" inkscape:connector-curvature="0" sodipodi:nodetypes="ccaaaaaaac" class="st6" d="M243.2,615.9l11.3,4.1
					c0,0,1.5,4.5,0.7,6.7c-0.9,2.5-3,4.8-5.7,6.1c-1.7,0.9-4,1-6,0.9c-1.9-0.1-3.8-0.6-5.3-1.5c-2.3-1.3-4.2-3.2-5.3-5.2
					c-0.6-1.1-0.9-2.3-0.7-3.5c0.2-1.4,1-2.8,2.1-3.8C236.7,617.7,243.2,615.9,243.2,615.9L243.2,615.9z"/>
				<path id="path1269" inkscape:connector-curvature="0" sodipodi:nodetypes="cccccc" class="st2" d="M237,618.3l6.5-2.8l11.6,6.8
					l-0.6,6.2l-12.2-4.2L237,618.3z"/>
				<path id="path1263" inkscape:connector-curvature="0" sodipodi:nodetypes="ccaaaaaaac" class="st23" d="M243.2,615.9l11.7,5.8
					c0,0,0.9,3.4,0.4,4.9c-0.9,2.6-3,4.8-5.7,6.1c-1.7,0.9-4,1-6,0.9c-1.9-0.1-3.8-0.6-5.3-1.5c-2.3-1.3-4.2-3.2-5.3-5.2
					c-0.6-1.1-0.9-2.3-0.7-3.5c0.2-1.4,1-2.8,2.1-3.8C236.7,617.7,243.2,615.9,243.2,615.9L243.2,615.9z"/>
				<path id="path1267" inkscape:connector-curvature="0" sodipodi:nodetypes="cac" class="st23" d="M236.5,619c0,0,4.5,4.4,7.2,6
					c3.2,1.8,10.2,3.8,10.2,3.8"/>
				<path id="path1271" inkscape:connector-curvature="0" class="st24" d="M233.5,627.3l4-1.8"/>
				<path id="path1273" inkscape:connector-curvature="0" class="st24" d="M238.1,631.9l2.2-2.5"/>
				<path id="path1275" inkscape:connector-curvature="0" class="st24" d="M245.1,633.3l0.2-2.9"/>
			</g>
		</g>
	</g>
	
		<g id="g1358" inkscape:export-filename="E:\Ittle Scape\Media\ItsyScape\Items\LeatherArmor\MooishLeatherBody.png" inkscape:export-xdpi="192" inkscape:export-ydpi="192">
		
			<rect id="rect1045" x="283.1" y="535.7" transform="matrix(-0.9944 0.1057 -0.1057 -0.9944 671.7436 1083.8572)" class="st4" width="48" height="48"/>
		<g id="g1120" transform="translate(1.8678803,-0.94893694)">
			<path id="path1053" inkscape:connector-curvature="0" sodipodi:nodetypes="caaaacc" class="st0" d="M319.5,546.4
				c0,0,5.2,15.4,3.2,22.8c-1.1,3.9-4,7.6-7.5,9.5c-5.6,3.1-12.9,3.9-19,2c-3.3-1-6.4-3.6-7.8-6.8c-3.3-7.6,0.7-24.9,0.7-24.9
				L319.5,546.4z"/>
			<path id="path1055" inkscape:connector-curvature="0" sodipodi:nodetypes="caaccccccc" class="st2" d="M304.4,548
				c0,0-5.7,14.1-3.5,20.9c1.1,3.5,4.4,6.4,7.8,7.8c2.9,1.1,9.2-0.4,9.2-0.4l-8.1,4.4l-10.8,0.7l-10.6-7.1l-0.5-16.1l1.3-9.1
				L304.4,548z"/>
			<path id="path1122" inkscape:connector-curvature="0" sodipodi:nodetypes="aaaaaaa" class="st5" d="M288.1,571
				c-0.2-2.3,1.1-5.1,3.2-6c1.5-0.7,3.7,0,4.9,1.1c1,0.9,1.1,2.5,1.4,3.9c0.2,0.9,0.6,1.9,0.4,2.8c-0.7,2.2-2.3,5.4-4.6,5.3
				C290.5,578,288.4,573.9,288.1,571L288.1,571z"/>
			<path id="path1073" inkscape:connector-curvature="0" sodipodi:nodetypes="aaaaaaaaaaa" class="st1" d="M305.5,552.3
				c-1.2,0.7-2.4,1.6-3.5,2.5c-0.6,0.5-1.3,0.8-1.8,1.4c-0.9,1.3-1.7,3-1.4,4.6c0.4,2,2,4,3.9,4.6c2.6,0.8,5.1-2.2,7.8-2.1
				c2.3,0,4.6,3.1,6.7,2.1c2.3-1.1,3.1-4.6,2.8-7.1c-0.2-2-2-3.6-3.5-4.9c-1.9-1.6-4.2-3.2-6.7-3.2
				C308.1,550.2,306.8,551.5,305.5,552.3L305.5,552.3z"/>
			<path id="path1051" inkscape:connector-curvature="0" sodipodi:nodetypes="caaaacc" class="st25" d="M319.5,546.4
				c0,0,5.2,15.4,3.2,22.8c-1.1,3.9-4,7.6-7.5,9.5c-5.6,3.1-12.9,3.9-19,2c-3.3-1-6.4-3.6-7.8-6.8c-3.3-7.6,0.7-24.9,0.7-24.9
				L319.5,546.4z"/>
			
				<path id="path1047" inkscape:connector-curvature="0" inkscape:original-d="m 319.54938,546.43763 c 0,0 -3.33024,-3.39873 -5.59682,-4.42747 -3.63715,-1.6508 -7.95292,-2.68743 -12.09861,-2.46287 -3.53768,0.19158 -7.42481,1.11006 -9.8995,3.19709 -1.92568,1.62404 -2.82841,6.3942 -2.82841,6.3942 0,0 4.04638,2.21422 6.37435,2.53066 6.63121,0.90139 13.94878,0.3619 20.01348,-2.0199 1.68938,-0.66347 4.03551,-3.21171 4.03551,-3.21171 z" inkscape:path-effect="#path-effect1049" sodipodi:nodetypes="caaacaac" class="st26" d="
				M319.5,546.4c-1.6-1.8-3.5-3.3-5.6-4.4c-3.7-1.9-7.9-2.5-12.1-2.5c-1.8,0-3.6,0.2-5.3,0.7s-3.3,1.3-4.6,2.5
				c-1.7,1.6-2.8,4-2.8,6.4c2,1.1,4.2,1.9,6.4,2.5c3.3,0.9,6.8,1.4,10.2,1.1c3.4-0.3,6.8-1.3,9.8-3.1
				C317,548.8,318.3,547.7,319.5,546.4L319.5,546.4z"/>
			<path id="path1065" inkscape:connector-curvature="0" class="st27" d="M307.5,556.3l10.5,4.5l-10.8,9.5l10.6,6"/>
			<circle id="path1057" class="st28" cx="306.1" cy="556.2" r="3.9"/>
			<circle id="circle1059" class="st28" cx="317.6" cy="560.7" r="3.9"/>
			
				<path id="path1067" inkscape:connector-curvature="0" inkscape:original-d="m 324.52503,568.84395 c -0.14523,1.07795 -0.72152,3.17678 -0.72152,3.17678 0,0 -10.76197,3.78576 -17.12575,4.51256 -6.36378,0.7268 -19.25303,-1.5 -19.25303,-1.5 0,0 -1.1841,-2.428 -1.42615,-3.75 -0.20977,-1.14562 0,-3.5 0,-3.5 0,0 13.67987,3.18837 19.9661,2.5 6.28624,-0.68837 18.72492,-5.11612 18.72492,-5.11612 0,0 -9e-4,2.46197 -0.16457,3.67678 z" inkscape:path-effect="#path-effect1069-3" sodipodi:nodetypes="aczcaczca" class="st29" d="
				M324.5,568.8c-0.2,1.1-0.4,2.1-0.7,3.2c-5.4,2.4-11.2,3.9-17.1,4.5c-6.4,0.6-13,0.1-19.3-1.5c-0.7-1.1-1.2-2.4-1.4-3.8
				c-0.2-1.2-0.2-2.3,0-3.5c6.4,2.1,13.2,3,20,2.5c6.5-0.5,12.9-2.2,18.7-5.1C324.8,566.4,324.7,567.6,324.5,568.8L324.5,568.8z"/>
			<path id="rect1071" class="st30" d="M307.3,567.8h4.4c1.3,0,2.4,1,2.6,2.2l0.7,4.5c0.2,1.2-0.7,2.2-2,2.2h-4.4
				c-1.3,0-2.4-1-2.6-2.2l-0.7-4.5C305.1,568.8,306,567.8,307.3,567.8z"/>
			<path id="path1124" inkscape:connector-curvature="0" class="st31" d="M304.5,540.3l6,4"/>
			<path id="path1126" inkscape:connector-curvature="0" class="st31" d="M296.6,540.9l9.5,5.6"/>
			<path id="path1128" inkscape:connector-curvature="0" class="st31" d="M291.2,543.5l6.5,4.2"/>
		</g>
		<path id="path1322" inkscape:connector-curvature="0" class="st32" d="M310.2,569.8l2.8,0.2l0.4,3.2l-2.3,0.2"/>
	</g>
</g>
</svg>
